<svg width="230" height="242" viewBox="0 0 230 242" fill="none" xmlns="http://www.w3.org/2000/svg">
<path fill-rule="evenodd" clip-rule="evenodd" d="M123.258 68.4912C123.258 68.4912 173.417 73.6997 164.446 94.9002C155.475 116.101 122.693 80.1044 123.258 68.4912Z" fill="#DF9848"/>
<path fill-rule="evenodd" clip-rule="evenodd" d="M122.096 68.4369C122.096 68.4361 122.095 68.4355 122.095 68.4347C122.096 68.4135 122.098 68.3922 122.1 68.371C122.164 67.7573 122.698 67.2992 123.314 67.3293C123.335 67.3303 123.356 67.3321 123.377 67.3342C123.378 67.3342 123.38 67.3345 123.382 67.3348C123.724 67.3708 141.783 69.3008 154.331 75.3996C163.29 79.7536 169.372 86.2436 165.517 95.3535C163.92 99.1288 161.603 101.235 158.909 102.123C155.007 103.409 150.173 102.068 145.304 99.1007C137.213 94.1692 128.947 84.8179 124.837 77.2094C122.986 73.7837 121.987 70.679 122.096 68.4369ZM124.485 69.8088C124.839 72.3518 126.46 75.7218 128.797 79.3028C133.083 85.871 139.856 93.0558 146.515 97.1143C150.706 99.6689 154.822 101.021 158.181 99.9131C160.328 99.2057 162.101 97.4562 163.374 94.447C166.697 86.5955 161.035 81.2442 153.314 77.4919C143.001 72.4793 128.864 70.3682 124.485 69.8088Z" fill="#4E2F0E"/>
<path fill-rule="evenodd" clip-rule="evenodd" d="M125.498 131.611C133.474 117.853 155.368 97.7361 165.932 107.498C175.569 116.406 166.438 131.932 153.236 131.611L125.498 131.611Z" fill="#DF9848"/>
<path fill-rule="evenodd" clip-rule="evenodd" d="M124.492 131.028C129.368 122.618 139.355 111.881 148.884 106.781C155.624 103.174 162.154 102.423 166.721 106.644C177.121 116.256 167.466 133.108 153.223 132.774L125.498 132.774C125.082 132.774 124.698 132.552 124.49 132.192C124.283 131.831 124.283 131.388 124.492 131.028ZM127.571 130.448L153.236 130.448L153.264 130.448C165.417 130.744 174.014 116.552 165.142 108.353C161.258 104.763 155.713 105.765 149.982 108.832C141.453 113.397 132.554 122.661 127.571 130.448Z" fill="#4E2F0E"/>
<path fill-rule="evenodd" clip-rule="evenodd" d="M104.24 131.611C96.2641 117.853 74.3697 97.7361 63.8065 107.498C54.1691 116.406 63.3002 131.932 76.5018 131.611L104.24 131.611Z" fill="#DF9848"/>
<path fill-rule="evenodd" clip-rule="evenodd" d="M104.24 132.774L76.5274 132.774C62.2778 133.118 52.6139 116.259 63.0169 106.644C67.5845 102.423 74.1143 103.174 80.8543 106.781C90.3832 111.881 100.371 122.618 105.246 131.028C105.455 131.388 105.455 131.831 105.248 132.192C105.04 132.552 104.656 132.774 104.24 132.774ZM102.167 130.448C97.1838 122.661 88.2851 113.397 79.7565 108.832C74.025 105.765 68.48 104.763 64.5959 108.353C55.7242 116.552 64.3209 130.744 76.4737 130.448L76.5021 130.448L102.167 130.448Z" fill="#4E2F0E"/>
<path fill-rule="evenodd" clip-rule="evenodd" d="M102.292 68.607C102.292 68.607 52.1938 74.3781 61.4025 95.4765C70.6108 116.575 102.987 80.2132 102.292 68.607Z" fill="#DF9848"/>
<path fill-rule="evenodd" clip-rule="evenodd" d="M102.154 67.4522C102.156 67.4519 102.158 67.4516 102.159 67.4516C102.18 67.4492 102.201 67.4472 102.222 67.4459C102.838 67.409 103.377 67.861 103.447 68.4739C103.45 68.4951 103.452 68.5164 103.453 68.5376C103.453 68.5384 103.453 68.539 103.453 68.5398C103.586 70.7806 102.622 73.8963 100.81 77.3425C96.7856 84.9967 88.6255 94.4401 80.5902 99.4621C75.7548 102.484 70.936 103.879 67.0197 102.637C64.3161 101.779 61.9758 99.6992 60.336 95.942C56.3792 86.8759 62.3883 80.3181 71.2972 75.8638C83.776 69.6245 101.813 67.492 102.154 67.4522ZM101.079 69.9384C96.7062 70.547 82.594 72.8166 72.3376 77.9445C64.6595 81.7833 59.058 87.1978 62.4685 95.0115C63.7754 98.0062 65.5679 99.7357 67.723 100.419C71.0942 101.489 75.1947 100.091 79.3572 97.4894C85.97 93.3565 92.6616 86.0961 96.8739 79.4802C99.1702 75.8732 100.753 72.4852 101.079 69.9384Z" fill="#4E2F0E"/>
<path fill-rule="evenodd" clip-rule="evenodd" d="M127.96 131.502C127.96 131.502 161.59 122.314 131.11 71.7726C106.202 30.4724 93.6812 66.5696 93.6812 66.5696C93.6812 66.5696 71.4259 128.819 97.9897 131.592C112.695 133.127 127.96 131.502 127.96 131.502Z" fill="#DF9848"/>
<path fill-rule="evenodd" clip-rule="evenodd" d="M128.083 132.659C128.083 132.659 112.693 134.297 97.869 132.749C89.3244 131.857 85.3716 125.325 84.1913 116.478C81.612 97.1425 92.4439 66.5765 92.5843 66.1817C92.6544 65.9821 94.3386 61.2359 97.6337 57.1047C99.967 54.1793 103.102 51.5891 106.986 50.9515C110.229 50.4191 114.029 51.2173 118.348 54.4398C122.422 57.4785 127.019 62.7376 132.106 71.1716C147.692 97.0168 146.693 112.327 141.991 121.138C137.144 130.22 128.266 132.624 128.266 132.624C128.206 132.641 128.145 132.652 128.083 132.659ZM127.735 130.356L127.736 130.356C128.776 130.04 139.243 126.579 142.034 114.372C144.062 105.505 142.069 92.1969 130.113 72.3732C125.237 64.2873 120.863 59.2181 116.957 56.3043C113.298 53.5743 110.111 52.7963 107.363 53.2471C104.058 53.7898 101.438 56.0659 99.4522 58.5553C96.3403 62.457 94.78 66.9506 94.78 66.9506L94.7764 66.9609C94.7764 66.9609 83.9568 97.1268 86.4973 116.171C87.5187 123.826 90.7164 129.663 98.1105 130.435C111.999 131.885 126.392 130.492 127.735 130.356Z" fill="#4E2F0E"/>
<path d="M134.765 112.793C134.54 105.102 125.449 99.1282 114.461 99.4504C103.472 99.7727 94.7473 106.269 94.9729 113.96C95.1985 121.651 104.289 127.625 115.278 127.303C126.266 126.981 134.991 120.484 134.765 112.793Z" fill="#BA6E32"/>
<path d="M158.652 127.385C161.701 128.506 165.461 125.912 167.051 121.59C168.64 117.269 167.457 112.856 164.408 111.735C161.359 110.613 157.599 113.207 156.009 117.529C154.42 121.851 155.603 126.263 158.652 127.385Z" fill="#BA6E32"/>
<path d="M71.2542 127.656C74.2968 126.517 75.4548 122.098 73.8407 117.785C72.2266 113.473 68.4517 110.9 65.4091 112.038C62.3665 113.177 61.2085 117.596 62.8226 121.909C64.4367 126.222 68.2117 128.794 71.2542 127.656Z" fill="#BA6E32"/>
<path d="M68.4979 98.8132C70.652 98.007 71.4718 94.8783 70.3291 91.8251C69.1863 88.7719 66.5138 86.9503 64.3597 87.7565C62.2056 88.5627 61.3858 91.6914 62.5285 94.7446C63.6713 97.7978 66.3438 99.6194 68.4979 98.8132Z" fill="#BA6E32"/>
<path d="M157.18 97.6765C159.345 98.4524 161.992 96.5936 163.092 93.5246C164.191 90.4557 163.328 87.3388 161.163 86.5629C158.997 85.787 156.351 87.6458 155.251 90.7148C154.151 93.7837 155.015 96.9006 157.18 97.6765Z" fill="#BA6E32"/>
<path d="M86.8013 36.0118C91.7598 29.6441 90.9919 20.7541 85.0862 16.1553C79.1805 11.5566 70.3733 12.9906 65.4148 19.3582C60.4564 25.7259 61.2243 34.616 67.13 39.2147C73.0357 43.8135 81.8429 42.3795 86.8013 36.0118Z" fill="#DF9848"/>
<path fill-rule="evenodd" clip-rule="evenodd" d="M64.497 18.6435C69.861 11.755 79.4124 10.2628 85.8009 15.2375C92.1897 20.2124 93.0832 29.838 87.7192 36.7266C82.3553 43.6148 72.804 45.1075 66.4152 40.1326C60.0267 35.1579 59.1331 25.5318 64.497 18.6435ZM66.3327 20.073C61.7862 25.9116 62.4297 34.0803 67.8447 38.2969C73.2599 42.5137 81.3372 41.1359 85.8837 35.2973C90.4302 29.4587 89.7869 21.2897 84.3717 17.0729C78.9567 12.8563 70.8792 14.2344 66.3327 20.073Z" fill="#4E2F0E"/>
<path d="M82.6201 33.0214C84.9042 30.0882 84.5504 25.9931 81.8301 23.8748C79.1097 21.7564 75.0528 22.417 72.7687 25.3502C70.4847 28.2833 70.8384 32.3784 73.5588 34.4967C76.2792 36.6151 80.3361 35.9545 82.6201 33.0214Z" fill="#BE6E31"/>
<path fill-rule="evenodd" clip-rule="evenodd" d="M71.851 24.6357C74.5423 21.1796 79.3394 20.4611 82.5448 22.9571C85.7503 25.4532 86.2292 30.2802 83.5379 33.7363C80.8466 37.1925 76.0496 37.9108 72.8441 35.4147C69.6387 32.9187 69.1597 28.0919 71.851 24.6357ZM73.6866 26.0651C71.8127 28.4715 72.0416 31.8413 74.2734 33.5792C76.5053 35.3171 79.8285 34.7133 81.7024 32.307C83.5763 29.9005 83.3473 26.5306 81.1155 24.7927C78.8836 23.0547 75.5605 23.6586 73.6866 26.0651Z" fill="#4E2F0E"/>
<path d="M128.135 30.2406C122.955 24.0511 123.41 15.1396 129.151 10.3361C134.891 5.5327 143.744 6.65635 148.923 12.8459C154.102 19.0354 153.647 27.9469 147.906 32.7504C142.166 37.5538 133.314 36.4302 128.135 30.2406Z" fill="#DF9848"/>
<path fill-rule="evenodd" clip-rule="evenodd" d="M149.815 12.0992C155.417 18.7948 154.863 28.4463 148.653 33.6424C142.443 38.8387 132.845 37.6826 127.242 30.9871C121.64 24.2913 122.194 14.6402 128.404 9.44385C134.614 4.24774 144.212 5.40343 149.815 12.0992ZM148.03 13.5923C143.282 7.91707 135.161 6.82367 129.897 11.228C124.634 15.6324 124.278 23.8189 129.026 29.4942C133.775 35.1694 141.896 36.2626 147.16 31.8581C152.423 27.4538 152.779 19.2675 148.03 13.5923Z" fill="#4E2F0E"/>
<path d="M132.208 27.1051C129.823 24.254 130.032 20.1491 132.676 17.9364C135.321 15.7238 139.398 16.2414 141.784 19.0925C144.17 21.9436 143.96 26.0486 141.316 28.2612C138.672 30.4738 134.594 29.9562 132.208 27.1051Z" fill="#BE6E31"/>
<path fill-rule="evenodd" clip-rule="evenodd" d="M142.676 18.3462C145.487 21.7056 145.178 26.5463 142.062 29.1534C138.947 31.7605 134.127 31.2112 131.316 27.8517C128.505 24.4923 128.814 19.6515 131.93 17.0443C135.046 14.4373 139.865 14.9867 142.676 18.3462ZM140.892 19.8391C138.935 17.5 135.592 17.0132 133.423 18.8285C131.253 20.6438 131.143 24.0196 133.1 26.3588C135.058 28.6978 138.4 29.1845 140.569 27.3692C142.739 25.5539 142.849 22.1782 140.892 19.8391Z" fill="#4E2F0E"/>
<path d="M109.877 82.392C129.914 82.392 146.158 67.4329 146.158 48.9798C146.158 30.5268 129.914 15.5676 109.877 15.5676C89.8392 15.5676 73.5957 30.5268 73.5957 48.9798C73.5957 67.4329 89.8392 82.392 109.877 82.392Z" fill="#DF9848"/>
<path fill-rule="evenodd" clip-rule="evenodd" d="M109.877 14.4043C130.568 14.4043 147.321 29.9244 147.321 48.9798C147.321 68.0351 130.568 83.5552 109.877 83.5552C89.1854 83.5552 72.4323 68.0351 72.4323 48.9798C72.4323 29.9244 89.1854 14.4043 109.877 14.4043ZM109.877 16.7306C90.52 16.7306 74.7588 31.1535 74.7588 48.9798C74.7588 66.806 90.52 81.2289 109.877 81.2289C129.233 81.2289 144.994 66.806 144.994 48.9798C144.994 31.1535 129.233 16.7306 109.877 16.7306Z" fill="#4E2F0E"/>
<path d="M102.979 54.7758C104.628 54.213 105.393 52.08 104.687 50.0117C103.982 47.9434 102.072 46.723 100.423 47.2858C98.7738 47.8487 98.009 49.9816 98.7148 52.0499C99.4206 54.1182 101.33 55.3386 102.979 54.7758Z" fill="#4E2F0E"/>
<path d="M125.226 52.502C126.968 52.5503 128.429 50.8185 128.49 48.6339C128.55 46.4493 127.187 44.6392 125.445 44.5909C123.703 44.5426 122.242 46.2744 122.181 48.459C122.121 50.6435 123.484 52.4536 125.226 52.502Z" fill="#4E2F0E"/>
<path d="M98.0831 66.2877C98.8391 74.0236 107.102 79.5472 116.539 78.625C125.976 77.7027 133.013 70.6838 132.257 62.9479C131.501 55.2119 123.238 49.6883 113.801 50.6106C104.364 51.5328 97.327 58.5517 98.0831 66.2877Z" fill="#F8D095"/>
<path fill-rule="evenodd" clip-rule="evenodd" d="M95.3366 45.1282C95.3366 45.1282 96.3341 43.112 100.669 42.1606C101.612 41.9538 102.643 41.3977 101.773 40.7207C101.06 40.1657 100.395 39.7768 99.0549 39.9278C97.7149 40.0788 94.9223 40.7483 94.1002 44.0967C94.1002 44.0967 93.3358 48.2148 95.3366 45.1282Z" fill="#4E2F0E"/>
<path fill-rule="evenodd" clip-rule="evenodd" d="M129.581 41.3366C129.581 41.3366 128.187 39.5705 123.749 39.5368C122.784 39.5295 121.661 39.1988 122.372 38.3564C122.955 37.6658 123.524 37.1478 124.867 37.0182C126.209 36.8887 129.08 36.9658 130.577 40.0716C130.577 40.0716 132.177 43.9423 129.581 41.3366Z" fill="#4E2F0E"/>
<path fill-rule="evenodd" clip-rule="evenodd" d="M117.218 69.1562C118.781 68.6818 121.681 67.3237 123.71 63.5364C124.013 62.9703 124.718 62.7569 125.284 63.0599C125.85 63.363 126.064 64.0687 125.76 64.6345C122.362 70.9799 116.883 71.6639 116.348 71.7162C115.815 71.7895 110.326 72.3964 105.548 67.0132C105.122 66.5332 105.166 65.7972 105.646 65.3711C106.126 64.9449 106.862 64.9887 107.288 65.469C110.14 68.6819 113.276 69.3296 114.907 69.4281L114.323 64.4613C110.82 64.3782 107.874 62.0513 107.5 58.8753L107.498 58.8565C107.248 56.7305 110.287 54.623 114.281 54.153C118.275 53.6829 121.72 55.0273 121.97 57.1533L121.973 57.1721C122.346 60.3481 120.021 63.2953 116.633 64.1893L117.218 69.1562Z" fill="#4E2F0E"/>
<path fill-rule="evenodd" clip-rule="evenodd" d="M59.3174 117.837L60.0727 120.24C61.2736 124.06 59.1472 128.136 55.3276 129.336L53.0684 130.047C49.2488 131.248 45.1728 129.121 43.9719 125.302L43.2166 122.899C42.0158 119.08 44.1418 115.003 47.9614 113.803L50.2206 113.092C54.0402 111.891 58.1165 114.018 59.3174 117.837Z" fill="#CF471C"/>
<path fill-rule="evenodd" clip-rule="evenodd" d="M60.427 117.488L61.1824 119.891C62.5758 124.323 60.1087 129.053 55.6765 130.446L53.4173 131.156C48.9851 132.55 44.2556 130.083 42.8622 125.65L42.1069 123.248C40.7135 118.816 43.1803 114.086 47.6125 112.693L49.8717 111.982C54.3039 110.589 59.0336 113.056 60.427 117.488ZM58.2077 118.186C57.1993 114.979 53.7768 113.194 50.5695 114.202L48.3103 114.912C45.103 115.92 43.3179 119.343 44.3263 122.55L45.0816 124.953C46.0899 128.16 49.5122 129.945 52.7195 128.937L54.9787 128.227C58.186 127.218 59.9713 123.796 58.963 120.589L58.2077 118.186Z" fill="#4E2F0E"/>
<path d="M55.3839 133.462C56.7353 133.038 57.4865 131.598 57.0616 130.246C56.6367 128.895 55.1968 128.144 53.8453 128.569C52.4939 128.993 51.7428 130.433 52.1677 131.785C52.5925 133.136 54.0325 133.887 55.3839 133.462Z" fill="#4E2F0E"/>
<path d="M42.3382 92.195C43.3658 91.872 42.8795 87.4137 41.252 82.2372C39.6246 77.0607 37.4723 73.1262 36.4448 73.4493C35.4172 73.7723 35.9036 78.2306 37.531 83.4071C39.1585 88.5836 41.3107 92.5181 42.3382 92.195Z" fill="#CF471C"/>
<path fill-rule="evenodd" clip-rule="evenodd" d="M36.0958 72.3396L36.6814 72.2717L37.0691 72.345L37.3927 72.478C37.729 72.6511 38.1297 72.9872 38.54 73.505C39.6804 74.9439 41.1684 78.0935 42.3615 81.8885C43.5545 85.6833 44.1365 89.1177 44.0246 90.9503C43.9843 91.6097 43.8481 92.1147 43.6714 92.4491L43.4821 92.7433L43.2061 93.0253L42.687 93.3047L42.1011 93.3727L41.7134 93.2994L41.3899 93.1664C41.0536 92.9932 40.653 92.6571 40.2426 92.1393C39.1022 90.7004 37.6143 87.5509 36.4212 83.7561C35.2281 79.961 34.6461 76.5266 34.758 74.694C34.7983 74.0346 34.9345 73.5297 35.1112 73.1953L35.3004 72.9011L35.5765 72.6191L36.0958 72.3396ZM37.0745 75.4526C37.0748 75.488 37.0758 75.5228 37.0773 75.5574C37.1488 77.3376 37.7021 80.0737 38.6405 83.0584C39.5787 86.0428 40.6906 88.6032 41.6506 90.1041C41.6692 90.1334 41.6883 90.1625 41.7083 90.1916C41.7078 90.1564 41.7068 90.1216 41.7052 90.0869C41.6337 88.3067 41.0805 85.5706 40.1422 82.5862C39.2039 79.6016 38.0919 77.0411 37.1319 75.5402C37.1134 75.511 37.0942 75.4819 37.0745 75.4526Z" fill="#4E2F0E"/>
<path d="M37.3899 76.4562C39.6543 75.7443 40.9128 73.3316 40.201 71.0672C39.4891 68.8028 37.0763 67.5443 34.8119 68.2562C32.5476 68.9681 31.289 71.3808 32.0009 73.6452C32.7128 75.9096 35.1256 77.1681 37.3899 76.4562Z" fill="#CF471C"/>
<path fill-rule="evenodd" clip-rule="evenodd" d="M34.4631 67.1465C37.3383 66.2426 40.4065 67.843 41.3105 70.7182C42.2144 73.5934 40.614 76.6616 37.7388 77.5655C34.8636 78.4695 31.7951 76.8691 30.8912 73.9939C29.9873 71.1187 31.5879 68.0505 34.4631 67.1465ZM35.1609 69.3658C33.5105 69.8846 32.5918 71.6458 33.1107 73.2961C33.6296 74.9465 35.3907 75.8651 37.041 75.3463C38.6914 74.8274 39.6101 73.0663 39.0912 71.4159C38.5723 69.7655 36.8112 68.8469 35.1609 69.3658Z" fill="#4E2F0E"/>
<path fill-rule="evenodd" clip-rule="evenodd" d="M17.9446 118.883C17.8274 118.565 17.7533 118.202 17.7182 117.797C17.4743 116.034 17.801 114.177 18.6221 112.3C22.5204 99.6019 40.823 87.3762 40.823 87.3762C40.823 87.3762 62.8286 86.9295 73.2919 95.1125C75.0395 96.1819 76.3698 97.5176 77.1788 99.1031C77.3817 99.4553 77.5286 99.7958 77.6145 100.123C77.6411 100.2 77.6671 100.278 77.6916 100.356C80.2994 108.651 69.0465 119.589 52.578 124.766C36.1098 129.944 20.6226 127.413 18.0148 119.118C17.9902 119.04 17.9666 118.961 17.9446 118.883Z" fill="#4085A6"/>
<path fill-rule="evenodd" clip-rule="evenodd" d="M16.838 119.244L16.8366 119.239C16.6991 118.852 16.6062 118.413 16.5624 117.93C16.3002 115.994 16.6394 113.954 17.5292 111.897C19.1506 106.676 23.0995 101.521 27.2886 97.2286C33.4911 90.8732 40.1769 86.4086 40.1769 86.4086C40.3615 86.2855 40.5775 86.2176 40.7994 86.2129C40.7994 86.2129 48.8373 86.0485 57.5605 87.7115C63.4519 88.8344 69.6399 90.8026 73.9546 94.1542C75.8631 95.3333 77.3084 96.8113 78.1985 98.5432C78.4429 98.9706 78.6188 99.3858 78.7265 99.7804C78.7524 99.8556 78.7775 99.9315 78.8013 100.007C79.946 103.648 78.7524 107.779 75.6369 111.758C71.2658 117.341 63.0691 122.687 52.9269 125.876C42.7848 129.064 33.0032 129.37 26.224 127.293C21.3925 125.813 18.0497 123.108 16.905 119.467C16.8817 119.393 16.8594 119.318 16.838 119.244ZM19.0643 118.568C19.0832 118.635 19.1035 118.702 19.1245 118.769C20.0662 121.764 22.9306 123.851 26.9055 125.069C33.3355 127.039 42.6093 126.681 52.2291 123.657C61.8489 120.632 69.6593 115.619 73.8054 110.324C76.3682 107.05 77.5235 103.701 76.5818 100.705C76.5608 100.638 76.5387 100.572 76.5158 100.506C76.5055 100.476 76.4967 100.447 76.4891 100.417C76.4272 100.182 76.3172 99.9378 76.1709 99.6837C76.1611 99.6667 76.1515 99.6492 76.1425 99.6317C75.4252 98.226 74.2343 97.0526 72.6849 96.1044C72.6469 96.0814 72.6104 96.0559 72.5753 96.0288C68.5235 92.86 62.6737 91.0544 57.1251 89.9968C49.6947 88.5804 42.7768 88.527 41.1875 88.5355C39.8793 89.4383 34.2363 93.4403 28.9534 98.8536C25.0082 102.896 21.2436 107.724 19.7341 112.641C19.721 112.684 19.7058 112.726 19.6878 112.766C18.9597 114.43 18.6544 116.074 18.8705 117.637C18.8731 117.657 18.8752 117.677 18.877 117.696C18.9021 117.988 18.9517 118.251 19.036 118.48C19.0465 118.509 19.0559 118.538 19.0643 118.568Z" fill="#4E2F0E"/>
<path fill-rule="evenodd" clip-rule="evenodd" d="M66.072 91.2305C68.7531 92.2392 71.2437 93.5105 73.2919 95.1123C75.0395 96.1817 76.3698 97.5174 77.1787 99.1029C77.3817 99.4551 77.5285 99.7957 77.6145 100.123C77.6411 100.2 77.6671 100.278 77.6916 100.356C80.2994 108.651 69.0465 119.589 52.578 124.766C36.1098 129.944 20.6225 127.413 18.0147 119.118C17.9902 119.04 17.9666 118.961 17.9445 118.883C17.8274 118.565 17.7533 118.202 17.7181 117.797C17.4743 116.033 17.801 114.177 18.622 112.3C19.4612 109.567 20.9677 106.855 22.8157 104.283C30.3804 103.772 38.3066 102.304 46.2824 99.7967C53.4414 97.546 60.0881 94.6314 66.072 91.2305Z" fill="#8FA13E"/>
<path fill-rule="evenodd" clip-rule="evenodd" d="M66.4815 90.142C69.2552 91.1856 71.8303 92.504 73.9546 94.1544C75.8632 95.3335 77.3085 96.8115 78.1986 98.5434C78.443 98.9707 78.6189 99.3859 78.7265 99.7805C78.7525 99.8558 78.7775 99.9316 78.8014 100.008C79.9461 103.649 78.7524 107.78 75.637 111.758C71.2659 117.341 63.0692 122.687 52.9269 125.876C42.7849 129.065 33.0033 129.37 26.2241 127.293C21.3925 125.813 18.0497 123.108 16.905 119.467C16.8812 119.391 16.8585 119.315 16.8382 119.243C16.6995 118.855 16.6063 118.415 16.5625 117.931C16.3002 115.994 16.6396 113.954 17.5297 111.896C18.4073 109.07 19.9605 106.264 21.8711 103.604C22.0733 103.322 22.3911 103.145 22.7373 103.122C30.2149 102.618 38.0497 101.166 45.9336 98.6872C53.0108 96.4622 59.5816 93.5815 65.4972 90.2195C65.7976 90.0488 66.1582 90.0203 66.4815 90.142ZM66.1665 92.5132C60.2395 95.837 53.6811 98.6901 46.6313 100.906C38.7576 103.382 30.9316 104.855 23.4466 105.404C21.8186 107.737 20.4905 110.178 19.7341 112.642C19.7211 112.684 19.7058 112.726 19.6879 112.766C18.9597 114.43 18.6544 116.074 18.8705 117.638C18.8732 117.657 18.8753 117.677 18.8771 117.696C18.9022 117.989 18.9518 118.251 19.036 118.48C19.0466 118.509 19.056 118.538 19.0644 118.568C19.0833 118.635 19.1035 118.703 19.1245 118.769C20.0662 121.765 22.9307 123.851 26.9055 125.069C33.3356 127.039 42.6094 126.681 52.2292 123.657C61.849 120.632 69.6594 115.619 73.8054 110.324C76.3682 107.051 77.5236 103.701 76.5819 100.705C76.5609 100.639 76.5388 100.572 76.5159 100.506C76.5056 100.477 76.4968 100.447 76.4891 100.418C76.4273 100.182 76.3172 99.9379 76.1709 99.6839C76.1612 99.6668 76.1516 99.6494 76.1426 99.6318C75.4253 98.2261 74.2344 97.0528 72.6849 96.1046C72.647 96.0816 72.6105 96.0561 72.5753 96.029C70.744 94.5966 68.5406 93.4456 66.1665 92.5132Z" fill="#4E2F0E"/>
<path fill-rule="evenodd" clip-rule="evenodd" d="M74.9203 96.2906C75.8809 97.1156 76.6437 98.0548 77.1787 99.103C77.3816 99.4553 77.5285 99.7958 77.6145 100.123C77.6411 100.2 77.667 100.278 77.6916 100.356C80.2994 108.651 69.0465 119.589 52.578 124.766C36.1098 129.944 20.6225 127.413 18.0147 119.118C17.9902 119.04 17.9666 118.961 17.9445 118.883C17.8274 118.565 17.7532 118.202 17.7181 117.797C17.5181 116.35 17.7022 114.839 18.2286 113.307C27.9286 113.457 38.4492 111.961 49.0581 108.626C58.7399 105.582 67.4848 101.324 74.9203 96.2906Z" fill="#F9AA2F"/>
<path fill-rule="evenodd" clip-rule="evenodd" d="M75.6782 95.4081C76.7507 96.3294 77.6007 97.3797 78.2009 98.547C78.444 98.973 78.6192 99.3869 78.7265 99.7804C78.7525 99.8557 78.7775 99.9315 78.8014 100.007C79.9461 103.649 78.7524 107.779 75.637 111.758C71.2659 117.341 63.0692 122.687 52.9269 125.876C42.7849 129.064 33.0033 129.37 26.2241 127.293C21.3925 125.813 18.0497 123.108 16.905 119.467C16.8812 119.391 16.8585 119.315 16.8382 119.243C16.6995 118.855 16.6062 118.415 16.5626 117.933C16.3438 116.32 16.5419 114.636 17.1286 112.929C17.292 112.453 17.7434 112.136 18.2466 112.144C27.8312 112.292 38.2266 110.812 48.7092 107.516C58.2773 104.508 66.9203 100.301 74.2683 95.3271C74.7026 95.0331 75.2801 95.0661 75.6782 95.4081ZM74.7986 97.7715C67.4455 102.639 58.8688 106.76 49.407 109.735C38.9914 113.01 28.6597 114.53 19.0894 114.479C18.8114 115.555 18.7289 116.614 18.8705 117.637C18.8731 117.657 18.8753 117.677 18.877 117.696C18.9021 117.988 18.9517 118.251 19.036 118.48C19.0465 118.509 19.0559 118.538 19.0644 118.568C19.0832 118.635 19.1035 118.702 19.1245 118.769C20.0662 121.765 22.9307 123.851 26.9055 125.069C33.3356 127.039 42.6094 126.681 52.2292 123.657C61.8489 120.632 69.6593 115.619 73.8054 110.324C76.3682 107.051 77.5235 103.701 76.5818 100.705C76.5609 100.638 76.5387 100.572 76.5159 100.506C76.5056 100.477 76.4967 100.447 76.4891 100.418C76.4272 100.182 76.3172 99.9378 76.1709 99.6838C76.1611 99.6667 76.1516 99.6493 76.1425 99.6318C75.7993 98.9588 75.3469 98.3392 74.7986 97.7715Z" fill="#4E2F0E"/>
<path fill-rule="evenodd" clip-rule="evenodd" d="M77.3967 105.834C75.2247 113.002 65.9311 120.568 52.8544 124.679C39.1205 128.997 26.069 127.954 20.601 122.677C30.46 122.897 41.1876 121.408 52.0074 118.007C61.6986 114.96 69.9564 110.874 77.3967 105.834Z" fill="#98569A"/>
<path fill-rule="evenodd" clip-rule="evenodd" d="M78.5096 106.171C76.2625 113.589 66.735 121.535 53.2033 125.789C44.7668 128.441 36.5803 129.103 30.1728 128.053C25.7292 127.325 22.1228 125.762 19.7931 123.514C19.4486 123.182 19.3429 122.672 19.5271 122.23C19.7115 121.788 20.1481 121.504 20.6267 121.514C30.3683 121.731 40.9679 120.258 51.6585 116.897C61.2336 113.887 69.3932 109.85 76.7442 104.871C77.1521 104.595 77.6895 104.605 78.0863 104.898C78.4831 105.19 78.6526 105.7 78.5096 106.171ZM74.6476 108.999C68.0132 113.099 60.711 116.49 52.3563 119.116C42.7557 122.135 33.2262 123.663 24.2982 123.843C26.052 124.729 28.1689 125.367 30.5491 125.757C36.6585 126.758 44.4616 126.098 52.5055 123.57C63.0015 120.27 71.0339 114.745 74.6476 108.999Z" fill="#4E2F0E"/>
<path fill-rule="evenodd" clip-rule="evenodd" d="M39.8459 84.0407C44.045 82.7206 46.6517 83.0327 47.6071 86.0715C48.5624 89.1104 46.6032 90.8579 42.4042 92.1781C38.2049 93.4983 35.5985 93.1861 34.6431 90.1473C33.6877 87.1084 35.6466 85.361 39.8459 84.0407Z" fill="#D4442A"/>
<path fill-rule="evenodd" clip-rule="evenodd" d="M39.4971 82.9311C42.9204 81.8549 45.4325 81.8994 47.0146 83.1231C47.7651 83.7037 48.3474 84.548 48.7167 85.7226C49.086 86.8973 49.0917 87.9233 48.8083 88.8285C48.2112 90.7378 46.1765 92.2118 42.7532 93.288C39.3298 94.3643 36.8177 94.3197 35.2352 93.0957C34.4851 92.5154 33.9026 91.6707 33.5333 90.4961C33.164 89.3215 33.1585 88.2958 33.4415 87.3903C34.0391 85.4813 36.0738 84.0074 39.4971 82.9311ZM40.1947 85.1503C36.8294 86.2083 34.9871 87.3632 35.7527 89.7984C36.5184 92.2339 38.69 92.1265 42.0553 91.0684C45.4207 90.0104 47.263 88.8559 46.4973 86.4204C45.7317 83.9852 43.5601 84.0923 40.1947 85.1503Z" fill="#4E2F0E"/>
<path d="M175.131 93.7985L169.661 92.3299L165.844 91.3052C163.394 90.6483 160.855 90.5786 159.963 92.9514L158.506 97.3347L157.672 99.556L167.04 101.684L177.973 104.171L178.141 102.361L178.751 96.2683C179.471 93.633 177.768 94.5059 175.131 93.7985Z" fill="#D4442A"/>
<path fill-rule="evenodd" clip-rule="evenodd" d="M175.433 92.6749C176.766 93.0324 177.862 92.9944 178.535 93.1962C178.846 93.2897 179.106 93.4209 179.318 93.5857L179.568 93.8179L179.78 94.1028C180.058 94.56 180.208 95.284 179.9 96.4765L179.3 102.472L179.131 104.279C179.1 104.613 178.927 104.917 178.656 105.113C178.384 105.31 178.042 105.38 177.715 105.306L166.782 102.818L157.415 100.69C157.087 100.616 156.808 100.403 156.648 100.107C156.489 99.8116 156.465 99.4613 156.583 99.1467L157.41 96.9464L158.86 92.5844C158.865 92.5702 158.87 92.5561 158.875 92.5421C159.991 89.5719 163.079 89.3593 166.146 90.1816L169.963 91.2063L175.433 92.6749ZM177.732 95.4058C177.559 95.3725 177.297 95.3257 177.083 95.3018C176.452 95.2312 175.687 95.1517 174.831 94.9219L169.36 93.4532L165.544 92.4286C164.685 92.1985 163.816 92.0408 163.03 92.0792C162.163 92.1216 161.41 92.4325 161.06 93.3416L159.611 97.7014C159.606 97.7156 159.601 97.7297 159.596 97.7437L159.23 98.7169L167.298 100.55L176.938 102.743L176.984 102.253L176.984 102.245L177.594 96.1523C177.601 96.0879 177.613 96.0242 177.63 95.9617C177.682 95.7714 177.714 95.5558 177.732 95.4058Z" fill="#4E2F0E"/>
<path d="M191.578 109.815C192.071 109.929 192.637 109.729 192.872 109.143C198.46 95.2715 191.795 77.2732 191.795 77.2732L182.526 95.2048C182.526 95.2048 184.525 96.3053 186.472 98.1829C187.662 99.335 188.836 100.778 189.519 102.438C190.191 104.073 190.673 107.106 190.719 108.764C190.737 109.342 191.125 109.711 191.578 109.815Z" fill="#98569A"/>
<path fill-rule="evenodd" clip-rule="evenodd" d="M191.316 110.948C190.389 110.734 189.592 109.981 189.557 108.799L189.557 108.797C189.513 107.246 189.072 104.41 188.443 102.88C187.822 101.371 186.746 100.067 185.663 99.0195C183.837 97.2586 181.965 96.2237 181.965 96.2237C181.413 95.9195 181.204 95.2307 181.493 94.6706L190.762 76.7391C190.973 76.3299 191.406 76.084 191.866 76.1122C192.326 76.1404 192.726 76.4373 192.886 76.8693C192.886 76.8693 199.686 95.3402 193.952 109.576C193.473 110.769 192.321 111.181 191.316 110.948ZM191.874 108.506C195.921 98.2052 193.099 85.6437 191.544 80.2929L184.055 94.781C184.867 95.3147 186.082 96.1915 187.279 97.3456L187.28 97.3469C188.579 98.6036 189.849 100.184 190.595 101.995L190.595 101.996C191.282 103.667 191.79 106.706 191.874 108.506Z" fill="#4E2F0E"/>
<path d="M142.93 95.8514C142.451 95.6871 142.077 95.2165 142.189 94.5957C144.809 79.8718 160.005 68.1487 160.005 68.1487L158.352 88.2662C158.352 88.2662 156.074 88.1393 153.428 88.6985C151.807 89.0436 150.048 89.6442 148.588 90.6894C147.151 91.7194 145.134 94.0345 144.215 95.4161C143.894 95.8964 143.369 96.0032 142.93 95.8514Z" fill="#98569A"/>
<path fill-rule="evenodd" clip-rule="evenodd" d="M142.551 96.9512C141.576 96.6158 140.817 95.6553 141.044 94.3901C143.733 79.2802 159.295 67.2277 159.295 67.2277C159.659 66.9463 160.156 66.9067 160.561 67.1267C160.965 67.3467 161.202 67.7848 161.164 68.2439L159.512 88.3614C159.46 88.9898 158.917 89.4626 158.288 89.4276C158.288 89.4276 156.152 89.3121 153.669 89.8363C152.196 90.1502 150.592 90.685 149.265 91.635C147.921 92.5982 146.043 94.7687 145.183 96.0604L145.182 96.0622C144.525 97.0455 143.45 97.2614 142.551 96.9512ZM143.373 94.585C144.402 93.1001 146.443 90.7957 147.91 89.7439L147.911 89.7436C149.503 88.6035 151.418 87.9373 153.186 87.5608L153.188 87.5604C154.814 87.2167 156.31 87.1182 157.281 87.0962L158.617 70.8418C154.46 74.5531 145.406 83.7056 143.373 94.585Z" fill="#4E2F0E"/>
<path d="M162.313 92.7826L170.015 94.5755L177.233 96.257C177.872 96.4061 178.517 96.4412 179.146 96.3685C179.325 96.3489 179.505 96.3194 179.683 96.2825C181.036 95.9964 182.268 95.2175 183.107 94.0476C188.374 86.6992 200.653 66.8943 198.781 44.2163L198.782 44.2114C198.185 37.0002 196.157 29.4993 192.016 22.0155C190.25 18.8239 186.023 18.033 183.202 20.3424C179.379 23.4739 174.059 28.4667 169.166 35.2594C160.438 47.3784 153.08 65.2252 158.064 88.4609C158.341 89.7502 159.051 90.8752 160.041 91.6716C160.693 92.2004 161.464 92.5858 162.313 92.7826Z" fill="#4085A6"/>
<path fill-rule="evenodd" clip-rule="evenodd" d="M199.945 44.1747C201.822 67.1783 189.396 87.27 184.052 94.7254L184.052 94.7258C183.04 96.1364 181.555 97.0758 179.924 97.4206L179.92 97.4215C179.707 97.4658 179.49 97.5009 179.276 97.5245C178.518 97.6118 177.74 97.5698 176.969 97.39L169.751 95.7085L162.049 93.9156C161.027 93.6783 160.097 93.2143 159.311 92.5773C158.117 91.6169 157.261 90.2606 156.927 88.706L156.926 88.705C151.856 65.0658 159.342 46.9091 168.222 34.5796C173.188 27.6868 178.586 22.6202 182.465 19.4426C185.847 16.6732 190.916 17.6252 193.034 21.4525C197.262 29.0936 199.331 36.7526 199.941 44.1155C199.943 44.1353 199.944 44.155 199.945 44.1747ZM199.905 44.5165C199.857 44.6966 199.765 44.8644 199.637 45.0043C199.589 45.0561 199.537 45.1031 199.482 45.1449C199.45 45.1674 199.418 45.1877 199.385 45.206C199.478 45.1499 199.563 45.0806 199.638 44.9994C199.778 44.8474 199.873 44.6627 199.917 44.465L198.781 45.3796C198.781 45.3796 198.78 45.3779 198.778 45.3748C198.253 45.373 197.806 45.0227 197.665 44.536C197.877 45.168 198.707 45.3588 198.777 45.3738C198.709 45.2653 197.71 43.6726 197.647 43.9583C197.626 44.0521 197.616 44.14 197.616 44.2224C197.022 37.189 195.036 29.8757 190.999 22.5789C189.584 20.0229 186.198 19.393 183.94 21.2425C180.173 24.3278 174.931 29.2468 170.11 35.9394C161.533 47.8478 154.304 65.3846 159.201 88.2164C159.421 89.2398 159.984 90.1332 160.77 90.7654L160.773 90.7682C161.291 91.1877 161.903 91.4935 162.576 91.6496L170.279 93.4427L177.498 95.1244C178.003 95.2424 178.515 95.2706 179.012 95.2131L179.019 95.2123C179.161 95.1968 179.304 95.1733 179.445 95.1441C180.518 94.9166 181.496 94.2983 182.162 93.3698C187.342 86.1415 199.44 66.6826 197.627 44.3823C197.632 44.4152 197.639 44.4471 197.647 44.478C197.767 44.9984 198.232 45.3796 198.781 45.3796C199.036 45.3796 199.281 45.2961 199.482 45.1449C199.66 45.0181 199.824 44.8215 199.905 44.5165ZM198.787 45.3747C198.827 45.374 199.109 45.3631 199.385 45.206C199.207 45.3145 199 45.3739 198.787 45.3747ZM197.665 44.536C197.658 44.517 197.653 44.4977 197.647 44.478C197.635 44.4241 197.626 44.3687 197.622 44.3121C197.624 44.3355 197.625 44.3589 197.627 44.3823C197.619 44.3315 197.615 44.2782 197.616 44.2224C197.618 44.2508 197.62 44.2792 197.623 44.3076C197.629 44.3863 197.643 44.4627 197.665 44.536Z" fill="#4E2F0E"/>
<path d="M198.781 44.2164L198.782 44.2116C198.185 37.0003 196.157 29.4994 192.016 22.0156C190.25 18.824 186.023 18.0331 183.203 20.3426C179.38 23.474 174.06 28.4668 169.166 35.2595C169.166 35.2595 188.232 33.6414 198.781 44.2164Z" fill="#F9AA2F"/>
<path fill-rule="evenodd" clip-rule="evenodd" d="M199.917 44.465L199.566 46.4909L198.781 45.3795C198.472 45.3795 198.176 45.2566 197.957 45.0378C187.743 34.7979 169.265 36.4185 169.265 36.4185C168.812 36.4569 168.378 36.2282 168.154 35.833C167.93 35.4377 167.957 34.9482 168.222 34.5795C173.188 27.6867 178.586 22.6202 182.466 19.4426C185.847 16.6732 190.916 17.6251 193.034 21.4524C197.262 29.0936 199.331 36.7525 199.941 44.1155C199.951 44.2337 199.943 44.3515 199.917 44.465ZM197.297 41.3585C196.448 35.2141 194.491 28.8903 190.999 22.5788C189.584 20.0228 186.198 19.393 183.94 21.2424C180.543 24.0244 175.948 28.2972 171.543 34.0167C176.683 33.9904 188.749 34.7057 197.297 41.3585Z" fill="#4E2F0E"/>
<path d="M173.818 61.3233C178.364 64.597 184.704 63.5651 187.977 59.0186C191.251 54.4721 190.219 48.1325 185.672 44.8591C181.126 41.5855 174.787 42.6174 171.513 47.1642C168.239 51.7107 169.272 58.0499 173.818 61.3233Z" fill="#F7F4E8"/>
<path fill-rule="evenodd" clip-rule="evenodd" d="M173.138 62.2674C168.071 58.6186 166.92 51.5525 170.569 46.4847C174.218 41.4165 181.284 40.2663 186.352 43.9153C191.42 47.564 192.57 54.6305 188.921 59.6984C185.273 64.7663 178.206 65.9165 173.138 62.2674ZM174.498 60.3794C178.523 63.2777 184.135 62.3642 187.033 58.3391C189.931 54.3139 189.018 48.7013 184.993 45.8033C180.968 42.905 175.355 43.8186 172.457 47.844C169.559 51.8691 170.473 57.4814 174.498 60.3794Z" fill="#4E2F0E"/>
<path d="M176.335 57.8271C178.951 59.7101 182.597 59.1163 184.48 56.5011C186.363 53.8858 185.77 50.2392 183.154 48.3562C180.539 46.4734 176.892 47.0669 175.009 49.6821C173.126 52.2973 173.72 55.9439 176.335 57.8271Z" fill="#4085A6"/>
<path fill-rule="evenodd" clip-rule="evenodd" d="M175.656 58.7709C172.519 56.5124 171.807 52.1389 174.065 49.0023C176.324 45.8658 180.697 45.1539 183.834 47.4121C186.97 49.6705 187.682 54.044 185.424 57.1807C183.166 60.3172 178.792 61.0294 175.656 58.7709ZM177.015 56.883C179.109 58.3907 182.029 57.9152 183.536 55.8214C185.044 53.7274 184.569 50.8078 182.475 49.3001C180.381 47.7926 177.461 48.2678 175.953 50.3617C174.446 52.4556 174.921 55.3752 177.015 56.883Z" fill="#4E2F0E"/>
<path d="M171.577 79.3105C169.04 82.6778 163.264 98.3824 165.853 107.369C166.128 108.324 167.39 108.543 167.973 107.738C170.291 104.541 177.186 88.0257 175.494 80.1941C175.095 78.3465 172.714 77.8008 171.577 79.3105Z" fill="#98569A"/>
<path fill-rule="evenodd" clip-rule="evenodd" d="M170.648 78.6106C172.384 76.3056 176.021 77.1274 176.631 79.9484C177.338 83.2222 176.651 87.9521 175.367 92.6583C173.478 99.5828 170.34 106.455 168.914 108.421C167.765 110.007 165.277 109.574 164.735 107.691C163.391 103.027 164.175 96.6158 165.668 90.9369C167.156 85.2756 169.335 80.353 170.648 78.6106ZM172.506 80.0103C171.282 81.6353 169.305 86.2486 167.918 91.5282C166.535 96.79 165.725 102.725 166.97 107.047C166.978 107.074 167.014 107.078 167.031 107.056C168.387 105.185 171.326 98.6315 173.123 92.046C174.296 87.7454 175.003 83.4313 174.357 80.4397C174.168 79.5655 173.044 79.2961 172.506 80.0103Z" fill="#4E2F0E"/>
<path d="M202.139 202.47C198.334 202.47 194.765 201.766 191.43 200.359C188.147 198.9 185.254 196.894 182.753 194.34C180.252 191.787 178.271 188.842 176.812 185.507C175.405 182.12 174.702 178.524 174.702 174.72C174.702 170.76 175.379 167.06 176.734 163.62C178.141 160.181 180.069 157.158 182.518 154.553C184.968 151.947 187.808 149.915 191.039 148.456C194.322 146.996 197.813 146.267 201.513 146.267C205.317 146.267 208.861 146.996 212.144 148.456C215.479 149.863 218.398 151.843 220.899 154.396C223.4 156.95 225.355 159.946 226.762 163.386C228.169 166.773 228.872 170.447 228.872 174.407C228.872 178.264 228.169 181.886 226.762 185.273C225.407 188.66 223.479 191.657 220.977 194.262C218.528 196.816 215.688 198.822 212.457 200.281C209.278 201.74 205.839 202.47 202.139 202.47ZM201.748 188.165C203.52 188.165 205.187 187.826 206.751 187.149C208.314 186.419 209.669 185.455 210.815 184.257C212.014 183.006 212.926 181.547 213.551 179.879C214.229 178.159 214.567 176.336 214.567 174.407C214.567 172.479 214.229 170.681 213.551 169.014C212.874 167.346 211.936 165.887 210.737 164.636C209.591 163.334 208.236 162.343 206.672 161.666C205.161 160.936 203.546 160.572 201.826 160.572C200.054 160.572 198.387 160.936 196.823 161.666C195.312 162.343 193.957 163.334 192.758 164.636C191.612 165.887 190.7 167.346 190.023 169.014C189.345 170.681 189.006 172.479 189.006 174.407C189.006 176.283 189.345 178.055 190.023 179.723C190.7 181.39 191.612 182.876 192.758 184.178C193.957 185.429 195.312 186.419 196.823 187.149C198.387 187.826 200.028 188.165 201.748 188.165Z" fill="#98569A"/>
<path d="M140.357 201.61C138.012 201.61 136.344 201.271 135.354 200.594C134.364 199.864 133.765 198.952 133.556 197.858C133.348 196.711 133.244 195.565 133.244 194.419V154.006C133.244 152.859 133.348 151.739 133.556 150.644C133.765 149.55 134.364 148.664 135.354 147.987C136.344 147.257 138.038 146.892 140.435 146.892C142.832 146.892 144.5 147.257 145.438 147.987C146.428 148.664 147.027 149.55 147.236 150.644C147.444 151.739 147.548 152.885 147.548 154.084V164.871L161.15 149.316C162.348 148.013 163.469 147.101 164.511 146.58C165.553 146.058 166.622 145.954 167.716 146.267C168.81 146.58 170.009 147.361 171.312 148.612C173.448 150.54 174.543 152.234 174.595 153.693C174.647 155.152 173.787 156.82 172.015 158.696L156.694 174.329L172.093 189.728C174.021 191.657 174.907 193.402 174.751 194.966C174.647 196.477 173.526 198.119 171.39 199.89C169.826 201.141 168.498 201.923 167.403 202.235C166.309 202.548 165.293 202.418 164.355 201.845C163.417 201.323 162.374 200.385 161.228 199.03L147.548 183.475V194.497C147.548 195.643 147.444 196.764 147.236 197.858C147.027 198.952 146.428 199.864 145.438 200.594C144.448 201.271 142.754 201.61 140.357 201.61Z" fill="#D4442A"/>
<path d="M123.478 146.814C124.468 146.814 125.406 146.892 126.292 147.048C127.178 147.205 127.907 147.7 128.481 148.534C129.106 149.367 129.419 150.801 129.419 152.833C129.419 154.813 129.106 156.246 128.481 157.132C127.907 157.966 127.152 158.461 126.214 158.617C125.328 158.774 124.39 158.852 123.4 158.852H112.612V194.653C112.612 195.799 112.508 196.92 112.3 198.014C112.091 199.056 111.492 199.916 110.502 200.594C109.564 201.271 107.896 201.61 105.499 201.61C103.206 201.61 101.565 201.271 100.575 200.594C99.5844 199.864 98.9851 198.978 98.7767 197.936C98.6204 196.842 98.5422 195.721 98.5422 194.575V158.852H87.6768C86.7388 158.852 85.8008 158.774 84.8627 158.617C83.9768 158.409 83.2212 157.888 82.5959 157.054C82.0226 156.22 81.736 154.787 81.736 152.755C81.736 150.774 82.0226 149.367 82.5959 148.534C83.2212 147.7 84.0029 147.205 84.9409 147.048C85.8789 146.892 86.817 146.814 87.755 146.814H123.478Z" fill="#8FA13E"/>
<path d="M91.162 191.682C91.9437 193.246 92.3606 194.575 92.4127 195.669C92.4648 196.763 92.1261 197.727 91.3965 198.561C90.6669 199.395 89.4944 200.229 87.8789 201.063C85.3775 202.261 83.4494 202.626 82.0945 202.157C80.7396 201.74 79.4628 200.255 78.2642 197.701L64.9756 170.499L51.8434 197.78C50.5927 200.229 49.2899 201.662 47.935 202.079C46.58 202.548 44.678 202.183 42.2287 200.985C40.6132 200.203 39.4146 199.395 38.6329 198.561C37.9034 197.727 37.5646 196.763 37.6168 195.669C37.6689 194.575 38.0858 193.246 38.8674 191.682L58.4877 151.035C59.113 149.784 60.025 148.794 61.2236 148.065C62.4743 147.283 63.751 146.892 65.0538 146.892C65.9918 146.892 66.8517 147.074 67.6334 147.439C68.4671 147.752 69.2228 148.221 69.9002 148.846C70.5777 149.472 71.1249 150.227 71.5418 151.113L91.162 191.682ZM52.6251 190.275L58.5658 178.081H71.4636L77.4044 190.275H52.6251Z" fill="#4085A6"/>
<path d="M41.9172 146.814C42.9074 146.814 43.8454 146.892 44.7313 147.048C45.6172 147.205 46.3468 147.7 46.92 148.534C47.5454 149.367 47.858 150.801 47.858 152.833C47.858 154.813 47.5454 156.246 46.92 157.132C46.3468 157.966 45.5912 158.461 44.6531 158.617C43.7672 158.774 42.8292 158.852 41.8391 158.852H31.0519V194.653C31.0519 195.799 30.9476 196.92 30.7392 198.014C30.5307 199.056 29.9315 199.916 28.9413 200.594C28.0033 201.271 26.3357 201.61 23.9386 201.61C21.6456 201.61 20.0041 201.271 19.014 200.594C18.0238 199.864 17.4245 198.978 17.2161 197.936C17.0598 196.842 16.9816 195.721 16.9816 194.575V158.852H6.1162C5.17818 158.852 4.24016 158.774 3.30214 158.617C2.41624 158.409 1.66061 157.888 1.03527 157.054C0.462032 156.22 0.175415 154.787 0.175415 152.755C0.175415 150.774 0.462032 149.367 1.03527 148.534C1.66061 147.7 2.44229 147.205 3.38031 147.048C4.31833 146.892 5.25635 146.814 6.19437 146.814H41.9172Z" fill="#F9AA2F"/>
<path d="M226.846 241.427C226.125 241.427 225.59 241.292 225.242 241.02C224.894 240.749 224.72 240.379 224.72 239.91L224.981 238.689C224.782 239.01 224.446 239.392 223.974 239.836C223.501 240.256 222.88 240.638 222.109 240.983C221.338 241.304 220.405 241.464 219.311 241.464C218.142 241.464 217.035 241.23 215.991 240.761C214.971 240.268 214.063 239.602 213.268 238.763C212.497 237.9 211.875 236.926 211.402 235.841C210.955 234.731 210.731 233.547 210.731 232.289C210.731 231.08 210.955 229.946 211.402 228.885C211.875 227.8 212.509 226.838 213.305 225.999C214.101 225.16 215.008 224.507 216.028 224.038C217.073 223.545 218.167 223.298 219.311 223.298C220.33 223.298 221.188 223.434 221.885 223.705C222.606 223.977 223.215 224.322 223.713 224.741C224.21 225.136 224.62 225.555 224.944 225.999L224.72 224.926C224.72 224.384 224.894 223.977 225.242 223.705C225.59 223.409 226.138 223.261 226.884 223.261C227.58 223.261 228.077 223.372 228.376 223.594C228.674 223.792 228.861 224.075 228.935 224.445C229.01 224.79 229.047 225.185 229.047 225.629V239.17C229.047 239.59 229.01 239.972 228.935 240.317C228.861 240.663 228.662 240.934 228.338 241.131C228.04 241.329 227.543 241.427 226.846 241.427ZM219.982 237.136C220.828 237.136 221.586 236.926 222.258 236.507C222.929 236.087 223.464 235.52 223.862 234.805C224.285 234.065 224.496 233.251 224.496 232.363C224.496 231.401 224.285 230.562 223.862 229.847C223.439 229.132 222.88 228.577 222.183 228.182C221.512 227.763 220.753 227.553 219.908 227.553C218.988 227.553 218.167 227.775 217.446 228.219C216.724 228.638 216.152 229.218 215.73 229.958C215.332 230.673 215.133 231.487 215.133 232.4C215.133 233.288 215.344 234.089 215.767 234.805C216.19 235.52 216.762 236.087 217.483 236.507C218.229 236.926 219.062 237.136 219.982 237.136Z" fill="#4E2F0E"/>
<path d="M208.761 237.505C209.408 238.048 209.744 238.554 209.768 239.022C209.818 239.491 209.569 240.034 209.022 240.65C208.6 241.119 208.227 241.427 207.903 241.575C207.58 241.723 207.257 241.723 206.933 241.575C206.61 241.452 206.225 241.205 205.777 240.835L198.652 234.879V239.281C198.652 239.676 198.602 240.046 198.503 240.391C198.428 240.737 198.229 241.008 197.906 241.205C197.607 241.403 197.11 241.501 196.413 241.501C195.717 241.501 195.207 241.39 194.884 241.168C194.586 240.971 194.399 240.7 194.324 240.354C194.25 240.009 194.213 239.639 194.213 239.244V217.157C194.213 216.737 194.25 216.367 194.324 216.047C194.424 215.701 194.623 215.43 194.921 215.233C195.245 215.011 195.754 214.9 196.451 214.9C197.147 214.9 197.645 215.011 197.943 215.233C198.241 215.43 198.428 215.701 198.503 216.047C198.602 216.367 198.652 216.75 198.652 217.194V229.329L203.8 224.371C204.198 224.001 204.571 223.755 204.919 223.631C205.267 223.483 205.603 223.471 205.926 223.594C206.274 223.693 206.635 223.952 207.008 224.371C207.63 225.037 207.928 225.592 207.903 226.036C207.878 226.455 207.567 226.961 206.971 227.553L201.935 232.178L208.761 237.505Z" fill="#4E2F0E"/>
<path d="M184.109 241.575C182.915 241.575 181.747 241.378 180.603 240.983C179.484 240.564 178.464 239.96 177.544 239.17C176.648 238.381 175.927 237.419 175.38 236.284C174.858 235.125 174.597 233.818 174.597 232.363C174.597 230.907 174.858 229.612 175.38 228.478C175.927 227.343 176.648 226.381 177.544 225.592C178.439 224.803 179.446 224.198 180.565 223.779C181.684 223.36 182.841 223.15 184.035 223.15C184.905 223.15 185.726 223.273 186.497 223.52C187.293 223.767 187.976 224.063 188.548 224.408C189.12 224.753 189.531 225.099 189.779 225.444C190.103 225.74 190.376 226.024 190.6 226.295C190.824 226.566 190.899 226.899 190.824 227.294C190.749 227.541 190.637 227.775 190.488 227.997C190.339 228.194 190.153 228.404 189.929 228.626C189.332 229.292 188.747 229.538 188.175 229.366C187.852 229.193 187.529 229.008 187.206 228.811C186.882 228.614 186.546 228.429 186.198 228.256C185.875 228.059 185.539 227.898 185.191 227.775C184.843 227.652 184.457 227.59 184.035 227.59C183.09 227.59 182.244 227.8 181.498 228.219C180.777 228.614 180.205 229.169 179.782 229.884C179.384 230.599 179.185 231.425 179.185 232.363C179.185 233.3 179.384 234.139 179.782 234.879C180.205 235.594 180.777 236.161 181.498 236.58C182.219 236.975 183.04 237.172 183.96 237.172C184.408 237.172 184.83 237.123 185.228 237.024C185.651 236.901 186.024 236.753 186.347 236.58C186.671 236.383 186.932 236.186 187.131 235.988C187.404 235.816 187.653 235.656 187.877 235.508C188.101 235.36 188.337 235.286 188.586 235.286C188.884 235.286 189.17 235.397 189.444 235.619C189.742 235.816 190.065 236.136 190.414 236.58C190.737 236.95 190.911 237.308 190.936 237.653C190.986 237.999 190.911 238.332 190.712 238.652C190.538 238.973 190.24 239.269 189.817 239.54C189.518 239.836 189.071 240.145 188.474 240.465C187.902 240.761 187.23 241.02 186.459 241.242C185.713 241.464 184.93 241.575 184.109 241.575Z" fill="#4E2F0E"/>
<path d="M164 241.723C162.383 241.723 160.966 241.464 159.747 240.946C158.553 240.428 157.546 239.725 156.726 238.837C155.93 237.925 155.32 236.914 154.898 235.804C154.5 234.669 154.301 233.497 154.301 232.289C154.301 230.513 154.711 228.934 155.532 227.553C156.353 226.172 157.484 225.087 158.927 224.297C160.394 223.508 162.073 223.113 163.963 223.113C165.306 223.113 166.487 223.323 167.507 223.742C168.526 224.162 169.372 224.717 170.043 225.407C170.74 226.073 171.262 226.813 171.61 227.627C171.983 228.441 172.17 229.23 172.17 229.995C172.17 231.302 171.846 232.252 171.2 232.844C170.578 233.436 169.794 233.732 168.849 233.732H159.001C159.026 234.57 159.287 235.298 159.785 235.915C160.307 236.531 160.953 237.012 161.724 237.358C162.52 237.678 163.328 237.839 164.149 237.839C164.771 237.839 165.318 237.802 165.791 237.728C166.288 237.654 166.711 237.567 167.059 237.469C167.407 237.345 167.705 237.222 167.954 237.099C168.228 236.975 168.476 236.864 168.7 236.766C168.924 236.667 169.135 236.605 169.334 236.581C169.608 236.556 169.882 236.618 170.155 236.766C170.429 236.914 170.653 237.173 170.827 237.543C170.976 237.789 171.075 238.024 171.125 238.246C171.2 238.443 171.237 238.64 171.237 238.837C171.237 239.331 170.939 239.799 170.342 240.243C169.745 240.663 168.899 241.008 167.805 241.279C166.736 241.575 165.467 241.723 164 241.723ZM159.001 231.105H166.648C167.071 231.105 167.395 231.043 167.618 230.92C167.842 230.772 167.954 230.476 167.954 230.032C167.954 229.465 167.78 228.959 167.432 228.515C167.084 228.046 166.611 227.689 166.014 227.442C165.417 227.171 164.721 227.035 163.925 227.035C163.005 227.035 162.172 227.22 161.426 227.59C160.68 227.935 160.083 228.416 159.635 229.033C159.213 229.65 159.001 230.34 159.001 231.105Z" fill="#4E2F0E"/>
<path d="M148.802 241.501C148.131 241.501 147.633 241.39 147.31 241.168C146.987 240.971 146.788 240.712 146.713 240.391C146.638 240.046 146.601 239.664 146.601 239.245V225.481C146.601 225.087 146.638 224.729 146.713 224.408C146.813 224.063 147.011 223.792 147.31 223.594C147.633 223.397 148.143 223.298 148.839 223.298C149.536 223.298 150.033 223.397 150.332 223.594C150.655 223.792 150.854 224.063 150.928 224.408C151.003 224.754 151.04 225.136 151.04 225.555V239.282C151.04 239.701 151.003 240.083 150.928 240.428C150.854 240.749 150.655 241.008 150.332 241.205C150.033 241.403 149.523 241.501 148.802 241.501ZM148.802 219.71C148.081 219.71 147.546 219.611 147.198 219.414C146.875 219.192 146.663 218.896 146.564 218.526C146.489 218.156 146.452 217.749 146.452 217.305C146.452 216.836 146.489 216.429 146.564 216.084C146.663 215.738 146.887 215.467 147.235 215.27C147.583 215.048 148.118 214.937 148.839 214.937C149.585 214.937 150.12 215.048 150.443 215.27C150.767 215.492 150.978 215.788 151.078 216.158C151.177 216.503 151.227 216.91 151.227 217.379C151.227 217.798 151.177 218.193 151.078 218.563C150.978 218.933 150.767 219.216 150.443 219.414C150.12 219.611 149.573 219.71 148.802 219.71Z" fill="#4E2F0E"/>
<path d="M127.795 241.501C127.123 241.501 126.589 241.304 126.191 240.909C125.793 240.49 125.594 239.96 125.594 239.318C125.594 238.973 125.644 238.665 125.743 238.393C125.868 238.122 126.042 237.875 126.265 237.653L136.002 227.701H128.653C128.255 227.701 127.882 227.664 127.534 227.59C127.186 227.491 126.9 227.294 126.676 226.998C126.477 226.677 126.377 226.172 126.377 225.481C126.377 224.79 126.477 224.297 126.676 224.001C126.9 223.681 127.186 223.483 127.534 223.409C127.882 223.311 128.255 223.261 128.653 223.261H140.702C141.349 223.261 141.871 223.459 142.269 223.853C142.692 224.248 142.903 224.766 142.903 225.407C142.903 225.728 142.841 226.036 142.717 226.332C142.617 226.603 142.48 226.825 142.306 226.998L132.682 237.062H141.15C141.573 237.062 141.946 237.111 142.269 237.21C142.617 237.284 142.891 237.481 143.09 237.801C143.289 238.122 143.388 238.628 143.388 239.318C143.388 239.984 143.276 240.478 143.052 240.798C142.853 241.119 142.58 241.316 142.232 241.39C141.908 241.464 141.535 241.501 141.113 241.501H127.795Z" fill="#4E2F0E"/>
<path d="M104.064 241.464C103.417 241.464 102.932 241.353 102.609 241.131C102.285 240.934 102.074 240.663 101.974 240.317C101.875 239.972 101.825 239.602 101.825 239.207V217.822C101.825 217.428 101.863 217.07 101.937 216.749C102.037 216.404 102.248 216.133 102.571 215.936C102.895 215.714 103.404 215.603 104.101 215.603L111.114 215.64C112.93 215.64 114.596 215.948 116.113 216.564C117.655 217.181 118.985 218.057 120.104 219.191C121.224 220.326 122.082 221.683 122.678 223.261C123.3 224.815 123.611 226.529 123.611 228.404C123.611 230.328 123.3 232.091 122.678 233.695C122.057 235.298 121.186 236.679 120.067 237.838C118.948 238.998 117.617 239.898 116.076 240.539C114.558 241.156 112.867 241.464 111.002 241.464H104.064ZM106.339 236.987H111.114C112.706 236.987 114.098 236.642 115.292 235.951C116.486 235.236 117.406 234.25 118.053 232.992C118.724 231.734 119.06 230.266 119.06 228.589C119.06 226.887 118.724 225.407 118.053 224.149C117.406 222.866 116.473 221.88 115.255 221.189C114.061 220.474 112.668 220.116 111.077 220.116H106.339V236.987Z" fill="#4E2F0E"/>
<path d="M86.9184 241.501C85.6998 241.501 84.6553 241.378 83.7848 241.131C82.9144 240.885 82.2056 240.502 81.6585 239.984C81.1113 239.466 80.701 238.8 80.4274 237.986C80.1787 237.148 80.0544 236.161 80.0544 235.027V219.339C80.0544 218.895 80.0917 218.513 80.1663 218.192C80.2658 217.872 80.4647 217.625 80.7632 217.452C81.0865 217.255 81.5839 217.156 82.2553 217.156C82.9517 217.156 83.4491 217.255 83.7475 217.452C84.0708 217.65 84.2698 217.921 84.3444 218.266C84.4439 218.587 84.4936 218.945 84.4936 219.339V234.879C84.4936 235.397 84.5309 235.816 84.6055 236.137C84.705 236.457 84.8418 236.704 85.0159 236.876C85.2148 237.024 85.4635 237.135 85.7619 237.209C86.0852 237.259 86.4707 237.283 86.9184 237.283C87.3909 237.283 87.7888 237.32 88.1121 237.394C88.4603 237.468 88.7214 237.653 88.8955 237.949C89.0696 238.221 89.1566 238.677 89.1566 239.318C89.1566 240.009 89.0447 240.515 88.8209 240.835C88.6219 241.131 88.3484 241.316 88.0002 241.39C87.6769 241.464 87.3163 241.501 86.9184 241.501ZM78.5249 223.631L82.3673 223.668L87.5152 223.52C87.938 223.52 88.3111 223.569 88.6344 223.668C88.9825 223.742 89.2561 223.939 89.4551 224.26C89.654 224.556 89.7535 225.049 89.7535 225.74C89.7535 226.381 89.654 226.862 89.4551 227.183C89.2561 227.504 88.995 227.713 88.6717 227.812C88.3484 227.886 87.9753 227.923 87.5525 227.923L82.5538 227.849L78.413 227.886C77.7913 227.861 77.356 227.689 77.1073 227.368C76.8835 227.023 76.7716 226.468 76.7716 225.703C76.7716 224.988 76.9084 224.47 77.182 224.149C77.4804 223.804 77.928 223.631 78.5249 223.631Z" fill="#4E2F0E"/>
<path d="M71.9095 241.427C71.1883 241.427 70.6536 241.292 70.3054 241.02C69.9572 240.749 69.7832 240.379 69.7832 239.91L70.0443 238.689C69.8453 239.01 69.5096 239.392 69.0371 239.836C68.5645 240.256 67.9428 240.638 67.1718 240.983C66.4009 241.304 65.4683 241.464 64.374 241.464C63.2052 241.464 62.0985 241.23 61.0539 240.761C60.0343 240.268 59.1266 239.602 58.3307 238.763C57.5598 237.9 56.938 236.926 56.4655 235.841C56.0179 234.731 55.794 233.547 55.794 232.289C55.794 231.08 56.0179 229.946 56.4655 228.885C56.938 227.8 57.5722 226.838 58.368 225.999C59.1639 225.16 60.0716 224.507 61.0912 224.038C62.1358 223.545 63.23 223.298 64.374 223.298C65.3937 223.298 66.2517 223.434 66.948 223.705C67.6692 223.977 68.2785 224.322 68.7759 224.741C69.2733 225.136 69.6837 225.555 70.007 225.999L69.7832 224.926C69.7832 224.384 69.9572 223.977 70.3054 223.705C70.6536 223.409 71.2007 223.261 71.9468 223.261C72.6432 223.261 73.1405 223.372 73.439 223.594C73.7374 223.792 73.9239 224.075 73.9985 224.445C74.0731 224.79 74.1105 225.185 74.1105 225.629V239.17C74.1105 239.59 74.0731 239.972 73.9985 240.317C73.9239 240.663 73.725 240.934 73.4017 241.131C73.1032 241.329 72.6058 241.427 71.9095 241.427ZM65.0455 237.136C65.8911 237.136 66.6496 236.926 67.3211 236.507C67.9925 236.087 68.5272 235.52 68.9252 234.805C69.3479 234.065 69.5593 233.251 69.5593 232.363C69.5593 231.401 69.3479 230.562 68.9252 229.847C68.5024 229.132 67.9428 228.577 67.2465 228.182C66.575 227.763 65.8165 227.553 64.9709 227.553C64.0507 227.553 63.23 227.775 62.5088 228.219C61.7876 228.638 61.2156 229.218 60.7928 229.958C60.3949 230.673 60.1959 231.487 60.1959 232.4C60.1959 233.288 60.4073 234.089 60.8301 234.805C61.2529 235.52 61.8249 236.087 62.5461 236.507C63.2922 236.926 64.1253 237.136 65.0455 237.136Z" fill="#4E2F0E"/>
<path d="M50.6597 241.501C49.9882 241.501 49.4908 241.39 49.1675 241.168C48.8442 240.971 48.6453 240.712 48.5707 240.391C48.4961 240.046 48.4588 239.664 48.4588 239.245V225.481C48.4588 225.087 48.4961 224.729 48.5707 224.408C48.6701 224.063 48.8691 223.792 49.1675 223.594C49.4908 223.397 50.0007 223.298 50.697 223.298C51.3934 223.298 51.8908 223.397 52.1892 223.594C52.5125 223.792 52.7114 224.063 52.7861 224.408C52.8607 224.754 52.898 225.136 52.898 225.555V239.282C52.898 239.701 52.8607 240.083 52.7861 240.428C52.7114 240.749 52.5125 241.008 52.1892 241.205C51.8908 241.403 51.3809 241.501 50.6597 241.501ZM50.6597 219.71C49.9385 219.71 49.4038 219.611 49.0556 219.414C48.7323 219.192 48.5209 218.896 48.4215 218.526C48.3468 218.156 48.3095 217.749 48.3095 217.305C48.3095 216.836 48.3468 216.429 48.4215 216.084C48.5209 215.738 48.7448 215.467 49.0929 215.27C49.4411 215.048 49.9758 214.937 50.697 214.937C51.4431 214.937 51.9778 215.048 52.3011 215.27C52.6244 215.492 52.8358 215.788 52.9353 216.158C53.0348 216.503 53.0845 216.91 53.0845 217.379C53.0845 217.798 53.0348 218.193 52.9353 218.563C52.8358 218.933 52.6244 219.216 52.3011 219.414C51.9778 219.611 51.4307 219.71 50.6597 219.71Z" fill="#4E2F0E"/>
<path d="M26.8266 241.464C26.3292 241.464 25.9313 241.366 25.6329 241.168C25.3593 240.996 25.1479 240.774 24.9987 240.502C24.8744 240.231 24.7625 239.984 24.663 239.762L19.1793 225.999C19.03 225.53 18.9554 225.136 18.9554 224.815C18.9803 224.494 19.1046 224.223 19.3285 224.001C19.5772 223.755 19.9378 223.545 20.4103 223.372C21.2061 223.052 21.8279 222.965 22.2755 223.113C22.748 223.261 23.0962 223.681 23.32 224.371L26.8639 233.695L30.0721 224.778C30.1467 224.556 30.2586 224.322 30.4078 224.075C30.5571 223.829 30.7685 223.619 31.042 223.446C31.3405 223.249 31.7384 223.15 32.2358 223.15C32.758 223.15 33.1684 223.249 33.4668 223.446C33.7652 223.619 33.9891 223.829 34.1383 224.075C34.3124 224.322 34.4243 224.556 34.474 224.778L37.6822 233.769L41.0769 224.704C41.3753 223.94 41.7484 223.434 42.196 223.187C42.6437 222.941 43.253 222.965 44.0239 223.261C44.7203 223.557 45.1928 223.927 45.4415 224.371C45.6902 224.79 45.6653 225.345 45.3669 226.036L39.8458 239.762C39.7464 240.009 39.622 240.268 39.4728 240.539C39.3484 240.786 39.1371 240.996 38.8386 241.168C38.5651 241.366 38.192 241.464 37.7195 241.464C37.2221 241.464 36.8242 241.378 36.5258 241.205C36.2522 241.057 36.0408 240.848 35.8916 240.576C35.7424 240.305 35.618 240.021 35.5185 239.725L32.2731 230.587L29.0276 239.725C28.8784 240.071 28.7416 240.379 28.6172 240.65C28.4929 240.922 28.2939 241.119 28.0204 241.242C27.7468 241.39 27.3489 241.464 26.8266 241.464Z" fill="#4E2F0E"/>
<path d="M7.72803 213.901C7.33011 213.975 6.99437 213.901 6.72081 213.679C6.47211 213.457 6.26072 213.062 6.08664 212.495C5.86281 211.804 5.81307 211.286 5.93742 210.941C6.08664 210.571 6.47211 210.287 7.09385 210.09L13.361 208.129C13.7589 208.055 14.0822 208.141 14.3309 208.388C14.6045 208.61 14.8158 209.005 14.9651 209.572C15.2138 210.238 15.2511 210.756 15.077 211.126C14.9278 211.471 14.5547 211.743 13.9578 211.94L7.72803 213.901Z" fill="#4E2F0E"/>
<path d="M8.90081 241.834C7.78168 241.834 6.76203 241.699 5.84185 241.427C4.94655 241.156 4.15073 240.811 3.45438 240.391C2.7829 239.972 2.2109 239.54 1.73838 239.096C1.26586 238.652 0.917686 238.245 0.69386 237.876C0.370556 237.432 0.159165 237.037 0.0596869 236.692C-0.0397913 236.346 -0.0149217 236.013 0.134296 235.693C0.308382 235.347 0.619252 234.99 1.0669 234.62C1.51455 234.225 1.9249 234.028 2.29795 234.028C2.69586 234.003 3.0689 234.114 3.41707 234.361C3.79012 234.607 4.15073 234.953 4.4989 235.397C5.09577 236.186 5.76725 236.753 6.51333 237.099C7.25942 237.419 8.0055 237.58 8.75159 237.58C9.7215 237.58 10.5671 237.456 11.2883 237.21C12.0095 236.938 12.5691 236.544 12.967 236.026C13.3898 235.508 13.6011 234.842 13.6011 234.028C13.6011 233.362 13.3898 232.819 12.967 232.4C12.5691 231.956 12.0344 231.586 11.3629 231.29C10.6914 230.969 9.93289 230.686 9.08733 230.439C8.26663 230.168 7.4335 229.872 6.58794 229.551C5.99107 229.354 5.3942 229.119 4.79733 228.848C4.20046 228.552 3.6409 228.219 3.11864 227.849C2.62125 227.479 2.1736 227.047 1.77569 226.554C1.40264 226.036 1.10421 225.444 0.880382 224.778C0.656556 224.112 0.544643 223.335 0.544643 222.447C0.544643 221.041 0.892816 219.808 1.58916 218.747C2.28551 217.662 3.25542 216.811 4.4989 216.195C5.74238 215.553 7.15994 215.233 8.75159 215.233C9.77124 215.233 10.679 215.331 11.4748 215.529C12.2955 215.701 12.9918 215.936 13.5638 216.232C14.1607 216.503 14.6457 216.787 15.0187 217.083C15.4166 217.354 15.7026 217.588 15.8767 217.786C16.4487 218.353 16.7596 218.834 16.8093 219.228C16.8839 219.598 16.6601 220.104 16.1378 220.745C15.6156 221.411 15.1058 221.781 14.6084 221.855C14.1358 221.905 13.6011 221.707 13.0043 221.263C12.6064 220.844 12.2085 220.511 11.8105 220.264C11.4126 219.993 10.965 219.796 10.4676 219.672C9.99507 219.549 9.41063 219.487 8.71429 219.487C8.2169 219.487 7.73194 219.561 7.25942 219.709C6.81177 219.833 6.42629 220.03 6.10298 220.301C5.77968 220.548 5.51855 220.856 5.31959 221.226C5.14551 221.596 5.05846 222.016 5.05846 222.484C5.05846 223.126 5.23255 223.656 5.58072 224.075C5.95377 224.47 6.45116 224.803 7.0729 225.074C7.69463 225.321 8.39098 225.555 9.16194 225.777C9.93289 225.999 10.7163 226.233 11.5121 226.48C12.3328 226.751 13.1411 227.072 13.9369 227.442C14.7327 227.812 15.4415 228.281 16.0632 228.848C16.685 229.391 17.1824 230.081 17.5554 230.92C17.9284 231.734 18.115 232.733 18.115 233.917C18.115 235.273 17.8538 236.457 17.3316 237.469C16.8093 238.48 16.1005 239.306 15.2052 239.947C14.3099 240.589 13.3152 241.057 12.2209 241.353C11.1266 241.674 10.0199 241.834 8.90081 241.834Z" fill="#4E2F0E"/>
</svg>
