<svg width="400" height="421" viewBox="0 0 400 421" fill="none" xmlns="http://www.w3.org/2000/svg">
<path fill-rule="evenodd" clip-rule="evenodd" d="M210.883 143.75C210.883 143.75 274.562 150.363 263.172 177.277C251.783 204.192 210.165 158.494 210.883 143.75Z" fill="#DF9848"/>
<path fill-rule="evenodd" clip-rule="evenodd" d="M209.407 143.681C209.407 143.68 209.407 143.68 209.407 143.679C209.409 143.652 209.411 143.625 209.414 143.598C209.494 142.819 210.172 142.237 210.954 142.275C210.981 142.276 211.008 142.279 211.035 142.281C211.036 142.281 211.038 142.282 211.041 142.282C211.474 142.328 234.402 144.778 250.332 152.521C261.705 158.048 269.426 166.287 264.533 177.853C262.505 182.646 259.563 185.319 256.143 186.446C251.19 188.079 245.052 186.378 238.871 182.61C228.599 176.349 218.106 164.478 212.888 154.818C210.538 150.469 209.27 146.528 209.407 143.681ZM212.441 145.423C212.891 148.651 214.949 152.93 217.915 157.476C223.357 165.814 231.955 174.936 240.408 180.088C245.729 183.331 250.955 185.047 255.219 183.641C257.945 182.743 260.196 180.522 261.812 176.702C266.03 166.734 258.842 159.941 249.041 155.177C235.948 148.813 218.001 146.133 212.441 145.423Z" fill="#4E2F0E"/>
<path fill-rule="evenodd" clip-rule="evenodd" d="M213.727 223.883C223.853 206.417 251.648 180.878 265.059 193.271C277.293 204.579 265.701 224.29 248.941 223.883L213.727 223.883Z" fill="#DF9848"/>
<path fill-rule="evenodd" clip-rule="evenodd" d="M212.45 223.142C218.639 212.466 231.319 198.835 243.416 192.36C251.973 187.781 260.262 186.828 266.061 192.187C279.264 204.389 267.007 225.784 248.924 225.36L213.727 225.36C213.199 225.36 212.711 225.078 212.448 224.62C212.184 224.163 212.185 223.599 212.45 223.142ZM216.358 222.406L248.941 222.406L248.977 222.407C264.406 222.782 275.319 204.765 264.056 194.356C259.126 189.799 252.086 191.07 244.81 194.964C233.982 200.76 222.685 212.52 216.358 222.406Z" fill="#4E2F0E"/>
<path fill-rule="evenodd" clip-rule="evenodd" d="M186.739 223.883C176.614 206.417 148.818 180.878 135.408 193.271C123.173 204.579 134.765 224.29 151.525 223.883L186.739 223.883Z" fill="#DF9848"/>
<path fill-rule="evenodd" clip-rule="evenodd" d="M186.739 225.36L151.557 225.359C133.467 225.796 121.198 204.393 134.405 192.187C140.204 186.828 148.494 187.781 157.05 192.36C169.148 198.835 181.827 212.466 188.017 223.142C188.281 223.599 188.282 224.163 188.019 224.62C187.755 225.078 187.267 225.36 186.739 225.36ZM184.108 222.406C177.781 212.52 166.484 200.76 155.657 194.964C148.38 191.07 141.341 189.799 136.41 194.356C125.147 204.765 136.061 222.782 151.489 222.407L151.525 222.406L184.108 222.406Z" fill="#4E2F0E"/>
<path fill-rule="evenodd" clip-rule="evenodd" d="M184.266 143.898C184.266 143.898 120.665 151.224 132.356 178.009C144.046 204.794 185.149 158.632 184.266 143.898Z" fill="#DF9848"/>
<path fill-rule="evenodd" clip-rule="evenodd" d="M184.091 142.431C184.094 142.431 184.096 142.43 184.097 142.43C184.124 142.427 184.151 142.425 184.178 142.423C184.959 142.376 185.644 142.95 185.733 143.728C185.736 143.755 185.738 143.782 185.74 143.809C185.74 143.81 185.74 143.811 185.74 143.812C185.909 146.657 184.686 150.612 182.385 154.987C177.276 164.705 166.916 176.693 156.715 183.069C150.576 186.906 144.459 188.676 139.487 187.099C136.055 186.01 133.083 183.37 131.002 178.6C125.978 167.09 133.607 158.765 144.917 153.11C160.76 145.189 183.658 142.482 184.091 142.431ZM182.726 145.588C177.175 146.36 159.259 149.241 146.238 155.752C136.491 160.625 129.379 167.499 133.709 177.419C135.368 181.22 137.644 183.416 140.38 184.284C144.66 185.642 149.865 183.867 155.15 180.564C163.545 175.318 172.04 166.1 177.388 157.701C180.303 153.122 182.313 148.821 182.726 145.588Z" fill="#4E2F0E"/>
<path fill-rule="evenodd" clip-rule="evenodd" d="M216.852 223.745C216.852 223.745 259.547 212.08 220.851 147.916C189.231 95.4842 173.335 141.311 173.335 141.311C173.335 141.311 145.081 220.339 178.804 223.859C197.472 225.808 216.852 223.745 216.852 223.745Z" fill="#DF9848"/>
<path fill-rule="evenodd" clip-rule="evenodd" d="M217.008 225.213C217.008 225.213 197.471 227.293 178.651 225.328C167.803 224.195 162.785 215.903 161.287 204.672C158.012 180.124 171.764 141.32 171.942 140.819C172.031 140.565 174.169 134.54 178.352 129.295C181.315 125.581 185.295 122.293 190.226 121.483C194.343 120.807 199.166 121.821 204.65 125.912C209.821 129.77 215.658 136.446 222.115 147.153C241.903 179.965 240.635 199.402 234.665 210.587C228.512 222.117 217.241 225.169 217.241 225.169C217.165 225.19 217.087 225.205 217.008 225.213ZM216.566 222.29L216.568 222.289C217.889 221.888 231.176 217.495 234.72 201.997C237.294 190.741 234.764 173.846 219.586 148.679C213.395 138.413 207.842 131.978 202.884 128.279C198.238 124.813 194.192 123.825 190.704 124.398C186.508 125.087 183.182 127.976 180.661 131.137C176.71 136.09 174.729 141.795 174.729 141.795L174.725 141.808C174.725 141.808 160.989 180.104 164.214 204.281C165.511 214 169.571 221.41 178.958 222.39C196.589 224.231 214.861 222.463 216.566 222.29Z" fill="#4E2F0E"/>
<path d="M225.492 199.993C225.206 190.229 213.665 182.645 199.715 183.054C185.765 183.463 174.688 191.71 174.974 201.475C175.261 211.239 186.802 218.823 200.752 218.414C214.702 218.005 225.778 209.757 225.492 199.993Z" fill="#BA6E32"/>
<path d="M255.817 218.518C259.688 219.942 264.461 216.648 266.479 211.162C268.498 205.675 266.996 200.073 263.125 198.649C259.254 197.226 254.48 200.519 252.462 206.006C250.444 211.492 251.946 217.094 255.817 218.518Z" fill="#BA6E32"/>
<path d="M144.863 218.862C148.725 217.416 150.196 211.806 148.146 206.331C146.097 200.856 141.305 197.589 137.442 199.035C133.58 200.481 132.109 206.091 134.159 211.566C136.208 217.041 141 220.307 144.863 218.862Z" fill="#BA6E32"/>
<path d="M141.364 182.245C144.098 181.222 145.139 177.25 143.688 173.373C142.238 169.497 138.845 167.185 136.11 168.208C133.375 169.232 132.335 173.204 133.785 177.08C135.236 180.956 138.629 183.269 141.364 182.245Z" fill="#BA6E32"/>
<path d="M253.948 180.802C256.697 181.787 260.057 179.427 261.453 175.531C262.849 171.635 261.753 167.678 259.004 166.693C256.256 165.708 252.895 168.068 251.499 171.964C250.103 175.86 251.199 179.817 253.948 180.802Z" fill="#BA6E32"/>
<path d="M164.6 102.517C170.895 94.4328 169.92 83.1466 162.423 77.3084C154.925 71.4701 143.744 73.2906 137.449 81.3746C131.155 89.4585 132.129 100.745 139.627 106.583C147.124 112.421 158.305 110.601 164.6 102.517Z" fill="#DF9848"/>
<path fill-rule="evenodd" clip-rule="evenodd" d="M136.284 80.4672C143.094 71.722 155.22 69.8276 163.33 76.1431C171.441 82.4589 172.575 94.679 165.766 103.424C158.956 112.169 146.83 114.064 138.719 107.748C130.609 101.433 129.475 89.2121 136.284 80.4672ZM138.615 82.2819C132.843 89.6942 133.66 100.065 140.534 105.418C147.409 110.771 157.663 109.022 163.435 101.61C169.207 94.1974 168.391 83.8266 161.516 78.4733C154.641 73.1201 144.387 74.8697 138.615 82.2819Z" fill="#4E2F0E"/>
<path d="M159.292 98.7205C162.192 94.9967 161.743 89.7979 158.289 87.1086C154.835 84.4193 149.685 85.2579 146.785 88.9816C143.886 92.7054 144.335 97.9042 147.788 100.594C151.242 103.283 156.392 102.444 159.292 98.7205Z" fill="#BE6E31"/>
<path fill-rule="evenodd" clip-rule="evenodd" d="M145.62 88.0744C149.037 83.6867 155.127 82.7746 159.196 85.9433C163.266 89.1122 163.874 95.2401 160.457 99.6278C157.041 104.016 150.951 104.928 146.881 101.759C142.812 98.5899 142.204 92.4621 145.62 88.0744ZM147.951 89.889C145.572 92.944 145.862 97.222 148.696 99.4284C151.529 101.635 155.748 100.868 158.127 97.8132C160.506 94.7581 160.215 90.48 157.382 88.2736C154.548 86.0672 150.33 86.8339 147.951 89.889Z" fill="#4E2F0E"/>
<path d="M217.074 95.1901C210.499 87.3323 211.077 76.0188 218.364 69.9207C225.652 63.8226 236.89 65.2491 243.465 73.1069C250.04 80.9647 249.463 92.2782 242.175 98.3763C234.887 104.474 223.649 103.048 217.074 95.1901Z" fill="#DF9848"/>
<path fill-rule="evenodd" clip-rule="evenodd" d="M244.598 72.1591C251.711 80.6593 251.006 92.9123 243.123 99.5089C235.239 106.106 223.054 104.638 215.941 96.1378C208.829 87.6373 209.533 75.3849 217.417 68.7881C225.3 62.1914 237.485 63.6586 244.598 72.1591ZM242.333 74.0546C236.304 66.8498 225.994 65.4616 219.312 71.053C212.629 76.6446 212.178 87.0377 218.206 94.2426C224.235 101.447 234.545 102.835 241.227 97.2436C247.909 91.6523 248.361 81.2595 242.333 74.0546Z" fill="#4E2F0E"/>
<path d="M222.246 91.2095C219.217 87.59 219.483 82.3786 222.84 79.5696C226.197 76.7606 231.374 77.4177 234.402 81.0373C237.431 84.6568 237.165 89.8682 233.808 92.6772C230.451 95.4862 225.274 94.8291 222.246 91.2095Z" fill="#BE6E31"/>
<path fill-rule="evenodd" clip-rule="evenodd" d="M235.535 80.0896C239.104 84.3546 238.711 90.5 234.756 93.8098C230.8 97.1196 224.682 96.4222 221.113 92.1573C217.544 87.8924 217.937 81.7468 221.892 78.4369C225.848 75.1272 231.966 75.8247 235.535 80.0896ZM233.27 81.985C230.785 79.0154 226.542 78.3975 223.788 80.702C221.034 83.0066 220.893 87.2923 223.378 90.2619C225.863 93.2314 230.106 93.8492 232.861 91.5447C235.615 89.2401 235.755 84.9545 233.27 81.985Z" fill="#4E2F0E"/>
<path d="M193.895 161.398C219.333 161.398 239.955 142.407 239.955 118.98C239.955 95.5534 219.333 76.5623 193.895 76.5623C168.457 76.5623 147.835 95.5534 147.835 118.98C147.835 142.407 168.457 161.398 193.895 161.398Z" fill="#DF9848"/>
<path fill-rule="evenodd" clip-rule="evenodd" d="M193.895 75.0855C220.163 75.0855 241.432 94.7888 241.432 118.98C241.432 143.172 220.163 162.875 193.895 162.875C167.627 162.875 146.358 143.172 146.358 118.98C146.358 94.7888 167.627 75.0855 193.895 75.0855ZM193.895 78.0388C169.321 78.0388 149.312 96.3492 149.312 118.98C149.312 141.611 169.321 159.921 193.895 159.921C218.469 159.921 238.478 141.611 238.478 118.98C238.478 96.3492 218.469 78.0388 193.895 78.0388Z" fill="#4E2F0E"/>
<path d="M185.139 126.338C187.232 125.624 188.203 122.916 187.307 120.29C186.411 117.664 183.987 116.115 181.894 116.83C179.8 117.544 178.829 120.252 179.725 122.878C180.621 125.503 183.045 127.053 185.139 126.338Z" fill="#4E2F0E"/>
<path d="M213.381 123.452C215.593 123.513 217.448 121.314 217.525 118.541C217.602 115.768 215.871 113.47 213.66 113.408C211.448 113.347 209.593 115.545 209.516 118.319C209.439 121.092 211.17 123.39 213.381 123.452Z" fill="#4E2F0E"/>
<path d="M178.923 140.953C179.883 150.774 190.373 157.786 202.353 156.616C214.333 155.445 223.267 146.534 222.308 136.713C221.348 126.892 210.858 119.88 198.877 121.051C186.897 122.221 177.963 131.132 178.923 140.953Z" fill="#F8D095"/>
<path fill-rule="evenodd" clip-rule="evenodd" d="M175.436 114.09C175.436 114.09 176.702 111.531 182.206 110.323C183.403 110.06 184.712 109.354 183.607 108.495C182.702 107.79 181.858 107.296 180.157 107.488C178.455 107.68 174.91 108.53 173.866 112.781C173.866 112.781 172.896 118.009 175.436 114.09Z" fill="#4E2F0E"/>
<path fill-rule="evenodd" clip-rule="evenodd" d="M218.91 109.277C218.91 109.277 217.141 107.035 211.507 106.992C210.281 106.983 208.855 106.563 209.758 105.493C210.498 104.617 211.221 103.959 212.925 103.794C214.629 103.63 218.274 103.728 220.175 107.671C220.175 107.671 222.206 112.585 218.91 109.277Z" fill="#4E2F0E"/>
<path fill-rule="evenodd" clip-rule="evenodd" d="M203.215 144.594C205.2 143.992 208.882 142.268 211.456 137.46C211.841 136.741 212.737 136.47 213.455 136.855C214.174 137.24 214.445 138.136 214.06 138.854C209.746 146.91 202.789 147.778 202.11 147.845C201.435 147.938 194.466 148.708 188.4 141.874C187.859 141.265 187.915 140.33 188.524 139.789C189.134 139.248 190.068 139.304 190.609 139.914C194.23 143.992 198.211 144.815 200.282 144.94L199.54 138.634C195.092 138.529 191.353 135.575 190.878 131.543L190.876 131.519C190.558 128.82 194.416 126.144 199.486 125.547C204.557 124.951 208.931 126.657 209.249 129.356L209.251 129.38C209.726 133.412 206.774 137.154 202.473 138.289L203.215 144.594Z" fill="#4E2F0E"/>
<path fill-rule="evenodd" clip-rule="evenodd" d="M129.709 206.397L130.667 209.447C132.192 214.296 129.492 219.471 124.643 220.995L121.775 221.897C116.926 223.422 111.752 220.722 110.227 215.873L109.268 212.823C107.744 207.974 110.443 202.799 115.292 201.274L118.16 200.373C123.009 198.848 128.184 201.548 129.709 206.397Z" fill="#CF471C"/>
<path fill-rule="evenodd" clip-rule="evenodd" d="M131.117 205.954L132.076 209.004C133.845 214.63 130.713 220.635 125.086 222.404L122.218 223.306C116.591 225.075 110.587 221.943 108.818 216.316L107.859 213.266C106.09 207.639 109.222 201.635 114.849 199.866L117.717 198.964C123.344 197.195 129.348 200.327 131.117 205.954ZM128.3 206.84C127.02 202.768 122.675 200.501 118.603 201.782L115.735 202.683C111.663 203.963 109.397 208.308 110.677 212.38L111.636 215.43C112.916 219.502 117.261 221.768 121.332 220.488L124.2 219.586C128.272 218.306 130.539 213.961 129.259 209.89L128.3 206.84Z" fill="#4E2F0E"/>
<path d="M124.715 226.233C126.431 225.694 127.384 223.866 126.845 222.15C126.305 220.435 124.477 219.481 122.762 220.02C121.046 220.56 120.092 222.388 120.632 224.104C121.171 225.819 122.999 226.773 124.715 226.233Z" fill="#4E2F0E"/>
<path d="M108.153 173.843C109.457 173.433 108.84 167.773 106.774 161.201C104.708 154.63 101.976 149.635 100.671 150.045C99.3666 150.455 99.984 156.115 102.05 162.687C104.116 169.258 106.848 174.253 108.153 173.843Z" fill="#CF471C"/>
<path fill-rule="evenodd" clip-rule="evenodd" d="M100.228 148.636L100.971 148.55L101.464 148.643L101.875 148.812C102.301 149.031 102.81 149.458 103.331 150.115C104.779 151.942 106.668 155.941 108.183 160.759C109.697 165.576 110.436 169.936 110.294 172.263C110.243 173.1 110.07 173.741 109.846 174.166L109.605 174.539L109.255 174.897L108.596 175.252L107.852 175.338L107.36 175.245L106.949 175.076C106.522 174.856 106.013 174.43 105.493 173.772C104.045 171.946 102.156 167.947 100.641 163.129C99.1265 158.312 98.3876 153.951 98.5297 151.625C98.5808 150.788 98.7537 150.147 98.978 149.722L99.2183 149.349L99.5687 148.991L100.228 148.636ZM101.471 152.588C101.471 152.633 101.472 152.677 101.474 152.721C101.565 154.981 102.267 158.455 103.459 162.244C104.65 166.033 106.061 169.283 107.28 171.189C107.304 171.226 107.328 171.263 107.353 171.3C107.353 171.255 107.351 171.211 107.349 171.167C107.259 168.907 106.556 165.433 105.365 161.644C104.174 157.855 102.762 154.605 101.543 152.699C101.52 152.662 101.496 152.625 101.471 152.588Z" fill="#4E2F0E"/>
<path d="M101.871 153.862C104.746 152.958 106.343 149.895 105.44 147.021C104.536 144.146 101.473 142.548 98.5982 143.452C95.7235 144.356 94.1257 147.419 95.0295 150.293C95.9333 153.168 98.9963 154.766 101.871 153.862Z" fill="#CF471C"/>
<path fill-rule="evenodd" clip-rule="evenodd" d="M98.1553 142.043C101.805 140.896 105.701 142.928 106.848 146.578C107.996 150.228 105.964 154.123 102.314 155.271C98.6637 156.418 94.7682 154.387 93.6206 150.736C92.473 147.086 94.5052 143.191 98.1553 142.043ZM99.0411 144.861C96.9459 145.519 95.7796 147.755 96.4383 149.85C97.0971 151.946 99.3328 153.112 101.428 152.453C103.523 151.794 104.69 149.559 104.031 147.464C103.372 145.368 101.136 144.202 99.0411 144.861Z" fill="#4E2F0E"/>
<path fill-rule="evenodd" clip-rule="evenodd" d="M77.1845 207.724C77.0358 207.321 76.9416 206.859 76.897 206.345C76.5875 204.107 77.0022 201.75 78.0446 199.367C82.9937 183.246 106.229 167.725 106.229 167.725C106.229 167.725 134.166 167.158 147.45 177.547C149.668 178.904 151.357 180.6 152.384 182.613C152.642 183.06 152.828 183.492 152.937 183.908C152.971 184.006 153.004 184.105 153.035 184.204C156.346 194.735 142.06 208.62 121.153 215.193C100.246 221.766 80.5843 218.553 77.2736 208.023C77.2424 207.924 77.2125 207.824 77.1845 207.724Z" fill="#4085A6"/>
<path fill-rule="evenodd" clip-rule="evenodd" d="M75.7797 208.183L75.7779 208.177C75.6033 207.685 75.4854 207.128 75.4297 206.515C75.0969 204.057 75.5276 201.467 76.6572 198.855C78.7156 192.227 83.7288 185.682 89.0471 180.233C96.9212 172.165 105.409 166.497 105.409 166.497C105.644 166.341 105.918 166.255 106.199 166.249C106.199 166.249 116.404 166.04 127.478 168.151C134.957 169.577 142.813 172.075 148.291 176.33C150.714 177.827 152.549 179.704 153.679 181.902C153.989 182.445 154.212 182.972 154.349 183.473C154.382 183.569 154.414 183.665 154.444 183.761C155.897 188.384 154.382 193.628 150.427 198.679C144.877 205.766 134.472 212.554 121.596 216.602C108.72 220.65 96.3019 221.038 87.6955 218.401C81.5617 216.522 77.3179 213.088 75.8647 208.466C75.8351 208.372 75.8068 208.277 75.7797 208.183ZM78.6061 207.324C78.63 207.41 78.6558 207.495 78.6824 207.58C79.8779 211.383 83.5145 214.031 88.5606 215.577C96.7238 218.078 108.497 217.624 120.71 213.785C132.922 209.945 142.838 203.58 148.102 196.858C151.355 192.703 152.822 188.45 151.626 184.647C151.6 184.562 151.572 184.478 151.543 184.394C151.529 184.357 151.518 184.32 151.509 184.282C151.43 183.982 151.29 183.673 151.105 183.35C151.092 183.329 151.08 183.307 151.069 183.284C150.158 181.5 148.646 180.01 146.679 178.806C146.631 178.777 146.585 178.745 146.54 178.71C141.396 174.687 133.969 172.395 126.925 171.052C117.492 169.254 108.71 169.187 106.692 169.197C105.031 170.343 97.8674 175.424 91.1605 182.296C86.152 187.428 81.3728 193.558 79.4563 199.801C79.4398 199.854 79.4204 199.907 79.3976 199.959C78.4732 202.072 78.0856 204.158 78.3599 206.143C78.3633 206.168 78.366 206.193 78.3682 206.218C78.4001 206.589 78.4631 206.922 78.57 207.213C78.5835 207.25 78.5954 207.286 78.6061 207.324Z" fill="#4E2F0E"/>
<path fill-rule="evenodd" clip-rule="evenodd" d="M138.284 172.619C141.687 173.899 144.849 175.513 147.45 177.547C149.668 178.904 151.357 180.6 152.384 182.613C152.642 183.06 152.828 183.492 152.937 183.908C152.971 184.006 153.004 184.105 153.035 184.204C156.346 194.735 142.06 208.62 121.153 215.193C100.246 221.766 80.5843 218.553 77.2736 208.023C77.2424 207.924 77.2125 207.824 77.1844 207.724C77.0357 207.321 76.9416 206.859 76.897 206.345C76.5875 204.107 77.0022 201.75 78.0445 199.367C79.1099 195.897 81.0225 192.454 83.3685 189.189C92.9722 188.541 103.035 186.677 113.16 183.494C122.249 180.636 130.687 176.936 138.284 172.619Z" fill="#8FA13E"/>
<path fill-rule="evenodd" clip-rule="evenodd" d="M138.804 171.237C142.325 172.561 145.594 174.235 148.291 176.33C150.714 177.827 152.549 179.704 153.679 181.902C153.989 182.445 154.212 182.972 154.349 183.473C154.382 183.569 154.414 183.665 154.444 183.761C155.897 188.384 154.382 193.628 150.427 198.679C144.878 205.766 134.472 212.554 121.596 216.602C108.72 220.65 96.302 221.038 87.6956 218.401C81.5618 216.522 77.318 213.088 75.8648 208.466C75.8346 208.37 75.8057 208.273 75.7799 208.182C75.6039 207.689 75.4855 207.131 75.4299 206.515C75.097 204.057 75.5277 201.467 76.6578 198.854C77.7719 195.266 79.7438 191.704 82.1693 188.327C82.426 187.969 82.8295 187.745 83.269 187.715C92.7621 187.075 102.709 185.232 112.717 182.085C121.702 179.26 130.044 175.603 137.554 171.335C137.935 171.118 138.393 171.082 138.804 171.237ZM138.404 174.247C130.879 178.467 122.553 182.089 113.603 184.902C103.607 188.045 93.6719 189.916 84.1695 190.613C82.1026 193.574 80.4166 196.673 79.4564 199.801C79.4398 199.854 79.4205 199.907 79.3976 199.959C78.4733 202.072 78.0857 204.158 78.36 206.143C78.3634 206.168 78.3661 206.193 78.3683 206.218C78.4002 206.589 78.4632 206.922 78.5701 207.213C78.5835 207.25 78.5954 207.286 78.6061 207.324C78.6301 207.41 78.6558 207.495 78.6825 207.58C79.878 211.383 83.5145 214.031 88.5607 215.577C96.7239 218.078 108.497 217.624 120.71 213.785C132.922 209.945 142.838 203.58 148.102 196.858C151.355 192.703 152.822 188.45 151.626 184.647C151.6 184.562 151.572 184.478 151.543 184.394C151.53 184.357 151.518 184.32 151.509 184.282C151.43 183.982 151.29 183.673 151.105 183.35C151.092 183.329 151.08 183.307 151.069 183.284C150.158 181.5 148.646 180.01 146.679 178.806C146.631 178.777 146.585 178.745 146.54 178.71C144.215 176.892 141.418 175.431 138.404 174.247Z" fill="#4E2F0E"/>
<path fill-rule="evenodd" clip-rule="evenodd" d="M149.517 179.043C150.736 180.09 151.705 181.282 152.384 182.613C152.642 183.06 152.828 183.493 152.937 183.908C152.971 184.006 153.004 184.105 153.035 184.204C156.346 194.735 142.06 208.62 121.153 215.193C100.246 221.766 80.5842 218.553 77.2735 208.023C77.2423 207.924 77.2124 207.824 77.1844 207.724C77.0357 207.321 76.9416 206.859 76.897 206.345C76.643 204.508 76.8768 202.591 77.545 200.645C89.8596 200.836 103.216 198.936 116.684 194.702C128.975 190.838 140.077 185.432 149.517 179.043Z" fill="#F9AA2F"/>
<path fill-rule="evenodd" clip-rule="evenodd" d="M150.479 177.922C151.841 179.092 152.92 180.425 153.682 181.907C153.99 182.448 154.213 182.973 154.349 183.473C154.382 183.569 154.414 183.665 154.444 183.761C155.897 188.384 154.382 193.628 150.427 198.679C144.878 205.766 134.472 212.554 121.596 216.602C108.72 220.65 96.302 221.038 87.6956 218.401C81.5617 216.522 77.318 213.088 75.8647 208.466C75.8345 208.37 75.8057 208.273 75.7799 208.182C75.6038 207.689 75.4853 207.13 75.4301 206.518C75.1523 204.471 75.4038 202.333 76.1486 200.166C76.356 199.561 76.9292 199.159 77.568 199.169C89.7358 199.357 102.933 197.477 116.241 193.293C128.388 189.475 139.361 184.134 148.689 177.819C149.241 177.446 149.974 177.488 150.479 177.922ZM149.362 180.923C140.027 187.101 129.139 192.334 117.127 196.111C103.904 200.268 90.7877 202.198 78.6379 202.133C78.285 203.5 78.1803 204.843 78.36 206.143C78.3634 206.168 78.366 206.193 78.3683 206.218C78.4002 206.589 78.4631 206.922 78.5701 207.213C78.5835 207.25 78.5954 207.286 78.6061 207.324C78.6301 207.41 78.6558 207.495 78.6825 207.58C79.878 211.383 83.5145 214.031 88.5607 215.577C96.7239 218.078 108.497 217.624 120.71 213.785C132.922 209.945 142.838 203.58 148.102 196.858C151.355 192.703 152.822 188.45 151.626 184.647C151.6 184.562 151.572 184.478 151.543 184.394C151.53 184.357 151.518 184.32 151.509 184.282C151.43 183.982 151.29 183.673 151.105 183.35C151.092 183.329 151.08 183.307 151.069 183.284C150.633 182.43 150.059 181.643 149.362 180.923Z" fill="#4E2F0E"/>
<path fill-rule="evenodd" clip-rule="evenodd" d="M152.661 191.159C149.903 200.258 138.105 209.864 121.504 215.083C104.068 220.565 87.4988 219.24 80.5569 212.541C93.0732 212.821 106.692 210.931 120.428 206.612C132.732 202.744 143.215 197.556 152.661 191.159Z" fill="#98569A"/>
<path fill-rule="evenodd" clip-rule="evenodd" d="M154.074 191.587C151.221 201.003 139.126 211.091 121.947 216.492C111.236 219.859 100.843 220.699 92.7086 219.366C87.0673 218.441 82.4889 216.458 79.5312 213.604C79.0939 213.182 78.9597 212.534 79.1935 211.973C79.4276 211.412 79.9819 211.052 80.5896 211.065C92.9568 211.341 106.413 209.47 119.985 205.203C132.141 201.382 142.5 196.257 151.832 189.936C152.35 189.585 153.033 189.599 153.536 189.97C154.04 190.341 154.255 190.988 154.074 191.587ZM149.171 195.177C140.748 200.382 131.478 204.686 120.871 208.021C108.683 211.853 96.585 213.793 85.2506 214.022C87.4771 215.147 90.1646 215.956 93.1863 216.452C100.942 217.723 110.849 216.885 121.061 213.674C134.386 209.485 144.583 202.471 149.171 195.177Z" fill="#4E2F0E"/>
<path fill-rule="evenodd" clip-rule="evenodd" d="M104.989 163.491C110.32 161.815 113.629 162.211 114.842 166.069C116.055 169.927 113.568 172.146 108.237 173.822C102.906 175.498 99.5966 175.101 98.3838 171.243C97.1709 167.386 99.6578 165.167 104.989 163.491Z" fill="#D4442A"/>
<path fill-rule="evenodd" clip-rule="evenodd" d="M104.546 162.082C108.892 160.716 112.081 160.773 114.09 162.326C115.043 163.063 115.782 164.135 116.251 165.626C116.719 167.118 116.727 168.42 116.367 169.569C115.609 171.993 113.026 173.864 108.68 175.231C104.334 176.597 101.145 176.541 99.1355 174.987C98.1832 174.25 97.4438 173.178 96.9749 171.686C96.5061 170.195 96.499 168.893 96.8584 167.743C97.6169 165.32 100.2 163.449 104.546 162.082ZM105.432 164.9C101.159 166.243 98.8205 167.709 99.7925 170.801C100.765 173.893 103.522 173.756 107.794 172.413C112.066 171.07 114.405 169.604 113.433 166.512C112.461 163.421 109.704 163.557 105.432 164.9Z" fill="#4E2F0E"/>
<path d="M276.738 175.879L269.793 174.014L264.948 172.713C261.837 171.879 258.613 171.791 257.481 174.803L255.632 180.368L254.572 183.188L266.465 185.889L280.345 189.047L280.559 186.749L281.334 179.014C282.247 175.669 280.085 176.777 276.738 175.879Z" fill="#D4442A"/>
<path fill-rule="evenodd" clip-rule="evenodd" d="M277.122 174.452C278.813 174.906 280.205 174.858 281.059 175.114C281.454 175.233 281.784 175.4 282.053 175.609L282.371 175.904L282.64 176.265C282.992 176.846 283.183 177.765 282.792 179.279L282.03 186.891L281.816 189.184C281.777 189.608 281.557 189.994 281.212 190.243C280.868 190.493 280.433 190.582 280.018 190.487L266.139 187.33L254.246 184.628C253.83 184.534 253.475 184.264 253.273 183.888C253.071 183.513 253.041 183.068 253.191 182.669L254.241 179.875L256.081 174.338C256.087 174.32 256.093 174.302 256.1 174.284C257.517 170.513 261.437 170.243 265.331 171.287L270.177 172.588L277.122 174.452ZM280.04 177.919C279.82 177.877 279.488 177.818 279.216 177.787C278.415 177.698 277.444 177.597 276.356 177.305L269.411 175.44L264.566 174.14C263.476 173.848 262.372 173.647 261.375 173.696C260.274 173.75 259.319 174.145 258.874 175.299L257.034 180.834C257.028 180.852 257.022 180.87 257.015 180.887L256.551 182.123L266.793 184.449L279.032 187.234L279.09 186.612L279.091 186.601L279.865 178.867C279.873 178.785 279.888 178.704 279.91 178.625C279.976 178.384 280.017 178.11 280.04 177.919Z" fill="#4E2F0E"/>
<path d="M297.617 196.212C298.243 196.358 298.962 196.103 299.26 195.36C306.355 177.749 297.893 154.899 297.893 154.899L286.126 177.664C286.126 177.664 288.663 179.061 291.135 181.445C292.647 182.908 294.136 184.739 295.004 186.847C295.857 188.923 296.469 192.773 296.528 194.878C296.549 195.611 297.043 196.08 297.617 196.212Z" fill="#98569A"/>
<path fill-rule="evenodd" clip-rule="evenodd" d="M297.284 197.651C296.108 197.379 295.096 196.423 295.051 194.922L295.051 194.92C294.996 192.951 294.436 189.35 293.638 187.408C292.849 185.492 291.483 183.837 290.109 182.507C287.79 180.271 285.414 178.958 285.414 178.958C284.713 178.571 284.447 177.697 284.814 176.986L296.581 154.221C296.85 153.702 297.4 153.39 297.983 153.425C298.567 153.461 299.075 153.838 299.278 154.387C299.278 154.387 307.91 177.836 300.631 195.909C300.024 197.424 298.56 197.947 297.284 197.651ZM297.993 194.551C303.131 181.473 299.549 165.526 297.574 158.733L288.067 177.126C289.097 177.804 290.641 178.917 292.16 180.382L292.162 180.384C293.811 181.979 295.423 183.985 296.369 186.285L296.37 186.286C297.242 188.407 297.887 192.266 297.993 194.551Z" fill="#4E2F0E"/>
<path d="M235.857 178.485C235.249 178.277 234.775 177.679 234.917 176.891C238.242 158.199 257.535 143.316 257.535 143.316L255.436 168.855C255.436 168.855 252.545 168.694 249.185 169.404C247.128 169.843 244.893 170.605 243.04 171.932C241.215 173.24 238.655 176.179 237.489 177.933C237.081 178.542 236.415 178.678 235.857 178.485Z" fill="#98569A"/>
<path fill-rule="evenodd" clip-rule="evenodd" d="M235.377 179.881C234.138 179.456 233.175 178.236 233.463 176.63C236.877 157.447 256.633 142.146 256.633 142.146C257.096 141.789 257.726 141.739 258.24 142.018C258.754 142.298 259.054 142.854 259.007 143.437L256.908 168.976C256.843 169.774 256.153 170.374 255.354 170.33C255.354 170.33 252.643 170.183 249.492 170.849C247.621 171.247 245.585 171.926 243.9 173.132C242.194 174.355 239.809 177.111 238.718 178.75L238.717 178.753C237.883 180.001 236.518 180.275 235.377 179.881ZM236.42 176.877C237.726 174.992 240.317 172.067 242.18 170.732L242.18 170.731C244.202 169.284 246.633 168.438 248.877 167.96L248.88 167.959C250.945 167.523 252.844 167.398 254.077 167.37L255.772 146.735C250.495 151.446 239 163.066 236.42 176.877Z" fill="#4E2F0E"/>
<path d="M260.464 174.589L270.243 176.865L279.406 179C280.217 179.189 281.037 179.234 281.834 179.141C282.061 179.117 282.291 179.079 282.517 179.032C284.234 178.669 285.798 177.68 286.863 176.195C293.55 166.866 309.139 141.723 306.762 112.933L306.763 112.927C306.005 103.772 303.431 94.2489 298.174 84.7481C295.932 80.6962 290.565 79.6921 286.985 82.6241C282.131 86.5995 275.377 92.938 269.165 101.562C258.084 116.947 248.743 139.604 255.07 169.103C255.423 170.739 256.323 172.168 257.58 173.179C258.408 173.85 259.387 174.339 260.464 174.589Z" fill="#4085A6"/>
<path fill-rule="evenodd" clip-rule="evenodd" d="M308.239 112.88C310.623 142.083 294.847 167.591 288.063 177.055L288.063 177.056C286.778 178.847 284.893 180.039 282.823 180.477L282.817 180.478C282.547 180.534 282.272 180.579 282 180.609C281.038 180.72 280.049 180.666 279.071 180.438L269.908 178.304L260.129 176.027C258.832 175.726 257.651 175.137 256.653 174.328C255.138 173.109 254.052 171.387 253.627 169.414L253.626 169.412C247.189 139.402 256.693 116.351 267.967 100.698C274.271 91.9478 281.124 85.5157 286.049 81.4816C290.342 77.9658 296.777 79.1743 299.466 84.0331C304.834 93.7338 307.461 103.457 308.235 112.805C308.237 112.83 308.238 112.855 308.239 112.88ZM308.189 113.314C308.127 113.542 308.012 113.755 307.848 113.933C307.788 113.999 307.722 114.058 307.651 114.111C307.611 114.14 307.57 114.166 307.529 114.189C307.647 114.118 307.755 114.03 307.85 113.927C308.027 113.734 308.148 113.499 308.204 113.248L306.762 114.409C306.762 114.409 306.76 114.407 306.758 114.403C306.092 114.401 305.524 113.956 305.345 113.338C305.614 114.141 306.668 114.383 306.757 114.402C306.671 114.264 305.403 112.242 305.322 112.605C305.295 112.724 305.283 112.836 305.282 112.94C304.529 104.011 302.008 94.7267 296.882 85.4631C295.086 82.2183 290.787 81.4186 287.92 83.7666C283.138 87.6835 276.484 93.9283 270.363 102.425C259.475 117.543 250.297 139.806 256.514 168.792C256.794 170.091 257.508 171.225 258.506 172.028L258.51 172.032C259.167 172.564 259.944 172.952 260.798 173.151L270.578 175.427L279.742 177.562C280.384 177.712 281.033 177.748 281.664 177.675L281.673 177.674C281.853 177.654 282.035 177.624 282.214 177.587C283.577 177.298 284.818 176.513 285.663 175.334C292.24 166.158 307.599 141.454 305.297 113.143C305.304 113.185 305.312 113.226 305.323 113.265C305.475 113.925 306.065 114.409 306.762 114.409C307.085 114.409 307.397 114.303 307.651 114.111C307.878 113.951 308.087 113.701 308.189 113.314ZM306.769 114.403C306.821 114.402 307.178 114.388 307.529 114.189C307.302 114.327 307.04 114.402 306.769 114.403ZM305.345 113.338C305.337 113.314 305.329 113.29 305.323 113.265C305.307 113.196 305.296 113.126 305.29 113.054C305.293 113.084 305.295 113.114 305.297 113.143C305.287 113.079 305.282 113.011 305.282 112.94C305.285 112.976 305.288 113.012 305.291 113.048C305.3 113.148 305.318 113.245 305.345 113.338Z" fill="#4E2F0E"/>
<path d="M306.762 112.933L306.763 112.927C306.005 103.772 303.431 94.249 298.174 84.7481C295.932 80.6963 290.565 79.6922 286.985 82.6241C282.131 86.5996 275.377 92.938 269.165 101.562C269.165 101.562 293.37 99.5074 306.762 112.933Z" fill="#F9AA2F"/>
<path fill-rule="evenodd" clip-rule="evenodd" d="M308.204 113.248L307.759 115.82L306.762 114.409C306.37 114.409 305.993 114.253 305.716 113.976C292.748 100.976 269.29 103.033 269.29 103.033C268.715 103.082 268.165 102.792 267.88 102.29C267.596 101.788 267.63 101.166 267.967 100.698C274.271 91.9478 281.124 85.5157 286.049 81.4816C290.342 77.9658 296.777 79.1743 299.466 84.0331C304.834 93.7338 307.461 103.457 308.235 112.805C308.247 112.955 308.237 113.104 308.204 113.248ZM304.878 109.305C303.801 101.504 301.315 93.4758 296.882 85.4632C295.086 82.2183 290.788 81.4186 287.92 83.7666C283.609 87.2984 277.774 92.7228 272.182 99.984C278.708 99.9505 294.026 100.859 304.878 109.305Z" fill="#4E2F0E"/>
<path d="M275.071 134.651C280.842 138.807 288.891 137.497 293.046 131.725C297.202 125.953 295.892 117.905 290.12 113.749C284.348 109.593 276.3 110.903 272.144 116.675C267.989 122.447 269.299 130.495 275.071 134.651Z" fill="#F7F4E8"/>
<path fill-rule="evenodd" clip-rule="evenodd" d="M274.208 135.849C267.774 131.217 266.314 122.246 270.946 115.812C275.579 109.378 284.549 107.918 290.983 112.55C297.417 117.183 298.877 126.154 294.245 132.588C289.613 139.021 280.641 140.482 274.208 135.849ZM275.934 133.452C281.043 137.132 288.169 135.972 291.848 130.862C295.527 125.752 294.367 118.626 289.257 114.947C284.147 111.268 277.022 112.428 273.343 117.538C269.664 122.648 270.824 129.773 275.934 133.452Z" fill="#4E2F0E"/>
<path d="M278.267 130.212C281.587 132.602 286.216 131.849 288.607 128.529C290.997 125.208 290.244 120.579 286.924 118.188C283.603 115.798 278.974 116.551 276.583 119.872C274.193 123.192 274.946 127.821 278.267 130.212Z" fill="#4085A6"/>
<path fill-rule="evenodd" clip-rule="evenodd" d="M277.404 131.41C273.422 128.543 272.518 122.991 275.385 119.009C278.252 115.027 283.804 114.123 287.786 116.99C291.768 119.857 292.672 125.409 289.805 129.391C286.938 133.373 281.386 134.277 277.404 131.41ZM279.129 129.013C281.788 130.928 285.494 130.324 287.408 127.666C289.322 125.007 288.719 121.301 286.061 119.387C283.402 117.473 279.696 118.076 277.782 120.734C275.868 123.393 276.471 127.099 279.129 129.013Z" fill="#4E2F0E"/>
<path d="M272.226 157.486C269.005 161.761 261.672 181.698 264.958 193.107C265.308 194.319 266.909 194.597 267.65 193.576C270.593 189.517 279.346 168.55 277.198 158.608C276.692 156.262 273.669 155.569 272.226 157.486Z" fill="#98569A"/>
<path fill-rule="evenodd" clip-rule="evenodd" d="M271.046 156.597C273.25 153.671 277.868 154.714 278.642 158.296C279.539 162.452 278.667 168.457 277.037 174.431C274.639 183.222 270.656 191.946 268.845 194.443C267.386 196.456 264.228 195.906 263.539 193.516C261.833 187.594 262.829 179.456 264.724 172.246C266.612 165.059 269.38 158.809 271.046 156.597ZM273.405 158.374C271.851 160.437 269.342 166.294 267.58 172.997C265.825 179.677 264.797 187.211 266.377 192.698C266.387 192.733 266.433 192.738 266.454 192.709C268.176 190.335 271.907 182.014 274.188 173.654C275.677 168.194 276.575 162.717 275.755 158.919C275.515 157.81 274.088 157.468 273.405 158.374Z" fill="#4E2F0E"/>
<path d="M311.025 313.84C306.195 313.84 301.663 312.947 297.429 311.161C293.261 309.309 289.589 306.762 286.414 303.52C283.238 300.278 280.724 296.54 278.872 292.306C277.086 288.006 276.192 283.441 276.192 278.611C276.192 273.583 277.053 268.886 278.773 264.52C280.559 260.153 283.007 256.316 286.116 253.008C289.226 249.7 292.831 247.12 296.933 245.268C301.101 243.415 305.534 242.489 310.231 242.489C315.06 242.489 319.559 243.415 323.727 245.268C327.961 247.054 331.666 249.568 334.842 252.81C338.017 256.051 340.498 259.856 342.284 264.222C344.071 268.522 344.964 273.186 344.964 278.214C344.964 283.11 344.071 287.708 342.284 292.008C340.564 296.309 338.116 300.113 334.941 303.421C331.831 306.662 328.226 309.209 324.124 311.062C320.088 312.914 315.722 313.84 311.025 313.84ZM310.528 295.68C312.778 295.68 314.895 295.25 316.88 294.39C318.864 293.464 320.584 292.24 322.04 290.718C323.562 289.13 324.719 287.278 325.513 285.161C326.373 282.978 326.803 280.662 326.803 278.214C326.803 275.767 326.373 273.484 325.513 271.367C324.653 269.25 323.462 267.398 321.941 265.81C320.485 264.156 318.765 262.899 316.78 262.039C314.862 261.113 312.811 260.649 310.628 260.649C308.378 260.649 306.261 261.113 304.277 262.039C302.358 262.899 300.638 264.156 299.116 265.81C297.661 267.398 296.503 269.25 295.643 271.367C294.783 273.484 294.353 275.767 294.353 278.214C294.353 280.596 294.783 282.845 295.643 284.962C296.503 287.08 297.661 288.965 299.116 290.619C300.638 292.207 302.358 293.464 304.277 294.39C306.261 295.25 308.345 295.68 310.528 295.68Z" fill="#98569A"/>
<path d="M232.591 312.749C229.614 312.749 227.497 312.319 226.24 311.459C224.983 310.533 224.222 309.375 223.957 307.985C223.693 306.53 223.56 305.075 223.56 303.619V252.314C223.56 250.858 223.693 249.436 223.957 248.046C224.222 246.657 224.983 245.532 226.24 244.672C227.497 243.746 229.647 243.283 232.69 243.283C235.733 243.283 237.85 243.746 239.041 244.672C240.298 245.532 241.059 246.657 241.324 248.046C241.588 249.436 241.721 250.891 241.721 252.413V266.107L258.988 246.359C260.51 244.705 261.932 243.548 263.255 242.886C264.578 242.224 265.935 242.092 267.324 242.489C268.713 242.886 270.235 243.878 271.889 245.466C274.601 247.914 275.991 250.064 276.057 251.917C276.123 253.769 275.031 255.886 272.782 258.268L253.331 278.115L272.881 297.665C275.329 300.113 276.454 302.329 276.255 304.314C276.123 306.232 274.701 308.316 271.988 310.566C270.003 312.153 268.316 313.146 266.927 313.543C265.538 313.94 264.248 313.774 263.057 313.047C261.866 312.385 260.543 311.194 259.087 309.474L241.721 289.726V303.718C241.721 305.174 241.588 306.596 241.324 307.985C241.059 309.375 240.298 310.533 239.041 311.459C237.784 312.319 235.634 312.749 232.591 312.749Z" fill="#D4442A"/>
<path d="M211.162 243.184C212.419 243.184 213.61 243.283 214.735 243.481C215.86 243.68 216.786 244.308 217.513 245.367C218.307 246.425 218.704 248.245 218.704 250.825C218.704 253.339 218.307 255.158 217.513 256.283C216.786 257.342 215.826 257.97 214.636 258.168C213.511 258.367 212.32 258.466 211.063 258.466H197.368V303.917C197.368 305.372 197.236 306.795 196.971 308.184C196.707 309.507 195.946 310.599 194.689 311.459C193.498 312.319 191.381 312.749 188.338 312.749C185.427 312.749 183.343 312.319 182.086 311.459C180.829 310.533 180.068 309.408 179.803 308.085C179.605 306.695 179.506 305.273 179.506 303.818V258.466H165.712C164.521 258.466 163.33 258.367 162.139 258.168C161.015 257.904 160.055 257.242 159.261 256.184C158.534 255.125 158.17 253.306 158.17 250.726C158.17 248.212 158.534 246.425 159.261 245.367C160.055 244.308 161.048 243.68 162.238 243.481C163.429 243.283 164.62 243.184 165.811 243.184H211.162Z" fill="#8FA13E"/>
<path d="M170.136 300.146C171.129 302.13 171.658 303.818 171.724 305.207C171.79 306.596 171.36 307.82 170.434 308.879C169.508 309.937 168.019 310.996 165.968 312.054C162.793 313.576 160.345 314.039 158.625 313.444C156.905 312.914 155.284 311.029 153.762 307.787L136.892 273.253L120.22 307.886C118.632 310.996 116.978 312.815 115.258 313.344C113.538 313.94 111.123 313.477 108.014 311.955C105.963 310.963 104.441 309.937 103.449 308.879C102.523 307.82 102.093 306.596 102.159 305.207C102.225 303.818 102.754 302.13 103.747 300.146L128.655 248.543C129.449 246.955 130.607 245.698 132.129 244.771C133.716 243.779 135.337 243.283 136.991 243.283C138.182 243.283 139.274 243.514 140.266 243.978C141.325 244.375 142.284 244.97 143.144 245.764C144.004 246.558 144.699 247.517 145.228 248.642L170.136 300.146ZM121.212 298.359L128.754 282.879H145.129L152.671 298.359H121.212Z" fill="#4085A6"/>
<path d="M107.619 243.184C108.876 243.184 110.066 243.283 111.191 243.481C112.316 243.68 113.242 244.308 113.97 245.367C114.764 246.425 115.161 248.245 115.161 250.825C115.161 253.339 114.764 255.158 113.97 256.283C113.242 257.342 112.283 257.97 111.092 258.168C109.967 258.367 108.776 258.466 107.519 258.466H93.8246V303.917C93.8246 305.372 93.6923 306.795 93.4277 308.184C93.163 309.507 92.4022 310.599 91.1452 311.459C89.9544 312.319 87.8373 312.749 84.794 312.749C81.8831 312.749 79.7991 312.319 78.5421 311.459C77.2851 310.533 76.5243 309.408 76.2597 308.085C76.0612 306.695 75.9619 305.273 75.9619 303.818V258.466H62.168C60.9772 258.466 59.7863 258.367 58.5955 258.168C57.4708 257.904 56.5115 257.242 55.7176 256.184C54.9899 255.125 54.626 253.306 54.626 250.726C54.626 248.212 54.9899 246.425 55.7176 245.367C56.5115 244.308 57.5039 243.68 58.6947 243.481C59.8856 243.283 61.0764 243.184 62.2672 243.184H107.619Z" fill="#F9AA2F"/>
<path d="M342.392 363.298C341.476 363.298 340.797 363.126 340.355 362.781C339.913 362.437 339.692 361.967 339.692 361.372L340.024 359.822C339.771 360.229 339.345 360.715 338.745 361.278C338.145 361.811 337.356 362.296 336.377 362.734C335.398 363.141 334.214 363.345 332.825 363.345C331.341 363.345 329.936 363.048 328.61 362.453C327.316 361.826 326.163 360.981 325.153 359.916C324.174 358.82 323.385 357.583 322.785 356.206C322.217 354.796 321.933 353.293 321.933 351.696C321.933 350.162 322.217 348.722 322.785 347.375C323.385 345.997 324.19 344.776 325.2 343.711C326.211 342.647 327.363 341.817 328.658 341.222C329.984 340.596 331.373 340.283 332.825 340.283C334.12 340.283 335.209 340.455 336.093 340.799C337.009 341.144 337.782 341.582 338.414 342.114C339.045 342.615 339.566 343.148 339.976 343.711L339.692 342.349C339.692 341.66 339.913 341.144 340.355 340.799C340.797 340.424 341.492 340.236 342.439 340.236C343.323 340.236 343.955 340.377 344.333 340.658C344.712 340.909 344.949 341.269 345.044 341.739C345.139 342.177 345.186 342.678 345.186 343.242V360.433C345.186 360.965 345.139 361.451 345.044 361.889C344.949 362.327 344.697 362.672 344.286 362.922C343.907 363.173 343.276 363.298 342.392 363.298ZM333.678 357.849C334.751 357.849 335.714 357.583 336.567 357.051C337.419 356.519 338.098 355.798 338.603 354.89C339.14 353.951 339.408 352.918 339.408 351.79C339.408 350.569 339.14 349.504 338.603 348.596C338.066 347.688 337.356 346.984 336.472 346.483C335.619 345.95 334.656 345.684 333.583 345.684C332.415 345.684 331.373 345.966 330.457 346.53C329.542 347.062 328.816 347.798 328.279 348.737C327.774 349.645 327.521 350.679 327.521 351.837C327.521 352.965 327.789 353.982 328.326 354.89C328.863 355.798 329.589 356.519 330.505 357.051C331.452 357.583 332.51 357.849 333.678 357.849Z" fill="#4E2F0E"/>
<path d="M319.432 358.319C320.253 359.008 320.679 359.65 320.711 360.245C320.774 360.84 320.458 361.529 319.764 362.312C319.227 362.907 318.753 363.298 318.343 363.486C317.932 363.674 317.522 363.674 317.112 363.486C316.701 363.329 316.212 363.016 315.643 362.546L306.598 354.984V360.574C306.598 361.075 306.535 361.544 306.408 361.983C306.314 362.421 306.061 362.766 305.651 363.016C305.272 363.267 304.64 363.392 303.756 363.392C302.872 363.392 302.225 363.251 301.815 362.969C301.436 362.719 301.199 362.374 301.104 361.936C301.01 361.497 300.962 361.028 300.962 360.527V332.486C300.962 331.953 301.01 331.483 301.104 331.076C301.231 330.638 301.483 330.294 301.862 330.043C302.272 329.761 302.92 329.62 303.804 329.62C304.688 329.62 305.319 329.761 305.698 330.043C306.077 330.294 306.314 330.638 306.408 331.076C306.535 331.483 306.598 331.969 306.598 332.532V347.939L313.133 341.645C313.639 341.175 314.112 340.862 314.554 340.705C314.996 340.517 315.422 340.502 315.833 340.658C316.275 340.784 316.733 341.112 317.206 341.645C317.996 342.49 318.374 343.195 318.343 343.758C318.311 344.291 317.917 344.933 317.159 345.684L310.765 351.555L319.432 358.319Z" fill="#4E2F0E"/>
<path d="M288.136 363.486C286.62 363.486 285.136 363.235 283.684 362.734C282.263 362.202 280.969 361.435 279.801 360.433C278.664 359.431 277.748 358.21 277.054 356.769C276.391 355.297 276.059 353.638 276.059 351.79C276.059 349.943 276.391 348.299 277.054 346.858C277.748 345.418 278.664 344.197 279.801 343.195C280.937 342.193 282.216 341.426 283.637 340.893C285.057 340.361 286.526 340.095 288.041 340.095C289.146 340.095 290.188 340.251 291.167 340.564C292.177 340.878 293.045 341.253 293.771 341.692C294.498 342.13 295.019 342.568 295.334 343.007C295.745 343.383 296.092 343.743 296.376 344.087C296.66 344.432 296.755 344.854 296.66 345.355C296.566 345.669 296.424 345.966 296.234 346.248C296.045 346.498 295.808 346.764 295.524 347.046C294.766 347.892 294.024 348.205 293.298 347.986C292.887 347.767 292.477 347.532 292.067 347.281C291.656 347.031 291.23 346.796 290.788 346.577C290.377 346.326 289.951 346.123 289.509 345.966C289.067 345.809 288.578 345.731 288.041 345.731C286.841 345.731 285.768 345.997 284.821 346.53C283.905 347.031 283.179 347.735 282.642 348.643C282.137 349.551 281.884 350.6 281.884 351.79C281.884 352.98 282.137 354.045 282.642 354.984C283.179 355.892 283.905 356.613 284.821 357.145C285.736 357.646 286.778 357.896 287.946 357.896C288.515 357.896 289.051 357.834 289.557 357.709C290.093 357.552 290.567 357.364 290.977 357.145C291.388 356.894 291.719 356.644 291.972 356.393C292.319 356.174 292.635 355.971 292.919 355.783C293.203 355.595 293.503 355.501 293.819 355.501C294.198 355.501 294.561 355.642 294.908 355.924C295.287 356.174 295.697 356.581 296.139 357.145C296.55 357.615 296.771 358.069 296.802 358.507C296.866 358.945 296.771 359.368 296.518 359.775C296.297 360.182 295.918 360.558 295.382 360.903C295.003 361.278 294.434 361.67 293.677 362.077C292.951 362.453 292.098 362.781 291.119 363.063C290.172 363.345 289.178 363.486 288.136 363.486Z" fill="#4E2F0E"/>
<path d="M262.606 363.674C260.554 363.674 258.754 363.345 257.207 362.687C255.692 362.03 254.413 361.137 253.371 360.01C252.361 358.852 251.587 357.568 251.051 356.159C250.546 354.718 250.293 353.231 250.293 351.696C250.293 349.442 250.814 347.438 251.856 345.684C252.898 343.931 254.334 342.553 256.165 341.551C258.028 340.549 260.159 340.048 262.559 340.048C264.264 340.048 265.764 340.314 267.058 340.846C268.353 341.379 269.426 342.083 270.278 342.96C271.162 343.805 271.826 344.745 272.268 345.778C272.741 346.811 272.978 347.814 272.978 348.784C272.978 350.444 272.567 351.649 271.747 352.401C270.957 353.152 269.963 353.528 268.763 353.528H256.26C256.292 354.593 256.623 355.517 257.255 356.299C257.918 357.082 258.739 357.693 259.717 358.131C260.728 358.538 261.754 358.742 262.796 358.742C263.585 358.742 264.28 358.695 264.88 358.601C265.511 358.507 266.048 358.397 266.49 358.272C266.932 358.116 267.311 357.959 267.626 357.803C267.974 357.646 268.289 357.505 268.574 357.38C268.858 357.255 269.126 357.176 269.379 357.145C269.726 357.114 270.073 357.192 270.421 357.38C270.768 357.568 271.052 357.896 271.273 358.366C271.462 358.679 271.589 358.977 271.652 359.259C271.747 359.509 271.794 359.76 271.794 360.01C271.794 360.636 271.415 361.231 270.657 361.795C269.9 362.327 268.826 362.766 267.437 363.11C266.079 363.486 264.469 363.674 262.606 363.674ZM256.26 350.193H265.969C266.506 350.193 266.916 350.115 267.2 349.958C267.484 349.771 267.626 349.395 267.626 348.831C267.626 348.111 267.405 347.469 266.963 346.905C266.521 346.31 265.921 345.856 265.164 345.543C264.406 345.199 263.522 345.027 262.512 345.027C261.343 345.027 260.286 345.261 259.339 345.731C258.391 346.17 257.634 346.78 257.065 347.563C256.529 348.346 256.26 349.223 256.26 350.193Z" fill="#4E2F0E"/>
<path d="M243.312 363.392C242.46 363.392 241.828 363.251 241.418 362.969C241.007 362.719 240.755 362.39 240.66 361.983C240.565 361.544 240.518 361.059 240.518 360.527V343.054C240.518 342.553 240.565 342.099 240.66 341.692C240.786 341.253 241.039 340.909 241.418 340.658C241.828 340.408 242.476 340.283 243.36 340.283C244.244 340.283 244.875 340.408 245.254 340.658C245.664 340.909 245.917 341.253 246.012 341.692C246.106 342.13 246.154 342.615 246.154 343.148V360.574C246.154 361.106 246.106 361.591 246.012 362.03C245.917 362.437 245.664 362.766 245.254 363.016C244.875 363.267 244.228 363.392 243.312 363.392ZM243.312 335.726C242.397 335.726 241.718 335.601 241.276 335.351C240.865 335.069 240.597 334.693 240.471 334.223C240.376 333.754 240.329 333.237 240.329 332.673C240.329 332.078 240.376 331.562 240.471 331.123C240.597 330.685 240.881 330.341 241.323 330.09C241.765 329.808 242.444 329.667 243.36 329.667C244.307 329.667 244.986 329.808 245.396 330.09C245.806 330.372 246.075 330.748 246.201 331.217C246.327 331.656 246.391 332.172 246.391 332.767C246.391 333.3 246.327 333.801 246.201 334.27C246.075 334.74 245.806 335.1 245.396 335.351C244.986 335.601 244.291 335.726 243.312 335.726Z" fill="#4E2F0E"/>
<path d="M216.643 363.392C215.79 363.392 215.112 363.141 214.606 362.64C214.101 362.108 213.849 361.435 213.849 360.621C213.849 360.182 213.912 359.791 214.038 359.446C214.196 359.102 214.417 358.789 214.701 358.507L227.062 345.872H217.732C217.227 345.872 216.753 345.825 216.311 345.731C215.869 345.606 215.506 345.355 215.222 344.98C214.97 344.573 214.843 343.931 214.843 343.054C214.843 342.177 214.97 341.551 215.222 341.175C215.506 340.768 215.869 340.517 216.311 340.424C216.753 340.298 217.227 340.236 217.732 340.236H233.029C233.85 340.236 234.513 340.486 235.018 340.987C235.555 341.488 235.823 342.146 235.823 342.96C235.823 343.367 235.744 343.758 235.587 344.134C235.46 344.479 235.287 344.76 235.066 344.98L222.847 357.756H233.597C234.134 357.756 234.608 357.818 235.018 357.943C235.46 358.037 235.808 358.288 236.06 358.695C236.313 359.102 236.439 359.744 236.439 360.621C236.439 361.466 236.297 362.092 236.013 362.5C235.76 362.907 235.413 363.157 234.971 363.251C234.56 363.345 234.087 363.392 233.55 363.392H216.643Z" fill="#4E2F0E"/>
<path d="M186.515 363.345C185.694 363.345 185.079 363.204 184.668 362.922C184.258 362.672 183.989 362.327 183.863 361.889C183.737 361.451 183.674 360.981 183.674 360.48V333.331C183.674 332.83 183.721 332.376 183.816 331.969C183.942 331.531 184.21 331.186 184.621 330.936C185.031 330.654 185.679 330.513 186.563 330.513L195.466 330.56C197.771 330.56 199.886 330.951 201.812 331.734C203.77 332.517 205.459 333.629 206.88 335.069C208.3 336.509 209.39 338.232 210.147 340.236C210.937 342.208 211.331 344.385 211.331 346.765C211.331 349.207 210.937 351.446 210.147 353.481C209.358 355.517 208.253 357.27 206.832 358.742C205.411 360.214 203.722 361.357 201.765 362.171C199.839 362.954 197.692 363.345 195.324 363.345H186.515ZM189.404 357.662H195.466C197.487 357.662 199.255 357.223 200.77 356.346C202.286 355.438 203.454 354.186 204.275 352.589C205.127 350.992 205.554 349.129 205.554 346.999C205.554 344.839 205.127 342.96 204.275 341.363C203.454 339.735 202.27 338.482 200.723 337.605C199.207 336.697 197.439 336.243 195.419 336.243H189.404V357.662Z" fill="#4E2F0E"/>
<path d="M164.749 363.392C163.202 363.392 161.876 363.235 160.771 362.922C159.666 362.609 158.766 362.124 158.071 361.466C157.377 360.809 156.856 359.963 156.508 358.93C156.193 357.865 156.035 356.613 156.035 355.172V335.257C156.035 334.693 156.082 334.208 156.177 333.801C156.303 333.394 156.556 333.081 156.935 332.861C157.345 332.611 157.977 332.486 158.829 332.486C159.713 332.486 160.345 332.611 160.723 332.861C161.134 333.112 161.386 333.456 161.481 333.895C161.607 334.302 161.671 334.756 161.671 335.257V354.984C161.671 355.642 161.718 356.174 161.813 356.581C161.939 356.988 162.113 357.302 162.334 357.521C162.586 357.709 162.902 357.849 163.281 357.943C163.691 358.006 164.181 358.037 164.749 358.037C165.349 358.037 165.854 358.084 166.264 358.178C166.706 358.272 167.038 358.507 167.259 358.883C167.48 359.227 167.59 359.807 167.59 360.621C167.59 361.498 167.448 362.139 167.164 362.547C166.912 362.922 166.564 363.157 166.122 363.251C165.712 363.345 165.254 363.392 164.749 363.392ZM154.093 340.705L158.971 340.752L165.507 340.564C166.043 340.564 166.517 340.627 166.927 340.752C167.369 340.846 167.717 341.097 167.969 341.504C168.222 341.88 168.348 342.506 168.348 343.383C168.348 344.197 168.222 344.807 167.969 345.214C167.717 345.622 167.385 345.888 166.975 346.013C166.564 346.107 166.091 346.154 165.554 346.154L159.208 346.06L153.951 346.107C153.162 346.076 152.609 345.856 152.293 345.449C152.009 345.011 151.867 344.306 151.867 343.336C151.867 342.428 152.041 341.77 152.388 341.363C152.767 340.925 153.335 340.705 154.093 340.705Z" fill="#4E2F0E"/>
<path d="M145.695 363.298C144.779 363.298 144.1 363.126 143.658 362.781C143.216 362.437 142.995 361.967 142.995 361.372L143.327 359.822C143.074 360.229 142.648 360.715 142.048 361.278C141.448 361.811 140.659 362.296 139.68 362.734C138.701 363.141 137.517 363.345 136.128 363.345C134.644 363.345 133.239 363.048 131.913 362.453C130.619 361.826 129.466 360.981 128.456 359.916C127.477 358.82 126.688 357.583 126.088 356.206C125.52 354.796 125.236 353.293 125.236 351.696C125.236 350.162 125.52 348.722 126.088 347.375C126.688 345.997 127.493 344.776 128.503 343.711C129.514 342.647 130.666 341.817 131.961 341.222C133.287 340.596 134.676 340.283 136.128 340.283C137.423 340.283 138.512 340.455 139.396 340.799C140.312 341.144 141.085 341.582 141.716 342.114C142.348 342.615 142.869 343.148 143.279 343.711L142.995 342.349C142.995 341.66 143.216 341.144 143.658 340.799C144.1 340.424 144.795 340.236 145.742 340.236C146.626 340.236 147.257 340.377 147.636 340.658C148.015 340.909 148.252 341.269 148.347 341.739C148.441 342.177 148.489 342.678 148.489 343.242V360.433C148.489 360.965 148.441 361.451 148.347 361.889C148.252 362.327 147.999 362.672 147.589 362.922C147.21 363.173 146.579 363.298 145.695 363.298ZM136.981 357.849C138.054 357.849 139.017 357.583 139.869 357.051C140.722 356.519 141.401 355.798 141.906 354.89C142.443 353.951 142.711 352.918 142.711 351.79C142.711 350.569 142.443 349.504 141.906 348.596C141.369 347.688 140.659 346.984 139.775 346.483C138.922 345.95 137.959 345.684 136.886 345.684C135.718 345.684 134.676 345.966 133.76 346.53C132.845 347.062 132.118 347.798 131.582 348.737C131.077 349.645 130.824 350.679 130.824 351.837C130.824 352.965 131.092 353.982 131.629 354.89C132.166 355.798 132.892 356.519 133.808 357.051C134.755 357.583 135.812 357.849 136.981 357.849Z" fill="#4E2F0E"/>
<path d="M118.717 363.392C117.865 363.392 117.233 363.251 116.823 362.969C116.413 362.719 116.16 362.39 116.065 361.983C115.971 361.544 115.923 361.059 115.923 360.527V343.054C115.923 342.553 115.971 342.099 116.065 341.692C116.192 341.253 116.444 340.909 116.823 340.658C117.233 340.408 117.881 340.283 118.765 340.283C119.649 340.283 120.28 340.408 120.659 340.658C121.07 340.909 121.322 341.253 121.417 341.692C121.512 342.13 121.559 342.615 121.559 343.148V360.574C121.559 361.106 121.512 361.591 121.417 362.03C121.322 362.437 121.07 362.766 120.659 363.016C120.28 363.267 119.633 363.392 118.717 363.392ZM118.717 335.726C117.802 335.726 117.123 335.601 116.681 335.351C116.271 335.069 116.002 334.693 115.876 334.223C115.781 333.754 115.734 333.237 115.734 332.673C115.734 332.078 115.781 331.562 115.876 331.123C116.002 330.685 116.286 330.341 116.728 330.09C117.17 329.808 117.849 329.667 118.765 329.667C119.712 329.667 120.391 329.808 120.801 330.09C121.212 330.372 121.48 330.748 121.606 331.217C121.733 331.656 121.796 332.172 121.796 332.767C121.796 333.3 121.733 333.801 121.606 334.27C121.48 334.74 121.212 335.1 120.801 335.351C120.391 335.601 119.696 335.726 118.717 335.726Z" fill="#4E2F0E"/>
<path d="M88.4605 363.345C87.8291 363.345 87.3239 363.22 86.9451 362.969C86.5978 362.75 86.3294 362.468 86.14 362.124C85.9821 361.779 85.84 361.466 85.7137 361.184L78.752 343.711C78.5625 343.117 78.4678 342.615 78.4678 342.208C78.4994 341.801 78.6572 341.457 78.9414 341.175C79.2571 340.862 79.7149 340.596 80.3148 340.377C81.3251 339.969 82.1144 339.86 82.6828 340.048C83.2826 340.236 83.7246 340.768 84.0088 341.645L88.5079 353.481L92.5808 342.161C92.6755 341.88 92.8176 341.582 93.007 341.269C93.1964 340.956 93.4648 340.69 93.8121 340.471C94.191 340.22 94.6961 340.095 95.3276 340.095C95.9906 340.095 96.5116 340.22 96.8904 340.471C97.2693 340.69 97.5535 340.956 97.7429 341.269C97.9639 341.582 98.106 341.88 98.1691 342.161L102.242 353.575L106.552 342.068C106.931 341.097 107.404 340.455 107.972 340.142C108.541 339.829 109.314 339.86 110.293 340.236C111.177 340.611 111.777 341.081 112.093 341.645C112.408 342.177 112.377 342.882 111.998 343.758L104.989 361.184C104.863 361.498 104.705 361.826 104.515 362.171C104.357 362.484 104.089 362.75 103.71 362.969C103.363 363.22 102.889 363.345 102.289 363.345C101.658 363.345 101.153 363.235 100.774 363.016C100.427 362.828 100.158 362.562 99.9688 362.218C99.7793 361.873 99.6215 361.513 99.4952 361.137L95.375 349.536L91.2547 361.137C91.0653 361.576 90.8916 361.967 90.7338 362.312C90.5759 362.656 90.3233 362.907 89.976 363.063C89.6287 363.251 89.1236 363.345 88.4605 363.345Z" fill="#4E2F0E"/>
<path d="M64.2143 328.352C63.7091 328.446 63.2829 328.352 62.9356 328.07C62.6198 327.789 62.3515 327.288 62.1305 326.567C61.8463 325.691 61.7832 325.033 61.941 324.595C62.1305 324.125 62.6198 323.765 63.4092 323.514L71.3655 321.025C71.8706 320.931 72.2811 321.04 72.5968 321.354C72.9441 321.635 73.2125 322.136 73.4019 322.857C73.7176 323.702 73.765 324.36 73.544 324.829C73.3545 325.268 72.881 325.612 72.1232 325.863L64.2143 328.352Z" fill="#4E2F0E"/>
<path d="M65.7032 363.815C64.2824 363.815 62.9879 363.642 61.8197 363.298C60.6831 362.954 59.6728 362.515 58.7887 361.983C57.9363 361.451 57.2101 360.903 56.6102 360.339C56.0104 359.775 55.5683 359.259 55.2842 358.789C54.8737 358.225 54.6054 357.724 54.4791 357.286C54.3528 356.847 54.3844 356.425 54.5738 356.018C54.7948 355.579 55.1895 355.125 55.7578 354.656C56.3261 354.155 56.847 353.904 57.3206 353.904C57.8258 353.873 58.2994 354.014 58.7414 354.327C59.215 354.64 59.6728 355.078 60.1148 355.642C60.8725 356.644 61.725 357.364 62.6722 357.803C63.6194 358.21 64.5665 358.413 65.5137 358.413C66.7451 358.413 67.8185 358.257 68.7341 357.943C69.6497 357.599 70.3601 357.098 70.8653 356.44C71.402 355.783 71.6704 354.937 71.6704 353.904C71.6704 353.059 71.402 352.37 70.8653 351.837C70.3601 351.274 69.6813 350.804 68.8288 350.428C67.9764 350.021 67.0134 349.661 65.94 349.348C64.8981 349.003 63.8404 348.628 62.7669 348.221C62.0092 347.97 61.2514 347.673 60.4937 347.328C59.7359 346.952 59.0255 346.53 58.3625 346.06C57.7311 345.59 57.1628 345.042 56.6576 344.416C56.184 343.758 55.8051 343.007 55.521 342.161C55.2368 341.316 55.0947 340.33 55.0947 339.202C55.0947 337.417 55.5368 335.852 56.4208 334.505C57.3048 333.128 58.5362 332.047 60.1148 331.264C61.6934 330.45 63.4931 330.043 65.5137 330.043C66.8082 330.043 67.9606 330.168 68.9709 330.419C70.0128 330.638 70.8969 330.936 71.623 331.311C72.3808 331.656 72.9964 332.016 73.47 332.392C73.9752 332.736 74.3383 333.034 74.5593 333.284C75.2855 334.004 75.6801 334.615 75.7433 335.116C75.838 335.586 75.5538 336.228 74.8908 337.042C74.2278 337.887 73.5805 338.357 72.9491 338.451C72.3492 338.513 71.6704 338.263 70.9126 337.699C70.4075 337.167 69.9023 336.744 69.3972 336.431C68.892 336.087 68.3237 335.836 67.6922 335.68C67.0924 335.523 66.3504 335.445 65.4664 335.445C64.8349 335.445 64.2192 335.539 63.6194 335.727C63.0511 335.883 62.5617 336.134 62.1512 336.478C61.7408 336.791 61.4093 337.183 61.1567 337.652C60.9357 338.122 60.8252 338.654 60.8252 339.249C60.8252 340.063 61.0462 340.737 61.4882 341.269C61.9618 341.77 62.5933 342.193 63.3826 342.537C64.1719 342.85 65.0559 343.148 66.0347 343.43C67.0134 343.711 68.008 344.009 69.0183 344.322C70.0602 344.667 71.0863 345.074 72.0966 345.543C73.1069 346.013 74.0068 346.608 74.7961 347.328C75.5854 348.017 76.2169 348.894 76.6904 349.959C77.164 350.992 77.4008 352.26 77.4008 353.763C77.4008 355.485 77.0693 356.988 76.4063 358.272C75.7433 359.556 74.8434 360.605 73.7068 361.419C72.5702 362.233 71.3073 362.828 69.9181 363.204C68.5289 363.611 67.1239 363.815 65.7032 363.815Z" fill="#4E2F0E"/>
</svg>
