<svg width="24" height="24" viewBox="0 0 24 24" fill="none" xmlns="http://www.w3.org/2000/svg">
<path d="M4.222 13.25L12 20.75L19.778 13.25C21.128 12.2335 22 10.622 22 8.8055C22 5.739 19.511 3.25 16.4445 3.25C14.628 3.25 13.011 4.128 12 5.478C10.989 4.128 9.372 3.25 7.5555 3.25C4.489 3.25 2 5.739 2 8.8055C2 10.622 2.872 12.2335 4.222 13.25ZM7.5555 5.25C8.6835 5.25 9.72 5.77 10.399 6.6765L12 8.814L13.601 6.6765C14.28 5.77 15.3165 5.25 16.4445 5.25C18.405 5.25 20 6.845 20 8.8055C20 9.9325 19.4805 10.97 18.5745 11.6525L18.477 11.726L18.389 11.8105L12 17.9715L5.6105 11.8105L5.5225 11.726L5.425 11.6525C4.5195 10.97 4 9.9325 4 8.8055C4 6.845 5.595 5.25 7.5555 5.25Z" fill="white"/>
</svg>
