<svg width="24" height="24" viewBox="0 0 24 24" fill="none" xmlns="http://www.w3.org/2000/svg">
<path d="M11 18H9V12H11V18Z" fill="#35322D"/>
<path d="M11 18H9V12H11V18Z" fill="black" fill-opacity="0.2"/>
<path d="M15 12V18H13V12H15Z" fill="#35322D"/>
<path d="M15 12V18H13V12H15Z" fill="black" fill-opacity="0.2"/>
<path fill-rule="evenodd" clip-rule="evenodd" d="M16.125 8H22L19 22H5L2 8H7.875L12 2L16.125 8ZM6.61719 20H17.3828L19.5264 10H4.47363L6.61719 20ZM10.3018 8H13.6982L12 5.53027L10.3018 8Z" fill="#35322D"/>
<path fill-rule="evenodd" clip-rule="evenodd" d="M16.125 8H22L19 22H5L2 8H7.875L12 2L16.125 8ZM6.61719 20H17.3828L19.5264 10H4.47363L6.61719 20ZM10.3018 8H13.6982L12 5.53027L10.3018 8Z" fill="black" fill-opacity="0.2"/>
</svg>
