<svg width="75" height="52" viewBox="0 0 75 52" fill="none" xmlns="http://www.w3.org/2000/svg">
<path fill-rule="evenodd" clip-rule="evenodd" d="M43.4227 25.3315C43.4227 25.3315 63.8201 27.4496 60.172 36.0708C56.5239 44.692 43.193 30.0541 43.4227 25.3315Z" fill="#DF9848"/>
<path fill-rule="evenodd" clip-rule="evenodd" d="M42.9502 25.3094C42.9502 25.3091 42.9502 25.3098 42.9502 25.3094C42.9506 25.3008 42.9512 25.2913 42.9522 25.2826C42.978 25.0331 43.1951 24.8468 43.4456 24.859C43.4543 24.8594 43.4629 24.8602 43.4715 24.861C43.4719 24.861 43.4725 24.8611 43.4736 24.8612C43.6123 24.8759 50.9563 25.6607 56.059 28.1408C59.7019 29.9114 62.1753 32.5505 60.6077 36.2551C59.9581 37.7903 59.0159 38.6467 57.9205 39.0078C56.3337 39.5308 54.3679 38.9857 52.3879 37.7789C49.0976 35.7735 45.7364 31.9708 44.065 28.8768C43.3124 27.4837 42.9062 26.2212 42.9502 25.3094ZM43.9221 25.8673C44.0659 26.9014 44.7251 28.2718 45.6754 29.7281C47.4184 32.399 50.1725 35.3207 52.8803 36.9711C54.5847 38.01 56.2584 38.5596 57.6244 38.1093C58.4976 37.8216 59.2186 37.1101 59.7363 35.8865C61.0874 32.6937 58.785 30.5175 55.6454 28.9916C51.4515 26.9533 45.7028 26.0948 43.9221 25.8673Z" fill="#4E2F0E"/>
<path fill-rule="evenodd" clip-rule="evenodd" d="M44.334 50.9993C47.5773 45.4048 56.4806 37.224 60.7762 41.1939C64.6952 44.816 60.9821 51.1297 55.6136 50.9993L44.334 50.9993Z" fill="#DF9848"/>
<path fill-rule="evenodd" clip-rule="evenodd" d="M43.9248 50.762C45.9074 47.3421 49.9688 42.9761 53.8437 40.9021C56.5846 39.4351 59.2399 39.13 61.0973 40.8465C65.3265 44.7551 61.4002 51.6081 55.6082 51.4723L44.334 51.4723C44.1648 51.4722 44.0086 51.3819 43.9241 51.2355C43.8397 51.0889 43.84 50.9084 43.9248 50.762ZM45.1768 50.5263L55.6136 50.5263L55.6251 50.5263C60.5671 50.6465 64.0629 44.8756 60.4552 41.5413C58.8758 40.0817 56.6209 40.4888 54.2902 41.7361C50.822 43.5925 47.2034 47.3596 45.1768 50.5263Z" fill="#4E2F0E"/>
<path fill-rule="evenodd" clip-rule="evenodd" d="M35.6892 50.9993C32.4459 45.4048 23.5425 37.224 19.247 41.1939C15.3279 44.816 19.0411 51.1297 24.4096 50.9993L35.6892 50.9993Z" fill="#DF9848"/>
<path fill-rule="evenodd" clip-rule="evenodd" d="M35.6894 51.4723L24.4201 51.4722C18.6256 51.6121 14.6957 44.7562 18.9261 40.8465C20.7835 39.13 23.4389 39.4351 26.1797 40.9021C30.0546 42.9761 34.116 47.3421 36.0986 50.762C36.1835 50.9084 36.1838 51.0889 36.0993 51.2355C36.0149 51.3819 35.8586 51.4722 35.6894 51.4723ZM34.8467 50.5263C32.8201 47.3596 29.2014 43.5925 25.7333 41.7361C23.4026 40.4888 21.1477 40.0817 19.5682 41.5413C15.9605 44.8756 19.4564 50.6465 24.3983 50.5263L24.4099 50.5263L34.8467 50.5263Z" fill="#4E2F0E"/>
<path fill-rule="evenodd" clip-rule="evenodd" d="M34.8972 25.3787C34.8972 25.3787 14.5249 27.7255 18.2696 36.3052C22.0142 44.8849 35.1799 30.0983 34.8972 25.3787Z" fill="#DF9848"/>
<path fill-rule="evenodd" clip-rule="evenodd" d="M34.8409 24.909C34.8419 24.9089 34.8426 24.9087 34.8429 24.9087C34.8515 24.9078 34.8601 24.9069 34.8688 24.9064C35.1191 24.8914 35.3384 25.0752 35.3669 25.3245C35.368 25.3331 35.3687 25.3417 35.3692 25.3504C35.3692 25.35 35.3692 25.3507 35.3692 25.3504C35.4235 26.2616 35.0314 27.5295 34.2945 28.9309C32.6579 32.0435 29.3396 35.8837 26.0721 37.9258C24.1057 39.1548 22.1461 39.722 20.5536 39.2167C19.4542 38.868 18.5025 38.0222 17.8357 36.4944C16.2266 32.8076 18.6702 30.1409 22.293 28.3296C27.3675 25.7924 34.7023 24.9252 34.8409 24.909ZM34.4037 25.92C32.6256 26.1675 26.8869 27.0904 22.7161 29.1757C19.5938 30.7367 17.316 32.9386 18.7028 36.116C19.2343 37.3338 19.9632 38.0371 20.8396 38.315C22.2105 38.7499 23.878 38.1815 25.5706 37.1236C28.2598 35.443 30.9809 32.4905 32.6938 29.8002C33.6276 28.3334 34.2714 26.9557 34.4037 25.92Z" fill="#4E2F0E"/>
<path fill-rule="evenodd" clip-rule="evenodd" d="M45.3351 50.955C45.3351 50.955 59.0108 47.2185 46.616 26.6659C36.4875 9.87113 31.3957 24.5501 31.3957 24.5501C31.3957 24.5501 22.3456 49.8639 33.1478 50.9916C39.1275 51.6158 45.3351 50.955 45.3351 50.955Z" fill="#DF9848"/>
<path fill-rule="evenodd" clip-rule="evenodd" d="M45.385 51.4253C45.385 51.4253 39.1269 52.0914 33.0986 51.462C29.6239 51.0993 28.0165 48.443 27.5365 44.8455C26.4876 36.9826 30.8924 24.5529 30.9495 24.3924C30.978 24.3113 31.6629 22.3812 33.0029 20.7013C33.9517 19.5116 35.2267 18.4583 36.8061 18.199C38.1249 17.9825 39.6699 18.3071 41.4263 19.6175C43.0829 20.8533 44.9524 22.9919 47.0209 26.4216C53.3592 36.9315 52.9528 43.1576 51.0407 46.7404C49.0698 50.4336 45.4596 51.4113 45.4596 51.4113C45.4351 51.418 45.4102 51.4227 45.385 51.4253ZM45.2434 50.4889C45.6663 50.3605 49.9232 48.953 51.0584 43.989C51.883 40.3834 51.0724 34.9715 46.2108 26.9102C44.2277 23.622 42.4489 21.5606 40.8606 20.3758C39.3726 19.2656 38.0767 18.9492 36.9593 19.1326C35.6153 19.3532 34.5499 20.2788 33.7424 21.2911C32.4769 22.8778 31.8424 24.7051 31.8424 24.7051L31.8409 24.7093C31.8409 24.7093 27.4411 36.9763 28.4742 44.7204C28.8896 47.8336 30.1899 50.2072 33.1968 50.5211C38.8444 51.1108 44.6972 50.5444 45.2434 50.4889Z" fill="#4E2F0E"/>
<path d="M48.1024 43.347C48.0107 40.2193 44.3139 37.7901 39.8455 37.9211C35.3771 38.0522 31.829 40.6939 31.9208 43.8216C32.0125 46.9492 35.7092 49.3784 40.1777 49.2474C44.6461 49.1163 48.1941 46.4746 48.1024 43.347Z" fill="#BA6E32"/>
<path d="M57.8159 49.2807C59.0558 49.7367 60.5849 48.6818 61.2313 46.9244C61.8778 45.167 61.3967 43.3726 60.1568 42.9165C58.917 42.4605 57.3878 43.5154 56.7414 45.2728C56.095 47.0302 56.5761 48.8246 57.8159 49.2807Z" fill="#BA6E32"/>
<path d="M22.2757 49.3908C23.5129 48.9277 23.9838 47.1306 23.3275 45.3769C22.6711 43.6232 21.136 42.5769 19.8987 43.04C18.6615 43.5031 18.1906 45.3001 18.8469 47.0538C19.5033 48.8076 21.0384 49.8538 22.2757 49.3908Z" fill="#BA6E32"/>
<path d="M21.1547 37.662C22.0307 37.3341 22.364 36.0619 21.8994 34.8203C21.4347 33.5787 20.3479 32.8379 19.4719 33.1658C18.596 33.4936 18.2626 34.7659 18.7273 36.0075C19.1919 37.2491 20.2788 37.9898 21.1547 37.662Z" fill="#BA6E32"/>
<path d="M57.2174 37.1997C58.0978 37.5153 59.1741 36.7594 59.6214 35.5114C60.0686 34.2634 59.7174 32.9959 58.837 32.6804C57.9565 32.3649 56.8802 33.1208 56.4329 34.3687C55.9857 35.6167 56.3369 36.8842 57.2174 37.1997Z" fill="#BA6E32"/>
<path d="M28.598 12.1238C30.6143 9.53435 30.3021 5.91921 27.9005 4.04912C25.4989 2.17903 21.9175 2.76217 19.9011 5.35159C17.8848 7.94102 18.197 11.5562 20.5986 13.4262C23.0002 15.2963 26.5816 14.7132 28.598 12.1238Z" fill="#DF9848"/>
<path fill-rule="evenodd" clip-rule="evenodd" d="M19.5277 5.06093C21.709 2.25972 25.5931 1.6529 28.191 3.67587C30.789 5.69891 31.1524 9.61319 28.9711 12.4144C26.7899 15.2155 22.9058 15.8225 20.3078 13.7995C17.7099 11.7765 17.3465 7.86206 19.5277 5.06093ZM20.2742 5.64223C18.4254 8.0165 18.6871 11.3383 20.8891 13.053C23.0912 14.7678 26.3758 14.2075 28.2247 11.8332C30.0735 9.45893 29.8119 6.13702 27.6098 4.42225C25.4078 2.70756 22.1231 3.26796 20.2742 5.64223Z" fill="#4E2F0E"/>
<path d="M26.8976 10.9077C27.8264 9.71497 27.6826 8.04971 26.5763 7.18828C25.4701 6.32685 23.8203 6.59547 22.8915 7.78824C21.9627 8.98102 22.1066 10.6463 23.2128 11.5077C24.319 12.3691 25.9688 12.1005 26.8976 10.9077Z" fill="#BE6E31"/>
<path fill-rule="evenodd" clip-rule="evenodd" d="M22.5184 7.49765C23.6128 6.0922 25.5635 5.80004 26.867 6.81503C28.1705 7.83007 28.3653 9.79295 27.2709 11.1984C26.1764 12.6038 24.2257 12.896 22.9222 11.8809C21.6187 10.8659 21.4239 8.9031 22.5184 7.49765ZM23.2648 8.07889C22.5028 9.05745 22.5959 10.4278 23.5034 11.1345C24.411 11.8412 25.7624 11.5957 26.5244 10.6172C27.2864 9.63855 27.1933 8.26819 26.2858 7.56146C25.3782 6.85473 24.0268 7.1003 23.2648 8.07889Z" fill="#4E2F0E"/>
<path d="M45.4062 9.77692C43.3001 7.25994 43.4851 3.63606 45.8195 1.68274C48.1538 -0.270581 51.7536 0.186353 53.8597 2.70333C55.9658 5.2203 55.7807 8.84418 53.4464 10.7975C51.112 12.7508 47.5123 12.2939 45.4062 9.77692Z" fill="#DF9848"/>
<path fill-rule="evenodd" clip-rule="evenodd" d="M54.2225 2.39974C56.5008 5.12249 56.2752 9.04729 53.75 11.1603C51.2247 13.2734 47.3217 12.8032 45.0434 10.0805C42.765 7.35765 42.9906 3.43301 45.5159 1.31993C48.0411 -0.793069 51.9441 -0.323105 54.2225 2.39974ZM53.4969 3.00691C51.5658 0.699069 48.2634 0.254434 46.123 2.04544C43.9825 3.83652 43.8378 7.16557 45.7689 9.47341C47.7 11.7812 51.0023 12.2258 53.1428 10.4347C55.2832 8.64369 55.428 5.31474 53.4969 3.00691Z" fill="#4E2F0E"/>
<path d="M47.0625 8.50189C46.0924 7.34248 46.1776 5.6732 47.2529 4.77343C48.3282 3.87367 49.9863 4.08415 50.9565 5.24355C51.9266 6.40295 51.8414 8.07224 50.7661 8.972C49.6908 9.87177 48.0327 9.66129 47.0625 8.50189Z" fill="#BE6E31"/>
<path fill-rule="evenodd" clip-rule="evenodd" d="M51.3195 4.94001C52.4626 6.30614 52.3369 8.27461 51.0699 9.33478C49.8028 10.395 47.8431 10.1716 46.6999 8.80547C45.5568 7.43934 45.6825 5.47083 46.9495 4.41062C48.2165 3.35045 50.1763 3.57389 51.3195 4.94001ZM50.5939 5.54713C49.798 4.59591 48.4388 4.39798 47.5566 5.13616C46.6744 5.87435 46.6295 7.24713 47.4255 8.19835C48.2214 9.14953 49.5806 9.34742 50.4628 8.60924C51.345 7.87105 51.3898 6.49831 50.5939 5.54713Z" fill="#4E2F0E"/>
<path d="M37.9816 30.9843C46.1298 30.9843 52.7352 24.9012 52.7352 17.3972C52.7352 9.8933 46.1298 3.81015 37.9816 3.81015C29.8333 3.81015 23.2279 9.8933 23.2279 17.3972C23.2279 24.9012 29.8333 30.9843 37.9816 30.9843Z" fill="#DF9848"/>
<path fill-rule="evenodd" clip-rule="evenodd" d="M37.9815 3.3371C46.3956 3.3371 53.2082 9.64838 53.2082 17.3972C53.2082 25.1461 46.3956 31.4574 37.9815 31.4574C29.5673 31.4574 22.7547 25.1461 22.7547 17.3972C22.7547 9.64838 29.5673 3.3371 37.9815 3.3371ZM37.9815 4.28309C30.11 4.28309 23.7008 10.1482 23.7008 17.3972C23.7008 24.6463 30.11 30.5114 37.9815 30.5114C45.8529 30.5114 52.2621 24.6463 52.2621 17.3972C52.2621 10.1482 45.8529 4.28309 37.9815 4.28309Z" fill="#4E2F0E"/>
<path d="M35.1767 19.7542C35.8474 19.5253 36.1585 18.6579 35.8714 17.8169C35.5844 16.9758 34.808 16.4795 34.1373 16.7084C33.4667 16.9373 33.1556 17.8046 33.4427 18.6457C33.7297 19.4868 34.5061 19.9831 35.1767 19.7542Z" fill="#4E2F0E"/>
<path d="M44.2232 18.8295C44.9316 18.8492 45.5258 18.1449 45.5504 17.2566C45.5751 16.3682 45.0208 15.6321 44.3124 15.6125C43.604 15.5928 43.0098 16.2971 42.9851 17.1854C42.9605 18.0738 43.5148 18.8099 44.2232 18.8295Z" fill="#4E2F0E"/>
<path d="M33.1856 24.4355C33.493 27.5813 36.8531 29.8275 40.6906 29.4525C44.5281 29.0774 47.3898 26.2232 47.0824 23.0774C46.7749 19.9315 43.4148 17.6854 39.5773 18.0604C35.7398 18.4355 32.8781 21.2897 33.1856 24.4355Z" fill="#F8D095"/>
<path fill-rule="evenodd" clip-rule="evenodd" d="M32.0686 15.8309C32.0686 15.8309 32.4743 15.0111 34.2371 14.6242C34.6206 14.54 35.0397 14.3139 34.686 14.0386C34.3959 13.8129 34.1256 13.6548 33.5807 13.7162C33.0358 13.7776 31.9002 14.0498 31.5658 15.4115C31.5658 15.4115 31.255 17.0861 32.0686 15.8309Z" fill="#4E2F0E"/>
<path fill-rule="evenodd" clip-rule="evenodd" d="M45.9942 14.2891C45.9942 14.2891 45.4277 13.5709 43.623 13.5572C43.2304 13.5542 42.7735 13.4197 43.0627 13.0772C43.2997 12.7964 43.5315 12.5857 44.0773 12.533C44.6231 12.4804 45.7905 12.5117 46.3994 13.7747C46.3994 13.7747 47.05 15.3487 45.9942 14.2891Z" fill="#4E2F0E"/>
<path fill-rule="evenodd" clip-rule="evenodd" d="M40.9669 25.6019C41.6026 25.409 42.782 24.8568 43.6068 23.3167C43.73 23.0864 44.0169 22.9997 44.2471 23.1229C44.4771 23.2461 44.564 23.5331 44.4408 23.7632C43.059 26.3436 40.8306 26.6217 40.6131 26.643C40.3966 26.6728 38.1645 26.9196 36.2215 24.7305C36.0482 24.5353 36.066 24.236 36.2613 24.0627C36.4565 23.8894 36.7557 23.9072 36.9291 24.1025C38.0889 25.4091 39.3641 25.6725 40.0273 25.7125L39.7896 23.6927C38.3651 23.659 37.1673 22.7127 37.0153 21.4212L37.0144 21.4136C36.9126 20.549 38.1485 19.692 39.7725 19.5009C41.3967 19.3097 42.7978 19.8564 42.8995 20.7209L42.9004 20.7286C43.0524 22.0201 42.107 23.2186 40.7292 23.5822L40.9669 25.6019Z" fill="#4E2F0E"/>
<path fill-rule="evenodd" clip-rule="evenodd" d="M17.4215 45.3981L17.7286 46.3751C18.217 47.9285 17.3523 49.586 15.799 50.0743L14.8803 50.3631C13.3271 50.8515 11.6696 49.9869 11.1812 48.4335L10.8741 47.4566C10.3858 45.9033 11.2503 44.2457 12.8035 43.7574L13.7223 43.4686C15.2755 42.9803 16.9332 43.8449 17.4215 45.3981Z" fill="#CF471C"/>
<path fill-rule="evenodd" clip-rule="evenodd" d="M17.8728 45.2562L18.1799 46.2332C18.7465 48.0355 17.7433 49.9589 15.9409 50.5255L15.0222 50.8144C13.2199 51.381 11.2966 50.3777 10.73 48.5754L10.4229 47.5984C9.85623 45.7961 10.8593 43.8727 12.6617 43.3061L13.5804 43.0173C15.3828 42.4506 17.3061 43.4539 17.8728 45.2562ZM16.9702 45.54C16.5602 44.2357 15.1684 43.5098 13.8642 43.9198L12.9455 44.2086C11.6412 44.6187 10.9153 46.0104 11.3254 47.3147L11.6325 48.2916C12.0426 49.5959 13.4342 50.3218 14.7385 49.9118L15.6572 49.623C16.9614 49.2129 17.6874 47.8212 17.2774 46.5169L16.9702 45.54Z" fill="#4E2F0E"/>
<path d="M15.8219 51.7521C16.3715 51.5793 16.6769 50.9938 16.5041 50.4442C16.3314 49.8947 15.7458 49.5892 15.1963 49.762C14.6467 49.9348 14.3413 50.5203 14.514 51.0699C14.6868 51.6194 15.2724 51.9249 15.8219 51.7521Z" fill="#4E2F0E"/>
<path d="M10.517 34.9707C10.9349 34.8394 10.7371 33.0264 10.0753 30.9214C9.41351 28.8164 8.53828 27.2164 8.12043 27.3478C7.70258 27.4791 7.90036 29.2921 8.56215 31.3971C9.22395 33.5021 10.0992 35.1021 10.517 34.9707Z" fill="#CF471C"/>
<path fill-rule="evenodd" clip-rule="evenodd" d="M7.97848 26.8965L8.21661 26.8688L8.37427 26.8986L8.50586 26.9527C8.6426 27.0231 8.80554 27.1598 8.97241 27.3703C9.43614 27.9555 10.0412 29.2363 10.5264 30.7795C11.0116 32.3227 11.2482 33.7193 11.2027 34.4645C11.1864 34.7327 11.1309 34.938 11.0591 35.074L10.9821 35.1936L10.8699 35.3083L10.6588 35.4219L10.4206 35.4496L10.2629 35.4197L10.1313 35.3657C9.99456 35.2953 9.83165 35.1586 9.66478 34.948C9.20104 34.3629 8.59596 33.0821 8.1108 31.539C7.62562 29.9957 7.38897 28.5991 7.43445 27.8539C7.45083 27.5857 7.50622 27.3804 7.57807 27.2444L7.65504 27.1248L7.76728 27.0101L7.97848 26.8965ZM8.37647 28.1624C8.37658 28.1767 8.37698 28.1909 8.3776 28.205C8.4067 28.9289 8.63169 30.0415 9.01327 31.2552C9.39481 32.4688 9.84697 33.5101 10.2373 34.1204C10.2449 34.1323 10.2527 34.1441 10.2608 34.156C10.2606 34.1417 10.2602 34.1275 10.2596 34.1134C10.2305 33.3895 10.0055 32.2769 9.62396 31.0632C9.24238 29.8495 8.79019 28.8083 8.39981 28.198C8.39226 28.1861 8.38449 28.1742 8.37647 28.1624Z" fill="#4E2F0E"/>
<path d="M8.50476 28.5705C9.42557 28.281 9.93736 27.2998 9.64786 26.379C9.35837 25.4582 8.37723 24.9464 7.45642 25.2359C6.53561 25.5254 6.02383 26.5066 6.31332 27.4274C6.60281 28.3482 7.58395 28.86 8.50476 28.5705Z" fill="#CF471C"/>
<path fill-rule="evenodd" clip-rule="evenodd" d="M7.31453 24.7848C8.48373 24.4172 9.73141 25.068 10.099 26.2372C10.4666 27.4064 9.81576 28.6541 8.64656 29.0216C7.47736 29.3892 6.22957 28.7385 5.86199 27.5693C5.49441 26.4001 6.14533 25.1523 7.31453 24.7848ZM7.59825 25.6872C6.92712 25.8982 6.55356 26.6144 6.76456 27.2855C6.97555 27.9566 7.6917 28.3302 8.36284 28.1192C9.03397 27.9082 9.40753 27.192 9.19654 26.5209C8.98554 25.8498 8.26939 25.4762 7.59825 25.6872Z" fill="#4E2F0E"/>
<path fill-rule="evenodd" clip-rule="evenodd" d="M0.597316 45.8233C0.549685 45.6941 0.519535 45.5463 0.505248 45.3816C0.406099 44.6647 0.538938 43.9096 0.872819 43.1464C2.4581 37.9827 9.90085 33.0111 9.90085 33.0111C9.90085 33.0111 18.8495 32.8294 23.1043 36.1571C23.815 36.5919 24.356 37.1351 24.6849 37.7798C24.7675 37.9231 24.8272 38.0615 24.8621 38.1947C24.873 38.2261 24.8835 38.2578 24.8935 38.2895C25.954 41.6626 21.378 46.1104 14.681 48.2158C7.98423 50.3212 1.68633 49.2921 0.625864 45.919C0.615881 45.8872 0.60629 45.8552 0.597316 45.8233Z" fill="#4085A6"/>
<path fill-rule="evenodd" clip-rule="evenodd" d="M0.147348 45.9701L0.146764 45.9683C0.0908272 45.8108 0.0530757 45.6324 0.0352386 45.436C-0.0713824 44.6487 0.0665844 43.8192 0.428405 42.9824C1.08776 40.8595 2.69356 38.763 4.39709 37.0176C6.9193 34.4332 9.63812 32.6177 9.63812 32.6177C9.71318 32.5676 9.80103 32.54 9.89124 32.5381C9.89124 32.5381 13.1598 32.4712 16.7072 33.1475C19.1029 33.6041 21.6193 34.4045 23.3738 35.7674C24.1499 36.2469 24.7377 36.848 25.0996 37.5522C25.199 37.726 25.2705 37.8948 25.3143 38.0553C25.3249 38.0859 25.335 38.1168 25.3448 38.1476C25.8103 39.6283 25.3248 41.3081 24.058 42.926C22.2804 45.1961 18.9473 47.3704 14.8229 48.667C10.6986 49.9637 6.72093 50.0879 3.96416 49.2432C1.9994 48.6414 0.640052 47.5415 0.174557 46.0609C0.16509 46.0307 0.156022 46.0004 0.147348 45.9701ZM1.05267 45.6951C1.06034 45.7226 1.06859 45.7499 1.07712 45.7771C1.46007 46.9952 2.6249 47.8435 4.24127 48.3388C6.85606 49.1399 10.6273 48.9944 14.5391 47.7645C18.451 46.5347 21.6271 44.496 23.3131 42.3428C24.3553 41.0117 24.8251 39.6494 24.4422 38.4314C24.4337 38.4042 24.4246 38.3771 24.4154 38.3502C24.4112 38.3384 24.4076 38.3265 24.4045 38.3144C24.3793 38.2185 24.3346 38.1193 24.2751 38.016C24.2711 38.0091 24.2672 38.002 24.2635 37.9948C23.9718 37.4232 23.4876 36.9461 22.8575 36.5605C22.8421 36.5511 22.8272 36.5408 22.8129 36.5297C21.1653 35.2411 18.7864 34.5069 16.5301 34.0768C13.5085 33.5008 10.6954 33.4791 10.0491 33.4826C9.51709 33.8497 7.22238 35.4771 5.07406 37.6784C3.46974 39.3223 1.93888 41.2857 1.32502 43.2853C1.31971 43.3025 1.31351 43.3195 1.3062 43.336C1.01011 44.0127 0.885956 44.6812 0.973831 45.3169C0.974907 45.3248 0.975767 45.3329 0.976483 45.3408C0.986698 45.4596 1.00687 45.5665 1.04113 45.6596C1.04542 45.6713 1.04924 45.6831 1.05267 45.6951Z" fill="#4E2F0E"/>
<path fill-rule="evenodd" clip-rule="evenodd" d="M20.1684 34.5785C21.2586 34.9887 22.2714 35.5057 23.1043 36.1571C23.815 36.5919 24.356 37.1351 24.6849 37.7798C24.7675 37.9231 24.8272 38.0615 24.8621 38.1947C24.873 38.2261 24.8835 38.2578 24.8935 38.2895C25.954 41.6626 21.378 46.1104 14.681 48.2158C7.98423 50.3212 1.68633 49.2921 0.625864 45.919C0.615881 45.8872 0.60629 45.8552 0.597316 45.8233C0.549685 45.6941 0.519535 45.5463 0.505248 45.3816C0.406099 44.6647 0.538938 43.9096 0.872819 43.1464C1.21408 42.0349 1.82671 40.9322 2.57817 39.8862C5.65439 39.6787 8.87759 39.0817 12.1209 38.062C15.0321 37.1467 17.735 35.9615 20.1684 34.5785Z" fill="#8FA13E"/>
<path fill-rule="evenodd" clip-rule="evenodd" d="M20.3349 34.1358C21.4628 34.5602 22.51 35.0963 23.3738 35.7674C24.1499 36.2469 24.7377 36.848 25.0996 37.5522C25.199 37.726 25.2705 37.8948 25.3143 38.0553C25.3249 38.0859 25.335 38.1168 25.3448 38.1476C25.8103 39.6283 25.3248 41.3081 24.058 42.926C22.2804 45.1961 18.9473 47.3704 14.8229 48.667C10.6986 49.9637 6.72093 50.0879 3.96416 49.2432C1.9994 48.6414 0.640052 47.5415 0.174557 46.0609C0.16509 46.0307 0.156022 46.0004 0.147348 45.9701C0.0909487 45.8123 0.0530312 45.6331 0.0352386 45.436C-0.0713824 44.6487 0.0665844 43.8192 0.428405 42.9824C0.785283 41.8332 1.41706 40.6918 2.19399 39.6102C2.27623 39.4956 2.40548 39.4237 2.54625 39.4142C5.58703 39.209 8.77304 38.6186 11.979 37.6107C14.857 36.7059 17.529 35.5345 19.9346 34.1673C20.0567 34.0979 20.2034 34.0863 20.3349 34.1358ZM20.2068 35.1C17.7965 36.4517 15.1296 37.6119 12.2628 38.5132C9.06089 39.5198 5.87845 40.1189 2.83469 40.3423C2.17264 41.2907 1.63259 42.2835 1.32502 43.2853C1.31971 43.3025 1.31351 43.3195 1.3062 43.336C1.01011 44.0127 0.885956 44.6812 0.973831 45.3169C0.974907 45.3248 0.975767 45.3329 0.976483 45.3408C0.986698 45.4596 1.00687 45.5665 1.04113 45.6596C1.04542 45.6713 1.04924 45.6831 1.05267 45.6951C1.06034 45.7226 1.06859 45.7499 1.07712 45.7771C1.46007 46.9952 2.6249 47.8435 4.24127 48.3388C6.85606 49.1399 10.6273 48.9944 14.5391 47.7645C18.451 46.5347 21.6271 44.496 23.3131 42.3428C24.3553 41.0117 24.8251 39.6494 24.4422 38.4314C24.4337 38.4042 24.4246 38.3771 24.4154 38.3502C24.4112 38.3384 24.4076 38.3265 24.4045 38.3144C24.3793 38.2185 24.3346 38.1193 24.2751 38.016C24.2711 38.0091 24.2672 38.002 24.2635 37.9948C23.9718 37.4232 23.4876 36.9461 22.8575 36.5605C22.8421 36.5511 22.8272 36.5408 22.8129 36.5297C22.0682 35.9472 21.1722 35.4792 20.2068 35.1Z" fill="#4E2F0E"/>
<path fill-rule="evenodd" clip-rule="evenodd" d="M23.7664 36.6362C24.157 36.9717 24.4674 37.3536 24.6849 37.7798C24.7675 37.9231 24.8272 38.0615 24.8621 38.1947C24.873 38.2261 24.8835 38.2578 24.8935 38.2895C25.954 41.6626 21.378 46.1104 14.681 48.2158C7.98423 50.3212 1.68633 49.2921 0.625864 45.919C0.615881 45.8872 0.60629 45.8552 0.597316 45.8233C0.549685 45.6941 0.519535 45.5463 0.505248 45.3816C0.423906 44.7932 0.498642 44.1791 0.71269 43.5559C4.65722 43.6169 8.9354 43.0085 13.2495 41.6522C17.1866 40.4144 20.7428 38.6829 23.7664 36.6362Z" fill="#F9AA2F"/>
<path fill-rule="evenodd" clip-rule="evenodd" d="M24.0747 36.2773C24.5108 36.6519 24.8564 37.079 25.1005 37.5537C25.1994 37.727 25.2707 37.8953 25.3143 38.0553C25.3249 38.0859 25.335 38.1168 25.3448 38.1476C25.8103 39.6283 25.3248 41.3081 24.058 42.926C22.2804 45.1961 18.9473 47.3704 14.8229 48.667C10.6986 49.9637 6.72093 50.0879 3.96416 49.2432C1.9994 48.6414 0.640052 47.5415 0.174557 46.0609C0.16509 46.0307 0.156022 46.0004 0.147348 45.9701C0.0909487 45.8123 0.0530312 45.6331 0.0352386 45.436C-0.0537583 44.7801 0.026844 44.0965 0.26542 43.4022C0.331866 43.2085 0.515454 43.0797 0.720067 43.0828C4.61763 43.1432 8.84493 42.5411 13.1077 41.2009C16.9986 39.9777 20.5132 38.2671 23.5013 36.2443C23.6779 36.1248 23.9128 36.1382 24.0747 36.2773ZM23.717 37.2384C20.7268 39.2175 17.2391 40.8937 13.3914 42.1034C9.15595 43.435 4.95457 44.0533 1.06278 44.0325C0.949752 44.4701 0.91627 44.9006 0.973831 45.3169C0.974907 45.3248 0.975767 45.3329 0.976483 45.3408C0.986698 45.4596 1.00687 45.5665 1.04113 45.6596C1.04542 45.6713 1.04924 45.6831 1.05267 45.6951C1.06034 45.7226 1.06859 45.7499 1.07712 45.7771C1.46007 46.9952 2.6249 47.8435 4.24127 48.3388C6.85606 49.1399 10.6273 48.9944 14.5391 47.7645C18.451 46.5347 21.6271 44.496 23.3131 42.3428C24.3553 41.0117 24.8251 39.6494 24.4422 38.4314C24.4337 38.4042 24.4246 38.3771 24.4154 38.3502C24.4112 38.3384 24.4076 38.3265 24.4045 38.3144C24.3793 38.2185 24.3346 38.1193 24.2751 38.016C24.2711 38.0091 24.2672 38.002 24.2635 37.9948C24.124 37.7212 23.94 37.4692 23.717 37.2384Z" fill="#4E2F0E"/>
<path fill-rule="evenodd" clip-rule="evenodd" d="M24.7734 40.5172C23.8902 43.4319 20.1109 46.5087 14.7933 48.1805C9.2084 49.9363 3.901 49.5121 1.67743 47.3663C5.68659 47.4558 10.049 46.8504 14.4489 45.4671C18.3898 44.2281 21.7478 42.5665 24.7734 40.5172Z" fill="#98569A"/>
<path fill-rule="evenodd" clip-rule="evenodd" d="M25.226 40.6543C24.3122 43.6706 20.4378 46.9017 14.9351 48.6317C11.5044 49.7103 8.17537 49.9794 5.56977 49.5524C3.76277 49.2562 2.29624 48.6209 1.34884 47.7068C1.20875 47.5716 1.16579 47.3642 1.24067 47.1844C1.31565 47.0047 1.49321 46.8892 1.68785 46.8936C5.64925 46.9818 9.95959 46.3826 14.307 45.0159C18.2006 43.7918 21.5188 42.1503 24.508 40.1256C24.6739 40.0132 24.8925 40.0175 25.0538 40.1363C25.2152 40.2551 25.2841 40.4627 25.226 40.6543ZM23.6554 41.8042C20.9576 43.4714 17.9881 44.8502 14.5907 45.9184C10.6866 47.1458 6.81142 47.7672 3.18085 47.8406C3.89403 48.2009 4.75488 48.4602 5.72277 48.6189C8.20716 49.026 11.3803 48.7576 14.6514 47.7292C18.9196 46.3874 22.186 44.1408 23.6554 41.8042Z" fill="#4E2F0E"/>
<path fill-rule="evenodd" clip-rule="evenodd" d="M9.50334 31.6548C11.2109 31.1179 12.2709 31.2449 12.6594 32.4806C13.0479 33.7163 12.2512 34.427 10.5437 34.9638C8.83601 35.5007 7.7761 35.3737 7.3876 34.138C6.99909 32.9023 7.79569 32.1916 9.50334 31.6548Z" fill="#D4442A"/>
<path fill-rule="evenodd" clip-rule="evenodd" d="M9.36162 31.2036C10.7537 30.7659 11.7753 30.784 12.4186 31.2816C12.7238 31.5177 12.9606 31.8611 13.1108 32.3387C13.261 32.8164 13.2633 33.2336 13.148 33.6018C12.9052 34.3782 12.0778 34.9776 10.6857 35.4152C9.29362 35.8529 8.27207 35.8348 7.62855 35.337C7.32349 35.101 7.08664 34.7575 6.93647 34.2799C6.7863 33.8022 6.78403 33.3851 6.89913 33.0169C7.14212 32.2406 7.96953 31.6412 9.36162 31.2036ZM9.64533 32.106C8.27683 32.5362 7.52764 33.0059 7.83897 33.9961C8.15034 34.9865 9.03344 34.9429 10.4019 34.5126C11.7705 34.0824 12.5197 33.6129 12.2083 32.6225C11.897 31.6322 11.0138 31.6758 9.64533 32.106Z" fill="#4E2F0E"/>
<path d="M64.5174 35.6228L60.7407 34.6088C59.7443 34.3417 58.7118 34.3134 58.3491 35.2783L57.7568 37.0607L57.4174 37.964L65.6727 39.8409L65.7413 39.1045L65.9894 36.6271C66.2821 35.5555 65.5895 35.9104 64.5174 35.6228Z" fill="#D4442A"/>
<path fill-rule="evenodd" clip-rule="evenodd" d="M64.6407 35.1659C65.1827 35.3113 65.6284 35.2958 65.9019 35.3779C66.0286 35.4159 66.134 35.4692 66.2204 35.5363L66.3221 35.6307L66.4083 35.7465C66.5212 35.9325 66.5823 36.2269 66.457 36.7118L66.2129 39.15L66.1445 39.8848C66.1319 40.0204 66.0614 40.144 65.9511 40.2239C65.8408 40.3038 65.7014 40.3323 65.5686 40.3021L57.3134 38.4253C57.1801 38.395 57.0665 38.3086 57.0017 38.1883C56.9369 38.068 56.9273 37.9256 56.9754 37.7977L57.3116 36.9029L57.901 35.1291C57.903 35.1233 57.905 35.1176 57.9071 35.1119C58.361 33.904 59.6168 33.8176 60.8641 34.152L64.6407 35.1659ZM65.5755 36.2764C65.505 36.2629 65.3987 36.2438 65.3117 36.2341C65.0551 36.2054 64.744 36.1731 64.3956 36.0796L60.619 35.0657C60.2699 34.9721 59.9164 34.908 59.5967 34.9236C59.2442 34.9409 58.9383 35.0673 58.7956 35.437L58.2065 37.2099C58.2046 37.2157 58.2025 37.2214 58.2004 37.2271L58.0517 37.6229L65.2525 39.26L65.2711 39.0607L65.2714 39.0574L65.5195 36.58C65.5221 36.5538 65.5269 36.5279 65.5339 36.5025C65.555 36.4251 65.5681 36.3374 65.5755 36.2764Z" fill="#4E2F0E"/>
<path d="M71.2053 42.1358C71.4058 42.1824 71.6362 42.1008 71.7316 41.8628C74.0041 36.2218 71.2937 28.9027 71.2937 28.9027L67.5246 36.1946C67.5246 36.1946 68.3372 36.6422 69.1289 37.4057C69.6131 37.8742 70.0903 38.4608 70.3682 39.136C70.6415 39.801 70.8374 41.0341 70.8563 41.7086C70.8633 41.9434 71.0212 42.0934 71.2053 42.1358Z" fill="#98569A"/>
<path fill-rule="evenodd" clip-rule="evenodd" d="M71.0987 42.5966C70.722 42.5097 70.3978 42.2034 70.3835 41.7227C70.3658 41.0921 70.1863 39.9377 69.9307 39.3159C69.6781 38.7021 69.2404 38.1718 68.8003 37.7459C68.0577 37.0298 67.2964 36.609 67.2964 36.609C67.0718 36.4853 66.9867 36.2052 67.1044 35.9774L70.8735 28.6855C70.9595 28.5191 71.1356 28.4192 71.3226 28.4306C71.5096 28.4421 71.6722 28.5628 71.7373 28.7385C71.7373 28.7385 74.5024 36.2497 72.1707 42.0388C71.9762 42.524 71.5074 42.6915 71.0987 42.5966ZM71.3256 41.6037C72.9715 37.4148 71.8241 32.3066 71.1915 30.1307L68.1462 36.0223C68.4763 36.2393 68.9706 36.5959 69.4573 37.0652C69.9855 37.5762 70.5025 38.2195 70.8056 38.956C71.0849 39.6356 71.2917 40.8717 71.3256 41.6037Z" fill="#4E2F0E"/>
<path d="M51.4225 36.4576C51.2278 36.3908 51.0758 36.1995 51.1212 35.947C52.1865 29.9595 58.3661 25.1923 58.3661 25.1923L57.694 33.3731C57.694 33.3731 56.7677 33.3215 55.6916 33.5489C55.0326 33.6893 54.3169 33.9335 53.7232 34.3585C53.1388 34.7774 52.3188 35.7188 51.945 36.2806C51.8145 36.476 51.6011 36.5194 51.4225 36.4576Z" fill="#98569A"/>
<path fill-rule="evenodd" clip-rule="evenodd" d="M51.2686 36.9048C50.8718 36.7685 50.5632 36.3779 50.6556 35.8634C51.7493 29.7189 58.0772 24.8178 58.0772 24.8178C58.2255 24.7034 58.4274 24.6872 58.592 24.7767C58.7566 24.8662 58.8529 25.0443 58.8376 25.231L58.1654 33.4118C58.1444 33.6673 57.9237 33.8596 57.6677 33.8454C57.6677 33.8454 56.7991 33.7984 55.7898 34.0116C55.1907 34.1392 54.5384 34.3567 53.9987 34.743C53.4523 35.1347 52.6883 36.0173 52.3389 36.5426C52.0718 36.9425 51.634 37.031 51.2686 36.9048ZM51.6028 35.9427C52.021 35.3388 52.8509 34.4017 53.4477 33.974C54.0953 33.5104 54.8742 33.2393 55.593 33.0862C56.2545 32.9465 56.8635 32.9063 57.2584 32.8973L57.8016 26.2875C56.1112 27.7967 52.4293 31.5185 51.6028 35.9427Z" fill="#4E2F0E"/>
<path d="M59.3045 35.2097L65.372 36.6225C65.6318 36.6832 65.8943 36.6974 66.1497 36.6679C66.2225 36.6599 66.296 36.6479 66.3684 36.6329C66.9184 36.5166 67.4193 36.1998 67.7605 35.7241C69.9023 32.7358 74.8959 24.6822 74.1344 15.4601L74.1348 15.4582C73.8919 12.5257 73.0674 9.47546 71.3836 6.43219C70.6653 5.13432 68.9462 4.81269 67.7994 5.75183C66.2448 7.02524 64.0814 9.05554 62.0915 11.8178C58.5421 16.746 55.5501 24.0034 57.5767 33.4523C57.6896 33.9765 57.9782 34.434 58.3807 34.7579C58.6459 34.9729 58.9596 35.1296 59.3045 35.2097Z" fill="#4085A6"/>
<path fill-rule="evenodd" clip-rule="evenodd" d="M74.6076 15.4432C75.3711 24.7976 70.3179 32.9679 68.145 35.9996C67.7335 36.5733 67.1295 36.9554 66.4663 37.0957L66.4646 37.096C66.3779 37.114 66.2899 37.1283 66.2028 37.1379C65.8946 37.1734 65.5779 37.1563 65.2647 37.0832L59.1973 35.6704C58.7817 35.5739 58.4035 35.3851 58.0838 35.1261C57.5985 34.7355 57.2505 34.184 57.1143 33.5518C55.0525 23.9389 58.0966 16.5551 61.7077 11.5413C63.7269 8.73836 65.9222 6.67804 67.4997 5.38586C68.8749 4.25968 70.9362 4.64679 71.7975 6.20315C73.5167 9.31044 74.3582 12.425 74.6062 15.4191C74.6069 15.4271 74.6073 15.4352 74.6076 15.4432ZM74.5914 15.5822C74.5718 15.6554 74.5347 15.7236 74.4823 15.7805C74.4629 15.8016 74.4418 15.8207 74.4193 15.8377C74.4064 15.8468 74.3933 15.8551 74.3802 15.8625C74.4178 15.8397 74.4524 15.8115 74.4828 15.7785C74.5397 15.7167 74.5785 15.6416 74.5965 15.5612L74.1344 15.9331C74.1344 15.9331 74.1339 15.9325 74.1331 15.9312C73.9199 15.9305 73.7378 15.788 73.6805 15.5901C73.7668 15.8471 74.1047 15.9251 74.1331 15.9312C74.1056 15.887 73.699 15.239 73.6731 15.3552C73.6646 15.3933 73.6606 15.4291 73.6605 15.4626C73.4191 12.6024 72.6115 9.62847 70.9697 6.66121C70.3945 5.62183 69.0175 5.36569 68.0991 6.11778C66.5674 7.37241 64.4359 9.37274 62.4753 12.0943C58.9876 16.9368 56.0478 24.0682 58.0392 33.3527C58.1288 33.7689 58.3577 34.1322 58.6772 34.3893L58.6786 34.3904C58.889 34.5611 59.1379 34.6854 59.4115 34.7489L65.4796 36.1619C65.6852 36.2099 65.8931 36.2214 66.0953 36.198L66.0982 36.1976C66.1558 36.1913 66.214 36.1818 66.2714 36.1699C66.7078 36.0774 67.1053 35.8259 67.3762 35.4484C69.4829 32.509 74.4025 24.596 73.6653 15.5276C73.6674 15.541 73.6701 15.5539 73.6734 15.5665C73.722 15.7781 73.9113 15.9331 74.1344 15.9331C74.238 15.9331 74.3378 15.8992 74.4193 15.8377C74.4919 15.7862 74.5587 15.7062 74.5914 15.5822ZM74.1368 15.9312C74.1533 15.9309 74.2677 15.9264 74.3802 15.8625C74.3075 15.9067 74.2235 15.9308 74.1368 15.9312ZM73.6805 15.5901C73.6779 15.5824 73.6755 15.5745 73.6734 15.5665C73.6684 15.5446 73.6648 15.5221 73.6629 15.499C73.6637 15.5086 73.6645 15.5181 73.6653 15.5276C73.6621 15.5069 73.6604 15.4853 73.6605 15.4626C73.6615 15.4741 73.6624 15.4857 73.6634 15.4972C73.666 15.5292 73.6718 15.5603 73.6805 15.5901Z" fill="#4E2F0E"/>
<path d="M74.1344 15.4601L74.1348 15.4582C73.8919 12.5257 73.0674 9.47546 71.3836 6.43219C70.6653 5.13432 68.9462 4.81269 67.7994 5.75183C66.2448 7.02524 64.0814 9.05554 62.0915 11.8178C62.0915 11.8178 69.8446 11.1598 74.1344 15.4601Z" fill="#F9AA2F"/>
<path fill-rule="evenodd" clip-rule="evenodd" d="M74.5965 15.5612L74.4537 16.3851L74.1344 15.9331C74.0087 15.9331 73.8882 15.8832 73.7995 15.7942C69.6456 11.6301 62.1315 12.2891 62.1315 12.2891C61.9474 12.3048 61.7711 12.2118 61.68 12.051C61.5889 11.8903 61.5997 11.6913 61.7077 11.5413C63.7269 8.73836 65.9222 6.67804 67.4997 5.38586C68.8749 4.25968 70.9362 4.64679 71.7975 6.20315C73.5167 9.31044 74.3582 12.425 74.6062 15.4191C74.6102 15.4672 74.6068 15.5151 74.5965 15.5612ZM73.5311 14.298C73.1858 11.7994 72.3898 9.22779 70.9697 6.66121C70.3945 5.62183 69.0175 5.36569 68.0991 6.11778C66.718 7.24907 64.8493 8.98661 63.0579 11.3125C65.1483 11.3018 70.055 11.5926 73.5311 14.298Z" fill="#4E2F0E"/>
<path d="M63.9832 22.4167C65.832 23.748 68.41 23.3284 69.7411 21.4795C71.0722 19.6307 70.6526 17.0527 68.8037 15.7216C66.955 14.3904 64.3771 14.81 63.0459 16.659C61.7147 18.5078 62.1344 21.0856 63.9832 22.4167Z" fill="#F7F4E8"/>
<path fill-rule="evenodd" clip-rule="evenodd" d="M63.707 22.8006C61.6461 21.3168 61.1783 18.4434 62.6621 16.3825C64.146 14.3216 67.0196 13.8538 69.0803 15.3377C71.1411 16.8215 71.6089 19.695 70.1251 21.7559C68.6414 23.8168 65.7677 24.2845 63.707 22.8006ZM64.2598 22.0328C65.8965 23.2114 68.1789 22.84 69.3574 21.2031C70.5358 19.5663 70.1643 17.2839 68.5275 16.1054C66.8908 14.9269 64.6085 15.2984 63.4299 16.9353C62.2514 18.5721 62.6229 20.8544 64.2598 22.0328Z" fill="#4E2F0E"/>
<path d="M65.0071 20.995C66.0706 21.7607 67.5535 21.5192 68.3193 20.4558C69.0849 19.3922 68.8436 17.9094 67.7801 17.1436C66.7165 16.378 65.2337 16.6193 64.4679 17.6828C63.7022 18.7463 63.9436 20.2292 65.0071 20.995Z" fill="#4085A6"/>
<path fill-rule="evenodd" clip-rule="evenodd" d="M64.7305 21.3788C63.4549 20.4604 63.1654 18.6819 64.0838 17.4064C65.0021 16.1309 66.7806 15.8414 68.0562 16.7597C69.3316 17.6781 69.6211 19.4566 68.7029 20.7321C67.7845 22.0076 66.0059 22.2972 64.7305 21.3788ZM65.2833 20.6111C66.1347 21.2242 67.322 21.0308 67.9351 20.1794C68.5481 19.3278 68.3549 18.1406 67.5034 17.5275C66.6519 16.9144 65.4646 17.1077 64.8515 17.9592C64.2385 18.8107 64.4317 19.9979 65.2833 20.6111Z" fill="#4E2F0E"/>
<path d="M63.072 29.7312C62.0405 31.1005 59.6915 37.4868 60.7442 41.1413C60.8561 41.5296 61.3692 41.6185 61.6063 41.2914C62.5491 39.9913 65.3528 33.2753 64.6648 30.0905C64.5025 29.3392 63.5345 29.1173 63.072 29.7312Z" fill="#98569A"/>
<path fill-rule="evenodd" clip-rule="evenodd" d="M62.694 29.4466C63.4001 28.5093 64.8792 28.8435 65.127 29.9906C65.4146 31.3219 65.1352 33.2453 64.6131 35.1591C63.845 37.9749 62.569 40.7694 61.9891 41.5691C61.5215 42.214 60.5101 42.0378 60.2895 41.2723C59.7431 39.3754 60.062 36.7684 60.6689 34.4591C61.2739 32.1569 62.1603 30.1552 62.694 29.4466ZM63.4497 30.0158C62.9519 30.6766 62.1481 32.5526 61.5839 34.6996C61.0215 36.8393 60.6923 39.2527 61.1985 41.0103C61.2017 41.0214 61.2164 41.0231 61.2232 41.0138C61.7747 40.2532 62.9699 37.5881 63.7004 34.9101C64.1775 33.1613 64.4651 31.4069 64.2023 30.1904C64.1255 29.8349 63.6685 29.7253 63.4497 30.0158Z" fill="#4E2F0E"/>
</svg>
