<svg width="20" height="18" viewBox="0 0 20 18" fill="none" xmlns="http://www.w3.org/2000/svg">
<path d="M2.222 10L10 17.5L17.778 10C19.128 8.9835 20 7.372 20 5.5555C20 2.489 17.511 0 14.4445 0C12.628 0 11.011 0.878 10 2.228C8.989 0.878 7.372 0 5.5555 0C2.489 0 0 2.489 0 5.5555C0 7.372 0.872 8.9835 2.222 10ZM5.5555 2C6.6835 2 7.72 2.52 8.399 3.4265L10 5.564L11.601 3.4265C12.28 2.52 13.3165 2 14.4445 2C16.405 2 18 3.595 18 5.5555C18 6.6825 17.4805 7.72 16.5745 8.4025L16.477 8.476L16.389 8.5605L10 14.7215L3.6105 8.5605L3.5225 8.476L3.425 8.4025C2.5195 7.72 2 6.6825 2 5.5555C2 3.595 3.595 2 5.5555 2Z" fill="white"/>
</svg>
