<svg width="24" height="24" viewBox="0 0 24 24" fill="none" xmlns="http://www.w3.org/2000/svg">
<path d="M9.29297 16.2927C10.865 16.2927 12.311 15.7682 13.4795 14.8932L20.293 21.7072L21.707 20.2927L14.8935 13.4792C15.7685 12.3107 16.293 10.8647 16.293 9.29272C16.293 5.42672 13.159 2.29272 9.29297 2.29272C5.42697 2.29272 2.29297 5.42672 2.29297 9.29272C2.29297 13.1587 5.42697 16.2927 9.29297 16.2927ZM9.29297 4.29272C12.05 4.29272 14.293 6.53572 14.293 9.29272C14.293 12.0497 12.05 14.2927 9.29297 14.2927C6.53597 14.2927 4.29297 12.0497 4.29297 9.29272C4.29297 6.53572 6.53597 4.29272 9.29297 4.29272Z" fill="#35322D"/>
<path d="M9.29297 16.2927C10.865 16.2927 12.311 15.7682 13.4795 14.8932L20.293 21.7072L21.707 20.2927L14.8935 13.4792C15.7685 12.3107 16.293 10.8647 16.293 9.29272C16.293 5.42672 13.159 2.29272 9.29297 2.29272C5.42697 2.29272 2.29297 5.42672 2.29297 9.29272C2.29297 13.1587 5.42697 16.2927 9.29297 16.2927ZM9.29297 4.29272C12.05 4.29272 14.293 6.53572 14.293 9.29272C14.293 12.0497 12.05 14.2927 9.29297 14.2927C6.53597 14.2927 4.29297 12.0497 4.29297 9.29272C4.29297 6.53572 6.53597 4.29272 9.29297 4.29272Z" fill="black" fill-opacity="0.2"/>
</svg>
